<svg width="153" height="45" viewBox="0 0 153 45" fill="none" xmlns="http://www.w3.org/2000/svg">
<g id="Group">
<path id="Vector" d="M151.221 39.6809C151.221 42.022 149.285 43.9183 146.89 43.9183H5.18255C2.78929 43.9183 0.84668 42.022 0.84668 39.6809V5.88937C0.84668 3.54942 2.78929 1.64648 5.18255 1.64648H146.889C149.285 1.64648 151.22 3.54942 151.22 5.88937L151.221 39.6809Z" fill="white"/>
<path id="path16" d="M146.432 1.69853C149.039 1.69853 151.161 3.76734 151.161 6.30975V39.2569C151.161 41.7993 149.039 43.8681 146.432 43.8681H5.63199C3.02438 43.8681 0.902525 41.7993 0.902525 39.2569V6.30975C0.902525 3.76734 3.02438 1.69853 5.63199 1.69853H146.432ZM146.432 0.818572H5.63199C2.5358 0.818572 0 3.29098 0 6.30975V39.2569C0 42.2756 2.5358 44.748 5.63199 44.748H146.432C149.528 44.748 152.064 42.2756 152.064 39.2569V6.30975C152.064 3.29098 149.528 0.818572 146.432 0.818572Z" fill="#A6A6A6"/>
<g id="Group_2">
<g id="Group_3">
<g id="Vector_2">
<path d="M33.9346 22.5482C33.9019 19.0086 36.9071 17.2866 37.0445 17.2064C35.3426 14.787 32.7045 14.4564 31.7775 14.4301C29.5619 14.2027 27.4127 15.7227 26.2841 15.7227C25.1329 15.7227 23.3949 14.452 21.5217 14.4894C19.1112 14.5256 16.8561 15.8863 15.6193 17.9993C13.0669 22.3077 14.9705 28.639 17.4159 32.1215C18.6392 33.8271 20.0686 35.7315 21.9396 35.6645C23.7699 35.5909 24.4537 34.5267 26.6625 34.5267C28.8511 34.5267 29.4932 35.6645 31.4013 35.6216C33.3657 35.5909 34.6025 33.9084 35.783 32.1874C37.1966 30.2326 37.7643 28.3074 37.7868 28.2085C37.7406 28.1932 33.9717 26.7907 33.9346 22.5482Z" fill="#1C1C1C"/>
<path d="M33.9346 22.5482C33.9019 19.0086 36.9071 17.2866 37.0445 17.2064C35.3426 14.787 32.7045 14.4564 31.7775 14.4301C29.5619 14.2027 27.4127 15.7227 26.2841 15.7227C25.1329 15.7227 23.3949 14.452 21.5217 14.4894C19.1112 14.5256 16.8561 15.8863 15.6193 17.9993C13.0669 22.3077 14.9705 28.639 17.4159 32.1215C18.6392 33.8271 20.0686 35.7315 21.9396 35.6645C23.7699 35.5909 24.4537 34.5267 26.6625 34.5267C28.8511 34.5267 29.4932 35.6645 31.4013 35.6216C33.3657 35.5909 34.6025 33.9084 35.783 32.1874C37.1966 30.2326 37.7643 28.3074 37.7868 28.2085C37.7406 28.1932 33.9717 26.7907 33.9346 22.5482Z" fill="black" fill-opacity="0.2"/>
<path d="M33.9346 22.5482C33.9019 19.0086 36.9071 17.2866 37.0445 17.2064C35.3426 14.787 32.7045 14.4564 31.7775 14.4301C29.5619 14.2027 27.4127 15.7227 26.2841 15.7227C25.1329 15.7227 23.3949 14.452 21.5217 14.4894C19.1112 14.5256 16.8561 15.8863 15.6193 17.9993C13.0669 22.3077 14.9705 28.639 17.4159 32.1215C18.6392 33.8271 20.0686 35.7315 21.9396 35.6645C23.7699 35.5909 24.4537 34.5267 26.6625 34.5267C28.8511 34.5267 29.4932 35.6645 31.4013 35.6216C33.3657 35.5909 34.6025 33.9084 35.783 32.1874C37.1966 30.2326 37.7643 28.3074 37.7868 28.2085C37.7406 28.1932 33.9717 26.7907 33.9346 22.5482Z" fill="black" fill-opacity="0.2"/>
<path d="M30.3301 12.1391C31.3146 10.9388 31.9881 9.30568 31.8012 7.64844C30.3763 7.70994 28.5943 8.6094 27.5682 9.78341C26.6603 10.8179 25.8493 12.5136 26.0588 14.1083C27.6594 14.2247 29.3028 13.3208 30.3301 12.1391Z" fill="#1C1C1C"/>
<path d="M30.3301 12.1391C31.3146 10.9388 31.9881 9.30568 31.8012 7.64844C30.3763 7.70994 28.5943 8.6094 27.5682 9.78341C26.6603 10.8179 25.8493 12.5136 26.0588 14.1083C27.6594 14.2247 29.3028 13.3208 30.3301 12.1391Z" fill="black" fill-opacity="0.2"/>
<path d="M30.3301 12.1391C31.3146 10.9388 31.9881 9.30568 31.8012 7.64844C30.3763 7.70994 28.5943 8.6094 27.5682 9.78341C26.6603 10.8179 25.8493 12.5136 26.0588 14.1083C27.6594 14.2247 29.3028 13.3208 30.3301 12.1391Z" fill="black" fill-opacity="0.2"/>
</g>
</g>
</g>
<g id="Group_4">
<g id="Vector_3">
<path d="M60.4256 35.4181H57.8675L56.4663 31.1251H51.5958L50.261 35.4181H47.7705L52.596 20.8027H55.5764L60.4256 35.4181ZM56.0439 29.324L54.7767 25.5076C54.6427 25.1177 54.3915 24.1996 54.0209 22.7543H53.9758C53.8283 23.3759 53.5906 24.294 53.2639 25.5076L52.0193 29.324H56.0439Z" fill="#1C1C1C"/>
<path d="M60.4256 35.4181H57.8675L56.4663 31.1251H51.5958L50.261 35.4181H47.7705L52.596 20.8027H55.5764L60.4256 35.4181ZM56.0439 29.324L54.7767 25.5076C54.6427 25.1177 54.3915 24.1996 54.0209 22.7543H53.9758C53.8283 23.3759 53.5906 24.294 53.2639 25.5076L52.0193 29.324H56.0439Z" fill="black" fill-opacity="0.2"/>
<path d="M60.4256 35.4181H57.8675L56.4663 31.1251H51.5958L50.261 35.4181H47.7705L52.596 20.8027H55.5764L60.4256 35.4181ZM56.0439 29.324L54.7767 25.5076C54.6427 25.1177 54.3915 24.1996 54.0209 22.7543H53.9758C53.8283 23.3759 53.5906 24.294 53.2639 25.5076L52.0193 29.324H56.0439Z" fill="black" fill-opacity="0.2"/>
</g>
<g id="Vector_4">
<path d="M72.8348 30.0182C72.8348 31.8105 72.3381 33.2273 71.3446 34.2673C70.4547 35.1931 69.3497 35.6555 68.0307 35.6555C66.607 35.6555 65.5842 35.1569 64.9613 34.1597H64.9162V39.7113H62.5148V28.3478C62.5148 27.221 62.4844 26.0646 62.4258 24.8785H64.5378L64.6718 26.5489H64.7169C65.5177 25.2903 66.7331 24.6621 68.3641 24.6621C69.6392 24.6621 70.7037 25.153 71.5552 26.1359C72.409 27.12 72.8348 28.4137 72.8348 30.0182ZM70.3883 30.1039C70.3883 29.0781 70.1517 28.2325 69.6764 27.5669C69.1571 26.8729 68.4599 26.5258 67.5858 26.5258C66.9933 26.5258 66.4549 26.7191 65.9739 27.1002C65.4918 27.4846 65.1764 27.9865 65.0289 28.6081C64.9545 28.898 64.9174 29.1352 64.9174 29.3219V31.0791C64.9174 31.8457 65.1584 32.4925 65.6405 33.0208C66.1226 33.549 66.7489 33.8126 67.5193 33.8126C68.4238 33.8126 69.1278 33.4722 69.6313 32.7935C70.136 32.1136 70.3883 31.2175 70.3883 30.1039Z" fill="#1C1C1C"/>
<path d="M72.8348 30.0182C72.8348 31.8105 72.3381 33.2273 71.3446 34.2673C70.4547 35.1931 69.3497 35.6555 68.0307 35.6555C66.607 35.6555 65.5842 35.1569 64.9613 34.1597H64.9162V39.7113H62.5148V28.3478C62.5148 27.221 62.4844 26.0646 62.4258 24.8785H64.5378L64.6718 26.5489H64.7169C65.5177 25.2903 66.7331 24.6621 68.3641 24.6621C69.6392 24.6621 70.7037 25.153 71.5552 26.1359C72.409 27.12 72.8348 28.4137 72.8348 30.0182ZM70.3883 30.1039C70.3883 29.0781 70.1517 28.2325 69.6764 27.5669C69.1571 26.8729 68.4599 26.5258 67.5858 26.5258C66.9933 26.5258 66.4549 26.7191 65.9739 27.1002C65.4918 27.4846 65.1764 27.9865 65.0289 28.6081C64.9545 28.898 64.9174 29.1352 64.9174 29.3219V31.0791C64.9174 31.8457 65.1584 32.4925 65.6405 33.0208C66.1226 33.549 66.7489 33.8126 67.5193 33.8126C68.4238 33.8126 69.1278 33.4722 69.6313 32.7935C70.136 32.1136 70.3883 31.2175 70.3883 30.1039Z" fill="black" fill-opacity="0.2"/>
<path d="M72.8348 30.0182C72.8348 31.8105 72.3381 33.2273 71.3446 34.2673C70.4547 35.1931 69.3497 35.6555 68.0307 35.6555C66.607 35.6555 65.5842 35.1569 64.9613 34.1597H64.9162V39.7113H62.5148V28.3478C62.5148 27.221 62.4844 26.0646 62.4258 24.8785H64.5378L64.6718 26.5489H64.7169C65.5177 25.2903 66.7331 24.6621 68.3641 24.6621C69.6392 24.6621 70.7037 25.153 71.5552 26.1359C72.409 27.12 72.8348 28.4137 72.8348 30.0182ZM70.3883 30.1039C70.3883 29.0781 70.1517 28.2325 69.6764 27.5669C69.1571 26.8729 68.4599 26.5258 67.5858 26.5258C66.9933 26.5258 66.4549 26.7191 65.9739 27.1002C65.4918 27.4846 65.1764 27.9865 65.0289 28.6081C64.9545 28.898 64.9174 29.1352 64.9174 29.3219V31.0791C64.9174 31.8457 65.1584 32.4925 65.6405 33.0208C66.1226 33.549 66.7489 33.8126 67.5193 33.8126C68.4238 33.8126 69.1278 33.4722 69.6313 32.7935C70.136 32.1136 70.3883 31.2175 70.3883 30.1039Z" fill="black" fill-opacity="0.2"/>
</g>
<g id="Vector_5">
<path d="M85.2673 30.0182C85.2673 31.8105 84.7705 33.2273 83.7759 34.2673C82.8872 35.1931 81.7822 35.6555 80.4632 35.6555C79.0394 35.6555 78.0167 35.1569 77.3949 34.1597H77.3498V39.7113H74.9484V28.3478C74.9484 27.221 74.9179 26.0646 74.8594 24.8785H76.9714L77.1054 26.5489H77.1505C77.9502 25.2903 79.1656 24.6621 80.7977 24.6621C82.0717 24.6621 83.1361 25.153 83.99 26.1359C84.8404 27.12 85.2673 28.4137 85.2673 30.0182ZM82.8207 30.1039C82.8207 29.0781 82.5831 28.2325 82.1077 27.5669C81.5885 26.8729 80.8935 26.5258 80.0183 26.5258C79.4247 26.5258 78.8874 26.7191 78.4053 27.1002C77.9232 27.4846 77.6089 27.9865 77.4613 28.6081C77.3881 28.898 77.3498 29.1352 77.3498 29.3219V31.0791C77.3498 31.8457 77.5909 32.4925 78.0707 33.0208C78.5528 33.5479 79.1791 33.8126 79.9518 33.8126C80.8563 33.8126 81.5603 33.4722 82.0638 32.7935C82.5684 32.1136 82.8207 31.2175 82.8207 30.1039Z" fill="#1C1C1C"/>
<path d="M85.2673 30.0182C85.2673 31.8105 84.7705 33.2273 83.7759 34.2673C82.8872 35.1931 81.7822 35.6555 80.4632 35.6555C79.0394 35.6555 78.0167 35.1569 77.3949 34.1597H77.3498V39.7113H74.9484V28.3478C74.9484 27.221 74.9179 26.0646 74.8594 24.8785H76.9714L77.1054 26.5489H77.1505C77.9502 25.2903 79.1656 24.6621 80.7977 24.6621C82.0717 24.6621 83.1361 25.153 83.99 26.1359C84.8404 27.12 85.2673 28.4137 85.2673 30.0182ZM82.8207 30.1039C82.8207 29.0781 82.5831 28.2325 82.1077 27.5669C81.5885 26.8729 80.8935 26.5258 80.0183 26.5258C79.4247 26.5258 78.8874 26.7191 78.4053 27.1002C77.9232 27.4846 77.6089 27.9865 77.4613 28.6081C77.3881 28.898 77.3498 29.1352 77.3498 29.3219V31.0791C77.3498 31.8457 77.5909 32.4925 78.0707 33.0208C78.5528 33.5479 79.1791 33.8126 79.9518 33.8126C80.8563 33.8126 81.5603 33.4722 82.0638 32.7935C82.5684 32.1136 82.8207 31.2175 82.8207 30.1039Z" fill="black" fill-opacity="0.2"/>
<path d="M85.2673 30.0182C85.2673 31.8105 84.7705 33.2273 83.7759 34.2673C82.8872 35.1931 81.7822 35.6555 80.4632 35.6555C79.0394 35.6555 78.0167 35.1569 77.3949 34.1597H77.3498V39.7113H74.9484V28.3478C74.9484 27.221 74.9179 26.0646 74.8594 24.8785H76.9714L77.1054 26.5489H77.1505C77.9502 25.2903 79.1656 24.6621 80.7977 24.6621C82.0717 24.6621 83.1361 25.153 83.99 26.1359C84.8404 27.12 85.2673 28.4137 85.2673 30.0182ZM82.8207 30.1039C82.8207 29.0781 82.5831 28.2325 82.1077 27.5669C81.5885 26.8729 80.8935 26.5258 80.0183 26.5258C79.4247 26.5258 78.8874 26.7191 78.4053 27.1002C77.9232 27.4846 77.6089 27.9865 77.4613 28.6081C77.3881 28.898 77.3498 29.1352 77.3498 29.3219V31.0791C77.3498 31.8457 77.5909 32.4925 78.0707 33.0208C78.5528 33.5479 79.1791 33.8126 79.9518 33.8126C80.8563 33.8126 81.5603 33.4722 82.0638 32.7935C82.5684 32.1136 82.8207 31.2175 82.8207 30.1039Z" fill="black" fill-opacity="0.2"/>
</g>
<g id="Vector_6">
<path d="M99.1677 31.3188C99.1677 32.562 98.725 33.5734 97.8363 34.3543C96.8597 35.2076 95.5002 35.6337 93.7531 35.6337C92.1401 35.6337 90.847 35.3306 89.8682 34.7233L90.4246 32.7717C91.4789 33.3933 92.6357 33.7052 93.8962 33.7052C94.8007 33.7052 95.5047 33.5054 96.0104 33.1078C96.5139 32.7102 96.7651 32.1765 96.7651 31.511C96.7651 30.9179 96.5578 30.4182 96.1422 30.013C95.7288 29.6077 95.0383 29.231 94.0741 28.8829C91.4496 27.9285 90.1385 26.5305 90.1385 24.692C90.1385 23.4905 90.5981 22.5054 91.5183 21.7388C92.4352 20.9712 93.6585 20.5879 95.1881 20.5879C96.5522 20.5879 97.6854 20.8196 98.5899 21.282L97.9895 23.1907C97.1447 22.7426 96.1895 22.5186 95.1206 22.5186C94.2758 22.5186 93.6157 22.7218 93.1426 23.1259C92.7427 23.4872 92.5422 23.9276 92.5422 24.4493C92.5422 25.027 92.7709 25.5047 93.2305 25.8803C93.6303 26.2273 94.3569 26.6029 95.4112 27.0082C96.7009 27.5145 97.6482 28.1064 98.2576 28.7851C98.8647 29.4616 99.1677 30.3084 99.1677 31.3188Z" fill="#1C1C1C"/>
<path d="M99.1677 31.3188C99.1677 32.562 98.725 33.5734 97.8363 34.3543C96.8597 35.2076 95.5002 35.6337 93.7531 35.6337C92.1401 35.6337 90.847 35.3306 89.8682 34.7233L90.4246 32.7717C91.4789 33.3933 92.6357 33.7052 93.8962 33.7052C94.8007 33.7052 95.5047 33.5054 96.0104 33.1078C96.5139 32.7102 96.7651 32.1765 96.7651 31.511C96.7651 30.9179 96.5578 30.4182 96.1422 30.013C95.7288 29.6077 95.0383 29.231 94.0741 28.8829C91.4496 27.9285 90.1385 26.5305 90.1385 24.692C90.1385 23.4905 90.5981 22.5054 91.5183 21.7388C92.4352 20.9712 93.6585 20.5879 95.1881 20.5879C96.5522 20.5879 97.6854 20.8196 98.5899 21.282L97.9895 23.1907C97.1447 22.7426 96.1895 22.5186 95.1206 22.5186C94.2758 22.5186 93.6157 22.7218 93.1426 23.1259C92.7427 23.4872 92.5422 23.9276 92.5422 24.4493C92.5422 25.027 92.7709 25.5047 93.2305 25.8803C93.6303 26.2273 94.3569 26.6029 95.4112 27.0082C96.7009 27.5145 97.6482 28.1064 98.2576 28.7851C98.8647 29.4616 99.1677 30.3084 99.1677 31.3188Z" fill="black" fill-opacity="0.2"/>
<path d="M99.1677 31.3188C99.1677 32.562 98.725 33.5734 97.8363 34.3543C96.8597 35.2076 95.5002 35.6337 93.7531 35.6337C92.1401 35.6337 90.847 35.3306 89.8682 34.7233L90.4246 32.7717C91.4789 33.3933 92.6357 33.7052 93.8962 33.7052C94.8007 33.7052 95.5047 33.5054 96.0104 33.1078C96.5139 32.7102 96.7651 32.1765 96.7651 31.511C96.7651 30.9179 96.5578 30.4182 96.1422 30.013C95.7288 29.6077 95.0383 29.231 94.0741 28.8829C91.4496 27.9285 90.1385 26.5305 90.1385 24.692C90.1385 23.4905 90.5981 22.5054 91.5183 21.7388C92.4352 20.9712 93.6585 20.5879 95.1881 20.5879C96.5522 20.5879 97.6854 20.8196 98.5899 21.282L97.9895 23.1907C97.1447 22.7426 96.1895 22.5186 95.1206 22.5186C94.2758 22.5186 93.6157 22.7218 93.1426 23.1259C92.7427 23.4872 92.5422 23.9276 92.5422 24.4493C92.5422 25.027 92.7709 25.5047 93.2305 25.8803C93.6303 26.2273 94.3569 26.6029 95.4112 27.0082C96.7009 27.5145 97.6482 28.1064 98.2576 28.7851C98.8647 29.4616 99.1677 30.3084 99.1677 31.3188Z" fill="black" fill-opacity="0.2"/>
</g>
<g id="Vector_7">
<path d="M107.105 26.637H104.458V31.7537C104.458 33.0551 104.924 33.7052 105.859 33.7052C106.288 33.7052 106.644 33.669 106.926 33.5965L106.992 35.3745C106.519 35.547 105.897 35.6337 105.125 35.6337C104.176 35.6337 103.435 35.3515 102.9 34.7881C102.367 34.2236 102.099 33.2769 102.099 31.9469V26.6348H100.522V24.8776H102.099V22.948L104.458 22.2539V24.8776H107.105V26.637Z" fill="#1C1C1C"/>
<path d="M107.105 26.637H104.458V31.7537C104.458 33.0551 104.924 33.7052 105.859 33.7052C106.288 33.7052 106.644 33.669 106.926 33.5965L106.992 35.3745C106.519 35.547 105.897 35.6337 105.125 35.6337C104.176 35.6337 103.435 35.3515 102.9 34.7881C102.367 34.2236 102.099 33.2769 102.099 31.9469V26.6348H100.522V24.8776H102.099V22.948L104.458 22.2539V24.8776H107.105V26.637Z" fill="black" fill-opacity="0.2"/>
<path d="M107.105 26.637H104.458V31.7537C104.458 33.0551 104.924 33.7052 105.859 33.7052C106.288 33.7052 106.644 33.669 106.926 33.5965L106.992 35.3745C106.519 35.547 105.897 35.6337 105.125 35.6337C104.176 35.6337 103.435 35.3515 102.9 34.7881C102.367 34.2236 102.099 33.2769 102.099 31.9469V26.6348H100.522V24.8776H102.099V22.948L104.458 22.2539V24.8776H107.105V26.637Z" fill="black" fill-opacity="0.2"/>
</g>
<g id="Vector_8">
<path d="M119.05 30.0619C119.05 31.6818 118.575 33.0118 117.626 34.0518C116.632 35.1226 115.311 35.6563 113.666 35.6563C112.08 35.6563 110.817 35.1434 109.875 34.1177C108.934 33.0919 108.463 31.7971 108.463 30.2365C108.463 28.6034 108.947 27.2658 109.919 26.2258C110.889 25.1846 112.198 24.6641 113.844 24.6641C115.43 24.6641 116.706 25.1769 117.669 26.2038C118.59 27.1999 119.05 28.4859 119.05 30.0619ZM116.558 30.1377C116.558 29.1657 116.345 28.3322 115.914 27.637C115.411 26.7957 114.691 26.3762 113.758 26.3762C112.793 26.3762 112.059 26.7968 111.556 27.637C111.125 28.3333 110.912 29.18 110.912 30.1816C110.912 31.1535 111.125 31.9871 111.556 32.6812C112.075 33.5224 112.801 33.942 113.737 33.942C114.654 33.942 115.373 33.5137 115.893 32.6592C116.335 31.9509 116.558 31.1085 116.558 30.1377Z" fill="#1C1C1C"/>
<path d="M119.05 30.0619C119.05 31.6818 118.575 33.0118 117.626 34.0518C116.632 35.1226 115.311 35.6563 113.666 35.6563C112.08 35.6563 110.817 35.1434 109.875 34.1177C108.934 33.0919 108.463 31.7971 108.463 30.2365C108.463 28.6034 108.947 27.2658 109.919 26.2258C110.889 25.1846 112.198 24.6641 113.844 24.6641C115.43 24.6641 116.706 25.1769 117.669 26.2038C118.59 27.1999 119.05 28.4859 119.05 30.0619ZM116.558 30.1377C116.558 29.1657 116.345 28.3322 115.914 27.637C115.411 26.7957 114.691 26.3762 113.758 26.3762C112.793 26.3762 112.059 26.7968 111.556 27.637C111.125 28.3333 110.912 29.18 110.912 30.1816C110.912 31.1535 111.125 31.9871 111.556 32.6812C112.075 33.5224 112.801 33.942 113.737 33.942C114.654 33.942 115.373 33.5137 115.893 32.6592C116.335 31.9509 116.558 31.1085 116.558 30.1377Z" fill="black" fill-opacity="0.2"/>
<path d="M119.05 30.0619C119.05 31.6818 118.575 33.0118 117.626 34.0518C116.632 35.1226 115.311 35.6563 113.666 35.6563C112.08 35.6563 110.817 35.1434 109.875 34.1177C108.934 33.0919 108.463 31.7971 108.463 30.2365C108.463 28.6034 108.947 27.2658 109.919 26.2258C110.889 25.1846 112.198 24.6641 113.844 24.6641C115.43 24.6641 116.706 25.1769 117.669 26.2038C118.59 27.1999 119.05 28.4859 119.05 30.0619ZM116.558 30.1377C116.558 29.1657 116.345 28.3322 115.914 27.637C115.411 26.7957 114.691 26.3762 113.758 26.3762C112.793 26.3762 112.059 26.7968 111.556 27.637C111.125 28.3333 110.912 29.18 110.912 30.1816C110.912 31.1535 111.125 31.9871 111.556 32.6812C112.075 33.5224 112.801 33.942 113.737 33.942C114.654 33.942 115.373 33.5137 115.893 32.6592C116.335 31.9509 116.558 31.1085 116.558 30.1377Z" fill="black" fill-opacity="0.2"/>
</g>
<g id="Vector_9">
<path d="M126.855 26.9377C126.618 26.8948 126.364 26.8729 126.098 26.8729C125.253 26.8729 124.6 27.1837 124.141 27.8064C123.741 28.3555 123.54 29.0496 123.54 29.8875V35.4171H121.14L121.162 28.1973C121.162 26.9827 121.132 25.8768 121.072 24.8796H123.164L123.252 26.8959H123.318C123.572 26.2029 123.972 25.645 124.519 25.2266C125.054 24.8499 125.632 24.6621 126.255 24.6621C126.477 24.6621 126.677 24.6775 126.855 24.7049V26.9377Z" fill="#1C1C1C"/>
<path d="M126.855 26.9377C126.618 26.8948 126.364 26.8729 126.098 26.8729C125.253 26.8729 124.6 27.1837 124.141 27.8064C123.741 28.3555 123.54 29.0496 123.54 29.8875V35.4171H121.14L121.162 28.1973C121.162 26.9827 121.132 25.8768 121.072 24.8796H123.164L123.252 26.8959H123.318C123.572 26.2029 123.972 25.645 124.519 25.2266C125.054 24.8499 125.632 24.6621 126.255 24.6621C126.477 24.6621 126.677 24.6775 126.855 24.7049V26.9377Z" fill="black" fill-opacity="0.2"/>
<path d="M126.855 26.9377C126.618 26.8948 126.364 26.8729 126.098 26.8729C125.253 26.8729 124.6 27.1837 124.141 27.8064C123.741 28.3555 123.54 29.0496 123.54 29.8875V35.4171H121.14L121.162 28.1973C121.162 26.9827 121.132 25.8768 121.072 24.8796H123.164L123.252 26.8959H123.318C123.572 26.2029 123.972 25.645 124.519 25.2266C125.054 24.8499 125.632 24.6621 126.255 24.6621C126.477 24.6621 126.677 24.6775 126.855 24.7049V26.9377Z" fill="black" fill-opacity="0.2"/>
</g>
<g id="Vector_10">
<path d="M137.595 29.6494C137.595 30.069 137.567 30.4226 137.507 30.7114H130.303C130.331 31.7526 130.679 32.5488 131.348 33.0979C131.955 33.5888 132.74 33.8348 133.705 33.8348C134.771 33.8348 135.744 33.669 136.62 33.3362L136.996 34.9616C135.973 35.3965 134.766 35.6129 133.372 35.6129C131.696 35.6129 130.381 35.1318 129.423 34.1709C128.468 33.2099 127.989 31.9195 127.989 30.3007C127.989 28.7115 128.434 27.3882 129.325 26.3328C130.258 25.206 131.518 24.6426 133.104 24.6426C134.662 24.6426 135.841 25.206 136.642 26.3328C137.276 27.2278 137.595 28.3349 137.595 29.6494ZM135.305 29.0421C135.321 28.348 135.164 27.7484 134.839 27.2421C134.423 26.5908 133.785 26.2658 132.925 26.2658C132.14 26.2658 131.501 26.5832 131.014 27.2201C130.614 27.7264 130.376 28.3338 130.303 29.041H135.305V29.0421Z" fill="#1C1C1C"/>
<path d="M137.595 29.6494C137.595 30.069 137.567 30.4226 137.507 30.7114H130.303C130.331 31.7526 130.679 32.5488 131.348 33.0979C131.955 33.5888 132.74 33.8348 133.705 33.8348C134.771 33.8348 135.744 33.669 136.62 33.3362L136.996 34.9616C135.973 35.3965 134.766 35.6129 133.372 35.6129C131.696 35.6129 130.381 35.1318 129.423 34.1709C128.468 33.2099 127.989 31.9195 127.989 30.3007C127.989 28.7115 128.434 27.3882 129.325 26.3328C130.258 25.206 131.518 24.6426 133.104 24.6426C134.662 24.6426 135.841 25.206 136.642 26.3328C137.276 27.2278 137.595 28.3349 137.595 29.6494ZM135.305 29.0421C135.321 28.348 135.164 27.7484 134.839 27.2421C134.423 26.5908 133.785 26.2658 132.925 26.2658C132.14 26.2658 131.501 26.5832 131.014 27.2201C130.614 27.7264 130.376 28.3338 130.303 29.041H135.305V29.0421Z" fill="black" fill-opacity="0.2"/>
<path d="M137.595 29.6494C137.595 30.069 137.567 30.4226 137.507 30.7114H130.303C130.331 31.7526 130.679 32.5488 131.348 33.0979C131.955 33.5888 132.74 33.8348 133.705 33.8348C134.771 33.8348 135.744 33.669 136.62 33.3362L136.996 34.9616C135.973 35.3965 134.766 35.6129 133.372 35.6129C131.696 35.6129 130.381 35.1318 129.423 34.1709C128.468 33.2099 127.989 31.9195 127.989 30.3007C127.989 28.7115 128.434 27.3882 129.325 26.3328C130.258 25.206 131.518 24.6426 133.104 24.6426C134.662 24.6426 135.841 25.206 136.642 26.3328C137.276 27.2278 137.595 28.3349 137.595 29.6494ZM135.305 29.0421C135.321 28.348 135.164 27.7484 134.839 27.2421C134.423 26.5908 133.785 26.2658 132.925 26.2658C132.14 26.2658 131.501 26.5832 131.014 27.2201C130.614 27.7264 130.376 28.3338 130.303 29.041H135.305V29.0421Z" fill="black" fill-opacity="0.2"/>
</g>
</g>
<g id="Group_5">
<g id="Group_6">
<g id="Vector_11">
<path d="M55.2505 11.8136C55.2505 13.1062 54.8529 14.0792 54.0588 14.7327C53.3233 15.3356 52.278 15.6376 50.924 15.6376C50.2527 15.6376 49.6782 15.6091 49.1973 15.552V8.4892C49.8247 8.39036 50.5005 8.33984 51.2304 8.33984C52.5201 8.33984 53.4922 8.6133 54.1478 9.16023C54.8822 9.77853 55.2505 10.6626 55.2505 11.8136ZM54.0059 11.8454C54.0059 11.0075 53.7783 10.365 53.3233 9.91691C52.8682 9.46993 52.2036 9.24589 51.3284 9.24589C50.9567 9.24589 50.6402 9.27005 50.3777 9.32057V14.6899C50.523 14.7118 50.7889 14.7217 51.1752 14.7217C52.0786 14.7217 52.7758 14.4768 53.2669 13.987C53.7581 13.4972 54.0059 12.7833 54.0059 11.8454Z" fill="#1C1C1C"/>
<path d="M55.2505 11.8136C55.2505 13.1062 54.8529 14.0792 54.0588 14.7327C53.3233 15.3356 52.278 15.6376 50.924 15.6376C50.2527 15.6376 49.6782 15.6091 49.1973 15.552V8.4892C49.8247 8.39036 50.5005 8.33984 51.2304 8.33984C52.5201 8.33984 53.4922 8.6133 54.1478 9.16023C54.8822 9.77853 55.2505 10.6626 55.2505 11.8136ZM54.0059 11.8454C54.0059 11.0075 53.7783 10.365 53.3233 9.91691C52.8682 9.46993 52.2036 9.24589 51.3284 9.24589C50.9567 9.24589 50.6402 9.27005 50.3777 9.32057V14.6899C50.523 14.7118 50.7889 14.7217 51.1752 14.7217C52.0786 14.7217 52.7758 14.4768 53.2669 13.987C53.7581 13.4972 54.0059 12.7833 54.0059 11.8454Z" fill="black" fill-opacity="0.2"/>
<path d="M55.2505 11.8136C55.2505 13.1062 54.8529 14.0792 54.0588 14.7327C53.3233 15.3356 52.278 15.6376 50.924 15.6376C50.2527 15.6376 49.6782 15.6091 49.1973 15.552V8.4892C49.8247 8.39036 50.5005 8.33984 51.2304 8.33984C52.5201 8.33984 53.4922 8.6133 54.1478 9.16023C54.8822 9.77853 55.2505 10.6626 55.2505 11.8136ZM54.0059 11.8454C54.0059 11.0075 53.7783 10.365 53.3233 9.91691C52.8682 9.46993 52.2036 9.24589 51.3284 9.24589C50.9567 9.24589 50.6402 9.27005 50.3777 9.32057V14.6899C50.523 14.7118 50.7889 14.7217 51.1752 14.7217C52.0786 14.7217 52.7758 14.4768 53.2669 13.987C53.7581 13.4972 54.0059 12.7833 54.0059 11.8454Z" fill="black" fill-opacity="0.2"/>
</g>
<g id="Vector_12">
<path d="M61.851 12.9422C61.851 13.7384 61.6178 14.3907 61.1515 14.9025C60.6626 15.4286 60.0149 15.691 59.2062 15.691C58.4267 15.691 57.8061 15.4395 57.3431 14.9344C56.8813 14.4303 56.6504 13.7944 56.6504 13.0278C56.6504 12.2261 56.8881 11.5683 57.3657 11.0576C57.8432 10.5469 58.4853 10.291 59.294 10.291C60.0735 10.291 60.6998 10.5425 61.174 11.0466C61.6246 11.5364 61.851 12.169 61.851 12.9422ZM60.6266 12.9795C60.6266 12.5018 60.5207 12.0921 60.3101 11.7506C60.0623 11.3376 59.7097 11.1312 59.2512 11.1312C58.777 11.1312 58.4166 11.3376 58.1688 11.7506C57.957 12.0921 57.8523 12.5084 57.8523 13.0004C57.8523 13.4781 57.9581 13.8877 58.1688 14.2293C58.4245 14.6422 58.7804 14.8487 59.24 14.8487C59.6905 14.8487 60.0442 14.6389 60.2988 14.2183C60.5173 13.8702 60.6266 13.4572 60.6266 12.9795Z" fill="#1C1C1C"/>
<path d="M61.851 12.9422C61.851 13.7384 61.6178 14.3907 61.1515 14.9025C60.6626 15.4286 60.0149 15.691 59.2062 15.691C58.4267 15.691 57.8061 15.4395 57.3431 14.9344C56.8813 14.4303 56.6504 13.7944 56.6504 13.0278C56.6504 12.2261 56.8881 11.5683 57.3657 11.0576C57.8432 10.5469 58.4853 10.291 59.294 10.291C60.0735 10.291 60.6998 10.5425 61.174 11.0466C61.6246 11.5364 61.851 12.169 61.851 12.9422ZM60.6266 12.9795C60.6266 12.5018 60.5207 12.0921 60.3101 11.7506C60.0623 11.3376 59.7097 11.1312 59.2512 11.1312C58.777 11.1312 58.4166 11.3376 58.1688 11.7506C57.957 12.0921 57.8523 12.5084 57.8523 13.0004C57.8523 13.4781 57.9581 13.8877 58.1688 14.2293C58.4245 14.6422 58.7804 14.8487 59.24 14.8487C59.6905 14.8487 60.0442 14.6389 60.2988 14.2183C60.5173 13.8702 60.6266 13.4572 60.6266 12.9795Z" fill="black" fill-opacity="0.2"/>
<path d="M61.851 12.9422C61.851 13.7384 61.6178 14.3907 61.1515 14.9025C60.6626 15.4286 60.0149 15.691 59.2062 15.691C58.4267 15.691 57.8061 15.4395 57.3431 14.9344C56.8813 14.4303 56.6504 13.7944 56.6504 13.0278C56.6504 12.2261 56.8881 11.5683 57.3657 11.0576C57.8432 10.5469 58.4853 10.291 59.294 10.291C60.0735 10.291 60.6998 10.5425 61.174 11.0466C61.6246 11.5364 61.851 12.169 61.851 12.9422ZM60.6266 12.9795C60.6266 12.5018 60.5207 12.0921 60.3101 11.7506C60.0623 11.3376 59.7097 11.1312 59.2512 11.1312C58.777 11.1312 58.4166 11.3376 58.1688 11.7506C57.957 12.0921 57.8523 12.5084 57.8523 13.0004C57.8523 13.4781 57.9581 13.8877 58.1688 14.2293C58.4245 14.6422 58.7804 14.8487 59.24 14.8487C59.6905 14.8487 60.0442 14.6389 60.2988 14.2183C60.5173 13.8702 60.6266 13.4572 60.6266 12.9795Z" fill="black" fill-opacity="0.2"/>
</g>
<g id="Vector_13">
<path d="M70.6991 10.3965L69.0377 15.5736H67.9564L67.2681 13.3255C67.0936 12.7643 66.9516 12.2064 66.8412 11.6529H66.8198C66.7173 12.2218 66.5754 12.7786 66.3929 13.3255L65.6619 15.5736H64.5682L63.0059 10.3965H64.219L64.8194 12.8576C64.9647 13.4397 65.0841 13.9943 65.1798 14.5193H65.2012C65.2891 14.0866 65.4344 13.5352 65.6394 12.8686L66.3929 10.3976H67.3549L68.0769 12.8159C68.2515 13.4057 68.3934 13.9734 68.5027 14.5204H68.5353C68.6153 13.9877 68.7358 13.4199 68.8958 12.8159L69.5401 10.3976H70.6991V10.3965Z" fill="#1C1C1C"/>
<path d="M70.6991 10.3965L69.0377 15.5736H67.9564L67.2681 13.3255C67.0936 12.7643 66.9516 12.2064 66.8412 11.6529H66.8198C66.7173 12.2218 66.5754 12.7786 66.3929 13.3255L65.6619 15.5736H64.5682L63.0059 10.3965H64.219L64.8194 12.8576C64.9647 13.4397 65.0841 13.9943 65.1798 14.5193H65.2012C65.2891 14.0866 65.4344 13.5352 65.6394 12.8686L66.3929 10.3976H67.3549L68.0769 12.8159C68.2515 13.4057 68.3934 13.9734 68.5027 14.5204H68.5353C68.6153 13.9877 68.7358 13.4199 68.8958 12.8159L69.5401 10.3976H70.6991V10.3965Z" fill="black" fill-opacity="0.2"/>
<path d="M70.6991 10.3965L69.0377 15.5736H67.9564L67.2681 13.3255C67.0936 12.7643 66.9516 12.2064 66.8412 11.6529H66.8198C66.7173 12.2218 66.5754 12.7786 66.3929 13.3255L65.6619 15.5736H64.5682L63.0059 10.3965H64.219L64.8194 12.8576C64.9647 13.4397 65.0841 13.9943 65.1798 14.5193H65.2012C65.2891 14.0866 65.4344 13.5352 65.6394 12.8686L66.3929 10.3976H67.3549L68.0769 12.8159C68.2515 13.4057 68.3934 13.9734 68.5027 14.5204H68.5353C68.6153 13.9877 68.7358 13.4199 68.8958 12.8159L69.5401 10.3976H70.6991V10.3965Z" fill="black" fill-opacity="0.2"/>
</g>
<g id="Vector_14">
<path d="M76.8183 15.5749H75.6379V12.6096C75.6379 11.6959 75.2819 11.239 74.5678 11.239C74.2175 11.239 73.9348 11.3642 73.7151 11.6157C73.4977 11.8672 73.3873 12.1638 73.3873 12.5031V15.5738H72.2069V11.8771C72.2069 11.4224 72.1922 10.9293 72.1641 10.3956H73.2015L73.2567 11.205H73.2893C73.4268 10.9535 73.6318 10.7459 73.901 10.5801C74.2209 10.3868 74.579 10.2891 74.971 10.2891C75.4666 10.2891 75.8789 10.445 76.2067 10.758C76.6144 11.1413 76.8183 11.7135 76.8183 12.4735V15.5749Z" fill="#1C1C1C"/>
<path d="M76.8183 15.5749H75.6379V12.6096C75.6379 11.6959 75.2819 11.239 74.5678 11.239C74.2175 11.239 73.9348 11.3642 73.7151 11.6157C73.4977 11.8672 73.3873 12.1638 73.3873 12.5031V15.5738H72.2069V11.8771C72.2069 11.4224 72.1922 10.9293 72.1641 10.3956H73.2015L73.2567 11.205H73.2893C73.4268 10.9535 73.6318 10.7459 73.901 10.5801C74.2209 10.3868 74.579 10.2891 74.971 10.2891C75.4666 10.2891 75.8789 10.445 76.2067 10.758C76.6144 11.1413 76.8183 11.7135 76.8183 12.4735V15.5749Z" fill="black" fill-opacity="0.2"/>
<path d="M76.8183 15.5749H75.6379V12.6096C75.6379 11.6959 75.2819 11.239 74.5678 11.239C74.2175 11.239 73.9348 11.3642 73.7151 11.6157C73.4977 11.8672 73.3873 12.1638 73.3873 12.5031V15.5738H72.2069V11.8771C72.2069 11.4224 72.1922 10.9293 72.1641 10.3956H73.2015L73.2567 11.205H73.2893C73.4268 10.9535 73.6318 10.7459 73.901 10.5801C74.2209 10.3868 74.579 10.2891 74.971 10.2891C75.4666 10.2891 75.8789 10.445 76.2067 10.758C76.6144 11.1413 76.8183 11.7135 76.8183 12.4735V15.5749Z" fill="black" fill-opacity="0.2"/>
</g>
<g id="Vector_15">
<path d="M80.0739 15.5741H78.8945V8.02148H80.0739V15.5741Z" fill="#1C1C1C"/>
<path d="M80.0739 15.5741H78.8945V8.02148H80.0739V15.5741Z" fill="black" fill-opacity="0.2"/>
<path d="M80.0739 15.5741H78.8945V8.02148H80.0739V15.5741Z" fill="black" fill-opacity="0.2"/>
</g>
<g id="Vector_16">
<path d="M87.0219 12.9422C87.0219 13.7384 86.7887 14.3907 86.3224 14.9025C85.8335 15.4286 85.1847 15.691 84.3771 15.691C83.5965 15.691 82.9758 15.4395 82.514 14.9344C82.0522 14.4303 81.8213 13.7944 81.8213 13.0278C81.8213 12.2261 82.059 11.5683 82.5366 11.0576C83.0141 10.5469 83.6562 10.291 84.4638 10.291C85.2444 10.291 85.8696 10.5425 86.3449 11.0466C86.7955 11.5364 87.0219 12.169 87.0219 12.9422ZM85.7963 12.9795C85.7963 12.5018 85.6905 12.0921 85.4798 11.7506C85.2331 11.3376 84.8795 11.1312 84.4221 11.1312C83.9468 11.1312 83.5864 11.3376 83.3397 11.7506C83.1279 12.0921 83.0232 12.5084 83.0232 13.0004C83.0232 13.4781 83.129 13.8877 83.3397 14.2293C83.5954 14.6422 83.9513 14.8487 84.4109 14.8487C84.8614 14.8487 85.214 14.6389 85.4686 14.2183C85.6882 13.8702 85.7963 13.4572 85.7963 12.9795Z" fill="#1C1C1C"/>
<path d="M87.0219 12.9422C87.0219 13.7384 86.7887 14.3907 86.3224 14.9025C85.8335 15.4286 85.1847 15.691 84.3771 15.691C83.5965 15.691 82.9758 15.4395 82.514 14.9344C82.0522 14.4303 81.8213 13.7944 81.8213 13.0278C81.8213 12.2261 82.059 11.5683 82.5366 11.0576C83.0141 10.5469 83.6562 10.291 84.4638 10.291C85.2444 10.291 85.8696 10.5425 86.3449 11.0466C86.7955 11.5364 87.0219 12.169 87.0219 12.9422ZM85.7963 12.9795C85.7963 12.5018 85.6905 12.0921 85.4798 11.7506C85.2331 11.3376 84.8795 11.1312 84.4221 11.1312C83.9468 11.1312 83.5864 11.3376 83.3397 11.7506C83.1279 12.0921 83.0232 12.5084 83.0232 13.0004C83.0232 13.4781 83.129 13.8877 83.3397 14.2293C83.5954 14.6422 83.9513 14.8487 84.4109 14.8487C84.8614 14.8487 85.214 14.6389 85.4686 14.2183C85.6882 13.8702 85.7963 13.4572 85.7963 12.9795Z" fill="black" fill-opacity="0.2"/>
<path d="M87.0219 12.9422C87.0219 13.7384 86.7887 14.3907 86.3224 14.9025C85.8335 15.4286 85.1847 15.691 84.3771 15.691C83.5965 15.691 82.9758 15.4395 82.514 14.9344C82.0522 14.4303 81.8213 13.7944 81.8213 13.0278C81.8213 12.2261 82.059 11.5683 82.5366 11.0576C83.0141 10.5469 83.6562 10.291 84.4638 10.291C85.2444 10.291 85.8696 10.5425 86.3449 11.0466C86.7955 11.5364 87.0219 12.169 87.0219 12.9422ZM85.7963 12.9795C85.7963 12.5018 85.6905 12.0921 85.4798 11.7506C85.2331 11.3376 84.8795 11.1312 84.4221 11.1312C83.9468 11.1312 83.5864 11.3376 83.3397 11.7506C83.1279 12.0921 83.0232 12.5084 83.0232 13.0004C83.0232 13.4781 83.129 13.8877 83.3397 14.2293C83.5954 14.6422 83.9513 14.8487 84.4109 14.8487C84.8614 14.8487 85.214 14.6389 85.4686 14.2183C85.6882 13.8702 85.7963 13.4572 85.7963 12.9795Z" fill="black" fill-opacity="0.2"/>
</g>
<g id="Vector_17">
<path d="M92.7371 15.5735H91.6771L91.5893 14.9772H91.5566C91.1939 15.4527 90.6769 15.691 90.0056 15.691C89.5043 15.691 89.0988 15.534 88.7936 15.2221C88.5165 14.9388 88.3779 14.5862 88.3779 14.1678C88.3779 13.5352 88.6483 13.0531 89.1923 12.7192C89.7352 12.3854 90.4989 12.2217 91.4823 12.2294V12.1328C91.4823 11.4508 91.1151 11.1103 90.3795 11.1103C89.8558 11.1103 89.3939 11.2388 88.9952 11.4936L88.7553 10.738C89.2486 10.4404 89.858 10.291 90.5767 10.291C91.9644 10.291 92.6605 11.0049 92.6605 12.4326V14.3391C92.6605 14.8564 92.6864 15.2682 92.7371 15.5735ZM91.5116 13.7944V12.996C90.2094 12.974 89.5584 13.3221 89.5584 14.0393C89.5584 14.3095 89.6327 14.5115 89.7848 14.6466C89.9369 14.7817 90.1306 14.8487 90.3615 14.8487C90.6206 14.8487 90.8628 14.7685 91.0835 14.6093C91.3054 14.4489 91.4417 14.2458 91.4924 13.9965C91.5048 13.9405 91.5116 13.8724 91.5116 13.7944Z" fill="#1C1C1C"/>
<path d="M92.7371 15.5735H91.6771L91.5893 14.9772H91.5566C91.1939 15.4527 90.6769 15.691 90.0056 15.691C89.5043 15.691 89.0988 15.534 88.7936 15.2221C88.5165 14.9388 88.3779 14.5862 88.3779 14.1678C88.3779 13.5352 88.6483 13.0531 89.1923 12.7192C89.7352 12.3854 90.4989 12.2217 91.4823 12.2294V12.1328C91.4823 11.4508 91.1151 11.1103 90.3795 11.1103C89.8558 11.1103 89.3939 11.2388 88.9952 11.4936L88.7553 10.738C89.2486 10.4404 89.858 10.291 90.5767 10.291C91.9644 10.291 92.6605 11.0049 92.6605 12.4326V14.3391C92.6605 14.8564 92.6864 15.2682 92.7371 15.5735ZM91.5116 13.7944V12.996C90.2094 12.974 89.5584 13.3221 89.5584 14.0393C89.5584 14.3095 89.6327 14.5115 89.7848 14.6466C89.9369 14.7817 90.1306 14.8487 90.3615 14.8487C90.6206 14.8487 90.8628 14.7685 91.0835 14.6093C91.3054 14.4489 91.4417 14.2458 91.4924 13.9965C91.5048 13.9405 91.5116 13.8724 91.5116 13.7944Z" fill="black" fill-opacity="0.2"/>
<path d="M92.7371 15.5735H91.6771L91.5893 14.9772H91.5566C91.1939 15.4527 90.6769 15.691 90.0056 15.691C89.5043 15.691 89.0988 15.534 88.7936 15.2221C88.5165 14.9388 88.3779 14.5862 88.3779 14.1678C88.3779 13.5352 88.6483 13.0531 89.1923 12.7192C89.7352 12.3854 90.4989 12.2217 91.4823 12.2294V12.1328C91.4823 11.4508 91.1151 11.1103 90.3795 11.1103C89.8558 11.1103 89.3939 11.2388 88.9952 11.4936L88.7553 10.738C89.2486 10.4404 89.858 10.291 90.5767 10.291C91.9644 10.291 92.6605 11.0049 92.6605 12.4326V14.3391C92.6605 14.8564 92.6864 15.2682 92.7371 15.5735ZM91.5116 13.7944V12.996C90.2094 12.974 89.5584 13.3221 89.5584 14.0393C89.5584 14.3095 89.6327 14.5115 89.7848 14.6466C89.9369 14.7817 90.1306 14.8487 90.3615 14.8487C90.6206 14.8487 90.8628 14.7685 91.0835 14.6093C91.3054 14.4489 91.4417 14.2458 91.4924 13.9965C91.5048 13.9405 91.5116 13.8724 91.5116 13.7944Z" fill="black" fill-opacity="0.2"/>
</g>
<g id="Vector_18">
<path d="M99.4438 15.5741H98.3962L98.341 14.7427H98.3084C97.9738 15.3753 97.4039 15.6916 96.603 15.6916C95.9632 15.6916 95.4304 15.4467 95.008 14.9569C94.5856 14.467 94.375 13.8312 94.375 13.0503C94.375 12.2124 94.6037 11.5336 95.0632 11.0153C95.5082 10.5321 96.0533 10.2904 96.7021 10.2904C97.4151 10.2904 97.9141 10.5244 98.198 10.9933H98.2205V8.02148H99.4021V14.1793C99.4021 14.6834 99.4156 15.1479 99.4438 15.5741ZM98.2205 13.3908V12.5276C98.2205 12.3782 98.2092 12.2574 98.1878 12.1651C98.1214 11.8884 97.9783 11.6556 97.7609 11.4678C97.5413 11.28 97.2766 11.1855 96.9713 11.1855C96.5309 11.1855 96.1862 11.3557 95.9328 11.6973C95.6816 12.0388 95.5543 12.4748 95.5543 13.0075C95.5543 13.5193 95.6749 13.9344 95.917 14.254C96.1727 14.5944 96.5174 14.7647 96.9488 14.7647C97.3363 14.7647 97.6461 14.623 97.8815 14.3385C98.109 14.0761 98.2205 13.7598 98.2205 13.3908Z" fill="#1C1C1C"/>
<path d="M99.4438 15.5741H98.3962L98.341 14.7427H98.3084C97.9738 15.3753 97.4039 15.6916 96.603 15.6916C95.9632 15.6916 95.4304 15.4467 95.008 14.9569C94.5856 14.467 94.375 13.8312 94.375 13.0503C94.375 12.2124 94.6037 11.5336 95.0632 11.0153C95.5082 10.5321 96.0533 10.2904 96.7021 10.2904C97.4151 10.2904 97.9141 10.5244 98.198 10.9933H98.2205V8.02148H99.4021V14.1793C99.4021 14.6834 99.4156 15.1479 99.4438 15.5741ZM98.2205 13.3908V12.5276C98.2205 12.3782 98.2092 12.2574 98.1878 12.1651C98.1214 11.8884 97.9783 11.6556 97.7609 11.4678C97.5413 11.28 97.2766 11.1855 96.9713 11.1855C96.5309 11.1855 96.1862 11.3557 95.9328 11.6973C95.6816 12.0388 95.5543 12.4748 95.5543 13.0075C95.5543 13.5193 95.6749 13.9344 95.917 14.254C96.1727 14.5944 96.5174 14.7647 96.9488 14.7647C97.3363 14.7647 97.6461 14.623 97.8815 14.3385C98.109 14.0761 98.2205 13.7598 98.2205 13.3908Z" fill="black" fill-opacity="0.2"/>
<path d="M99.4438 15.5741H98.3962L98.341 14.7427H98.3084C97.9738 15.3753 97.4039 15.6916 96.603 15.6916C95.9632 15.6916 95.4304 15.4467 95.008 14.9569C94.5856 14.467 94.375 13.8312 94.375 13.0503C94.375 12.2124 94.6037 11.5336 95.0632 11.0153C95.5082 10.5321 96.0533 10.2904 96.7021 10.2904C97.4151 10.2904 97.9141 10.5244 98.198 10.9933H98.2205V8.02148H99.4021V14.1793C99.4021 14.6834 99.4156 15.1479 99.4438 15.5741ZM98.2205 13.3908V12.5276C98.2205 12.3782 98.2092 12.2574 98.1878 12.1651C98.1214 11.8884 97.9783 11.6556 97.7609 11.4678C97.5413 11.28 97.2766 11.1855 96.9713 11.1855C96.5309 11.1855 96.1862 11.3557 95.9328 11.6973C95.6816 12.0388 95.5543 12.4748 95.5543 13.0075C95.5543 13.5193 95.6749 13.9344 95.917 14.254C96.1727 14.5944 96.5174 14.7647 96.9488 14.7647C97.3363 14.7647 97.6461 14.623 97.8815 14.3385C98.109 14.0761 98.2205 13.7598 98.2205 13.3908Z" fill="black" fill-opacity="0.2"/>
</g>
<g id="Vector_19">
<path d="M109.54 12.9422C109.54 13.7384 109.307 14.3907 108.841 14.9025C108.352 15.4286 107.706 15.691 106.896 15.691C106.117 15.691 105.497 15.4395 105.033 14.9344C104.571 14.4303 104.34 13.7944 104.34 13.0278C104.34 12.2261 104.578 11.5683 105.055 11.0576C105.533 10.5469 106.175 10.291 106.985 10.291C107.763 10.291 108.39 10.5425 108.863 11.0466C109.314 11.5364 109.54 12.169 109.54 12.9422ZM108.317 12.9795C108.317 12.5018 108.211 12.0921 108.001 11.7506C107.752 11.3376 107.4 11.1312 106.941 11.1312C106.468 11.1312 106.107 11.3376 105.858 11.7506C105.646 12.0921 105.542 12.5084 105.542 13.0004C105.542 13.4781 105.648 13.8877 105.858 14.2293C106.114 14.6422 106.47 14.8487 106.929 14.8487C107.38 14.8487 107.735 14.6389 107.989 14.2183C108.207 13.8702 108.317 13.4572 108.317 12.9795Z" fill="#1C1C1C"/>
<path d="M109.54 12.9422C109.54 13.7384 109.307 14.3907 108.841 14.9025C108.352 15.4286 107.706 15.691 106.896 15.691C106.117 15.691 105.497 15.4395 105.033 14.9344C104.571 14.4303 104.34 13.7944 104.34 13.0278C104.34 12.2261 104.578 11.5683 105.055 11.0576C105.533 10.5469 106.175 10.291 106.985 10.291C107.763 10.291 108.39 10.5425 108.863 11.0466C109.314 11.5364 109.54 12.169 109.54 12.9422ZM108.317 12.9795C108.317 12.5018 108.211 12.0921 108.001 11.7506C107.752 11.3376 107.4 11.1312 106.941 11.1312C106.468 11.1312 106.107 11.3376 105.858 11.7506C105.646 12.0921 105.542 12.5084 105.542 13.0004C105.542 13.4781 105.648 13.8877 105.858 14.2293C106.114 14.6422 106.47 14.8487 106.929 14.8487C107.38 14.8487 107.735 14.6389 107.989 14.2183C108.207 13.8702 108.317 13.4572 108.317 12.9795Z" fill="black" fill-opacity="0.2"/>
<path d="M109.54 12.9422C109.54 13.7384 109.307 14.3907 108.841 14.9025C108.352 15.4286 107.706 15.691 106.896 15.691C106.117 15.691 105.497 15.4395 105.033 14.9344C104.571 14.4303 104.34 13.7944 104.34 13.0278C104.34 12.2261 104.578 11.5683 105.055 11.0576C105.533 10.5469 106.175 10.291 106.985 10.291C107.763 10.291 108.39 10.5425 108.863 11.0466C109.314 11.5364 109.54 12.169 109.54 12.9422ZM108.317 12.9795C108.317 12.5018 108.211 12.0921 108.001 11.7506C107.752 11.3376 107.4 11.1312 106.941 11.1312C106.468 11.1312 106.107 11.3376 105.858 11.7506C105.646 12.0921 105.542 12.5084 105.542 13.0004C105.542 13.4781 105.648 13.8877 105.858 14.2293C106.114 14.6422 106.47 14.8487 106.929 14.8487C107.38 14.8487 107.735 14.6389 107.989 14.2183C108.207 13.8702 108.317 13.4572 108.317 12.9795Z" fill="black" fill-opacity="0.2"/>
</g>
<g id="Vector_20">
<path d="M115.887 15.5749H114.707V12.6096C114.707 11.6959 114.351 11.239 113.636 11.239C113.286 11.239 113.003 11.3642 112.784 11.6157C112.566 11.8672 112.457 12.1638 112.457 12.5031V15.5738H111.275V11.8771C111.275 11.4224 111.262 10.9293 111.233 10.3956H112.27L112.325 11.205H112.358C112.496 10.9535 112.701 10.7459 112.969 10.5801C113.29 10.3868 113.647 10.2891 114.04 10.2891C114.535 10.2891 114.947 10.445 115.275 10.758C115.684 11.1413 115.887 11.7135 115.887 12.4735V15.5749Z" fill="#1C1C1C"/>
<path d="M115.887 15.5749H114.707V12.6096C114.707 11.6959 114.351 11.239 113.636 11.239C113.286 11.239 113.003 11.3642 112.784 11.6157C112.566 11.8672 112.457 12.1638 112.457 12.5031V15.5738H111.275V11.8771C111.275 11.4224 111.262 10.9293 111.233 10.3956H112.27L112.325 11.205H112.358C112.496 10.9535 112.701 10.7459 112.969 10.5801C113.29 10.3868 113.647 10.2891 114.04 10.2891C114.535 10.2891 114.947 10.445 115.275 10.758C115.684 11.1413 115.887 11.7135 115.887 12.4735V15.5749Z" fill="black" fill-opacity="0.2"/>
<path d="M115.887 15.5749H114.707V12.6096C114.707 11.6959 114.351 11.239 113.636 11.239C113.286 11.239 113.003 11.3642 112.784 11.6157C112.566 11.8672 112.457 12.1638 112.457 12.5031V15.5738H111.275V11.8771C111.275 11.4224 111.262 10.9293 111.233 10.3956H112.27L112.325 11.205H112.358C112.496 10.9535 112.701 10.7459 112.969 10.5801C113.29 10.3868 113.647 10.2891 114.04 10.2891C114.535 10.2891 114.947 10.445 115.275 10.758C115.684 11.1413 115.887 11.7135 115.887 12.4735V15.5749Z" fill="black" fill-opacity="0.2"/>
</g>
<g id="Vector_21">
<path d="M123.833 11.2589H122.533V13.7738C122.533 14.413 122.764 14.7326 123.221 14.7326C123.433 14.7326 123.608 14.715 123.747 14.6788L123.777 15.5519C123.544 15.6375 123.238 15.6804 122.86 15.6804C122.394 15.6804 122.031 15.542 121.769 15.2652C121.505 14.9885 121.375 14.5228 121.375 13.8694V11.2589H120.599V10.3968H121.375V9.44788L122.532 9.10742V10.3957H123.831V11.2589H123.833Z" fill="#1C1C1C"/>
<path d="M123.833 11.2589H122.533V13.7738C122.533 14.413 122.764 14.7326 123.221 14.7326C123.433 14.7326 123.608 14.715 123.747 14.6788L123.777 15.5519C123.544 15.6375 123.238 15.6804 122.86 15.6804C122.394 15.6804 122.031 15.542 121.769 15.2652C121.505 14.9885 121.375 14.5228 121.375 13.8694V11.2589H120.599V10.3968H121.375V9.44788L122.532 9.10742V10.3957H123.831V11.2589H123.833Z" fill="black" fill-opacity="0.2"/>
<path d="M123.833 11.2589H122.533V13.7738C122.533 14.413 122.764 14.7326 123.221 14.7326C123.433 14.7326 123.608 14.715 123.747 14.6788L123.777 15.5519C123.544 15.6375 123.238 15.6804 122.86 15.6804C122.394 15.6804 122.031 15.542 121.769 15.2652C121.505 14.9885 121.375 14.5228 121.375 13.8694V11.2589H120.599V10.3968H121.375V9.44788L122.532 9.10742V10.3957H123.831V11.2589H123.833Z" fill="black" fill-opacity="0.2"/>
</g>
<g id="Vector_22">
<path d="M130.082 15.5741H128.901V12.6308C128.901 11.7028 128.545 11.2382 127.832 11.2382C127.284 11.2382 126.91 11.5073 126.705 12.0454C126.67 12.1585 126.65 12.2969 126.65 12.4595V15.573H125.471V8.02148H126.65V11.1416H126.673C127.044 10.5738 127.577 10.2904 128.268 10.2904C128.756 10.2904 129.161 10.4464 129.482 10.7594C129.882 11.1493 130.082 11.7291 130.082 12.4957V15.5741Z" fill="#1C1C1C"/>
<path d="M130.082 15.5741H128.901V12.6308C128.901 11.7028 128.545 11.2382 127.832 11.2382C127.284 11.2382 126.91 11.5073 126.705 12.0454C126.67 12.1585 126.65 12.2969 126.65 12.4595V15.573H125.471V8.02148H126.65V11.1416H126.673C127.044 10.5738 127.577 10.2904 128.268 10.2904C128.756 10.2904 129.161 10.4464 129.482 10.7594C129.882 11.1493 130.082 11.7291 130.082 12.4957V15.5741Z" fill="black" fill-opacity="0.2"/>
<path d="M130.082 15.5741H128.901V12.6308C128.901 11.7028 128.545 11.2382 127.832 11.2382C127.284 11.2382 126.91 11.5073 126.705 12.0454C126.67 12.1585 126.65 12.2969 126.65 12.4595V15.573H125.471V8.02148H126.65V11.1416H126.673C127.044 10.5738 127.577 10.2904 128.268 10.2904C128.756 10.2904 129.161 10.4464 129.482 10.7594C129.882 11.1493 130.082 11.7291 130.082 12.4957V15.5741Z" fill="black" fill-opacity="0.2"/>
</g>
<g id="Vector_23">
<path d="M136.526 12.7402C136.526 12.9467 136.511 13.1202 136.482 13.2619H132.942C132.958 13.7736 133.127 14.1635 133.455 14.4337C133.754 14.6753 134.141 14.7961 134.614 14.7961C135.138 14.7961 135.615 14.7148 136.045 14.5512L136.23 15.3507C135.727 15.5638 135.134 15.6703 134.448 15.6703C133.626 15.6703 132.978 15.4342 132.51 14.9619C132.039 14.4897 131.806 13.856 131.806 13.0609C131.806 12.28 132.023 11.6299 132.461 11.1115C132.919 10.558 133.537 10.2812 134.318 10.2812C135.081 10.2812 135.661 10.558 136.053 11.1115C136.37 11.5508 136.526 12.0944 136.526 12.7402ZM135.4 12.4426C135.409 12.101 135.331 11.8067 135.171 11.5585C134.966 11.2389 134.654 11.0786 134.232 11.0786C133.847 11.0786 133.532 11.2345 133.293 11.5475C133.097 11.7968 132.98 12.0944 132.942 12.4426H135.4Z" fill="#1C1C1C"/>
<path d="M136.526 12.7402C136.526 12.9467 136.511 13.1202 136.482 13.2619H132.942C132.958 13.7736 133.127 14.1635 133.455 14.4337C133.754 14.6753 134.141 14.7961 134.614 14.7961C135.138 14.7961 135.615 14.7148 136.045 14.5512L136.23 15.3507C135.727 15.5638 135.134 15.6703 134.448 15.6703C133.626 15.6703 132.978 15.4342 132.51 14.9619C132.039 14.4897 131.806 13.856 131.806 13.0609C131.806 12.28 132.023 11.6299 132.461 11.1115C132.919 10.558 133.537 10.2812 134.318 10.2812C135.081 10.2812 135.661 10.558 136.053 11.1115C136.37 11.5508 136.526 12.0944 136.526 12.7402ZM135.4 12.4426C135.409 12.101 135.331 11.8067 135.171 11.5585C134.966 11.2389 134.654 11.0786 134.232 11.0786C133.847 11.0786 133.532 11.2345 133.293 11.5475C133.097 11.7968 132.98 12.0944 132.942 12.4426H135.4Z" fill="black" fill-opacity="0.2"/>
<path d="M136.526 12.7402C136.526 12.9467 136.511 13.1202 136.482 13.2619H132.942C132.958 13.7736 133.127 14.1635 133.455 14.4337C133.754 14.6753 134.141 14.7961 134.614 14.7961C135.138 14.7961 135.615 14.7148 136.045 14.5512L136.23 15.3507C135.727 15.5638 135.134 15.6703 134.448 15.6703C133.626 15.6703 132.978 15.4342 132.51 14.9619C132.039 14.4897 131.806 13.856 131.806 13.0609C131.806 12.28 132.023 11.6299 132.461 11.1115C132.919 10.558 133.537 10.2812 134.318 10.2812C135.081 10.2812 135.661 10.558 136.053 11.1115C136.37 11.5508 136.526 12.0944 136.526 12.7402ZM135.4 12.4426C135.409 12.101 135.331 11.8067 135.171 11.5585C134.966 11.2389 134.654 11.0786 134.232 11.0786C133.847 11.0786 133.532 11.2345 133.293 11.5475C133.097 11.7968 132.98 12.0944 132.942 12.4426H135.4Z" fill="black" fill-opacity="0.2"/>
</g>
</g>
</g>
</g>
</svg>
