<svg width="146" height="73" viewBox="0 0 146 73" fill="none" xmlns="http://www.w3.org/2000/svg">
<path id="arrow" d="M140.825 61.2956C141.921 53.2841 142.207 45.2337 143.117 37.2141C143.561 33.2974 138.064 38.0472 136.908 38.7947C131.084 42.5599 127.475 43.7832 120.927 45.4755C116.978 46.4962 128.434 42.2505 132.311 40.9839C153.677 34.005 121.495 57.849 116.728 60.2726C92.7968 72.4396 62.0756 76.1119 40.5779 57.4371C26.8407 45.5037 30.6852 21.8725 41.8316 9.5145C47.9675 2.71161 55.7339 0.0257009 64.0135 4.47458C69.2473 7.28688 74.8521 14.5071 72.7717 20.7169C64.0888 46.6344 30.0753 48.7513 11.1631 32.3733C8.07175 28.1424 0.883645 19.657 3.41763 9.02228" stroke="#22B9DD" stroke-width="4.10603" stroke-linecap="round"/>
</svg>
