<svg width="320" height="215" viewBox="0 0 320 215" fill="none" xmlns="http://www.w3.org/2000/svg">
<path d="M98.6823 92.4942C93.2028 100.249 88.5303 108.622 80.9337 114.871C67.9603 125.544 48.2416 128.279 37.3839 141.181C25.7382 155.021 30.8643 174.632 43.3411 186.231C51.6421 193.948 62.8114 198.885 74.4128 201.845C99.5463 208.258 267.216 201.141 275.536 197.466C286.68 192.547 291.679 183.13 290.872 172.481C289.552 155.049 274.703 140.843 258.385 131.197C242.068 121.55 223.505 114.876 208.28 103.928C199.576 97.6696 192.153 90.144 183.845 83.4786C176.922 77.9244 169.206 72.9947 160.408 70.0148C137.715 62.3334 110.813 75.3259 98.6823 92.4942Z" fill="#22B9DD"/>
<path d="M245.52 214.474L269.5 166.472C270.189 165.092 272.153 165.075 272.866 166.442L297.94 214.473" stroke="#666666" stroke-width="0.950205" stroke-miterlimit="10" stroke-linecap="round" stroke-linejoin="round"/>
<path d="M192.303 214.474L230.093 138.831C231.18 136.656 234.273 136.629 235.398 138.784L274.908 214.474" fill="white"/>
<path d="M192.303 214.474L230.093 138.831C231.18 136.656 234.273 136.629 235.398 138.784L274.908 214.474" stroke="#666666" stroke-width="0.950205" stroke-miterlimit="10" stroke-linecap="round" stroke-linejoin="round"/>
<path d="M40.1855 214.474L59.1745 176.464C59.5925 175.627 60.7847 175.616 61.218 176.447L81.0697 214.475" stroke="#666666" stroke-width="0.950205" stroke-miterlimit="10" stroke-linecap="round" stroke-linejoin="round"/>
<path d="M62.5527 214.474L91.6683 156.196C92.5057 154.521 94.8888 154.499 95.7554 156.159L126.196 214.474" fill="white"/>
<path d="M62.5527 214.474L91.6683 156.196C92.5057 154.521 94.8888 154.499 95.7554 156.159L126.196 214.474" stroke="#666666" stroke-width="0.950205" stroke-miterlimit="10" stroke-linecap="round" stroke-linejoin="round"/>
<path d="M62.1941 86.0708C60.8536 86.0708 59.6614 86.6067 58.7391 87.4999C58.2032 84.3123 55.6123 81.9304 52.4842 81.9304C49.3574 81.9304 46.7361 84.3731 46.2598 87.5898C45.2171 86.8753 43.9666 86.4585 42.6262 86.4585C39.4753 86.4585 36.8286 88.7972 36.1192 91.9443C36.0545 92.2281 36.2902 92.5043 36.5816 92.5043H47.2733H49.2396H57.0731H57.7281H67.3188C67.3277 92.4967 67.3353 92.4904 67.3442 92.4828C67.8459 89.0658 65.3234 86.0708 62.1941 86.0708Z" stroke="#666666" stroke-width="0.950205" stroke-miterlimit="10" stroke-linecap="round" stroke-linejoin="round"/>
<path d="M248.941 102.284C248.941 104.174 247.409 105.706 245.519 105.706C243.628 105.706 242.097 104.174 242.097 102.284C242.097 100.394 243.63 98.8618 245.519 98.8618C247.409 98.8618 248.941 100.394 248.941 102.284Z" stroke="#22B9DD" stroke-width="1.26694" stroke-miterlimit="10"/>
<path d="M310.564 161.598C310.564 163.488 309.032 165.021 307.142 165.021C305.251 165.021 303.72 163.488 303.72 161.598C303.72 159.708 305.253 158.176 307.142 158.176C309.031 158.175 310.564 159.708 310.564 161.598Z" stroke="#22B9DD" stroke-width="1.26694" stroke-miterlimit="10"/>
<path d="M22.8131 146.741C22.8131 148.631 21.2801 150.163 19.3898 150.163C17.4995 150.163 15.9678 148.631 15.9678 146.741C15.9678 144.85 17.4995 143.317 19.3898 143.317C21.2801 143.319 22.8131 144.85 22.8131 146.741Z" stroke="#22B9DD" stroke-width="1.26694" stroke-miterlimit="10"/>
<path d="M268.245 90.1211H286.86" stroke="#666666" stroke-width="0.950205" stroke-miterlimit="10" stroke-linecap="round" stroke-linejoin="round"/>
<path d="M296.043 97.5681H318.878" stroke="#666666" stroke-width="0.950205" stroke-miterlimit="10" stroke-linecap="round" stroke-linejoin="round"/>
<path d="M284.597 97.5681H290.212" stroke="#666666" stroke-width="0.950205" stroke-miterlimit="10" stroke-linecap="round" stroke-linejoin="round"/>
<path d="M26.0986 59.6917H44.7138" stroke="#666666" stroke-width="0.950205" stroke-miterlimit="10" stroke-linecap="round" stroke-linejoin="round"/>
<path d="M14.5498 67.1389H35.4049" stroke="#666666" stroke-width="0.950205" stroke-miterlimit="10" stroke-linecap="round" stroke-linejoin="round"/>
<path d="M1.12109 67.1389H7.81308" stroke="#666666" stroke-width="0.950205" stroke-miterlimit="10" stroke-linecap="round" stroke-linejoin="round"/>
<path d="M131.681 197.347H148.134" stroke="#666666" stroke-width="0.950205" stroke-miterlimit="10" stroke-linecap="round" stroke-linejoin="round"/>
<path d="M159.308 197.347H167.535" stroke="#666666" stroke-width="0.950205" stroke-miterlimit="10" stroke-linecap="round" stroke-linejoin="round"/>
<path d="M151.811 197.347H155.486" stroke="#666666" stroke-width="0.950205" stroke-miterlimit="10" stroke-linecap="round" stroke-linejoin="round"/>
<path d="M160.263 206.407H161.741" stroke="#666666" stroke-width="0.950205" stroke-miterlimit="10" stroke-linecap="round" stroke-linejoin="round"/>
<path d="M141.959 206.407H157.103" stroke="#666666" stroke-width="0.950205" stroke-miterlimit="10" stroke-linecap="round" stroke-linejoin="round"/>
<path d="M252.111 214.474H315.723" stroke="#666666" stroke-width="0.950205" stroke-miterlimit="10" stroke-linecap="round" stroke-linejoin="round"/>
<path d="M238.957 214.474H245.52" stroke="#666666" stroke-width="0.950205" stroke-miterlimit="10" stroke-linecap="round" stroke-linejoin="round"/>
<path d="M4.84277 214.474H229.524" stroke="#666666" stroke-width="0.950205" stroke-miterlimit="10" stroke-linecap="round" stroke-linejoin="round"/>
<path d="M221.343 183.678C221.343 193.758 213.171 201.929 203.091 201.929C193.012 201.929 184.84 193.757 184.84 183.678C184.84 173.599 193.012 165.427 203.091 165.427C213.171 165.427 221.343 173.599 221.343 183.678Z" fill="white" stroke="#666666" stroke-width="0.950205" stroke-miterlimit="10" stroke-linecap="round" stroke-linejoin="round"/>
<mask id="path-27-inside-1_266_44860" fill="white">
<path fill-rule="evenodd" clip-rule="evenodd" d="M203.715 193.258L203.703 193.26L203.632 193.295L203.612 193.299L203.598 193.295L203.527 193.259C203.517 193.256 203.509 193.258 203.503 193.265L203.499 193.275L203.482 193.703L203.487 193.723L203.497 193.736L203.601 193.81L203.616 193.814L203.628 193.81L203.732 193.736L203.744 193.72L203.748 193.703L203.731 193.276C203.729 193.265 203.723 193.259 203.715 193.258ZM203.979 193.145L203.965 193.147L203.781 193.24L203.771 193.25L203.768 193.261L203.786 193.691L203.791 193.703L203.799 193.711L204 193.803C204.013 193.806 204.023 193.804 204.029 193.795L204.033 193.781L203.999 193.167C203.996 193.154 203.989 193.147 203.979 193.145ZM203.264 193.147C203.26 193.144 203.255 193.143 203.25 193.145C203.245 193.146 203.24 193.149 203.237 193.153L203.231 193.167L203.197 193.781C203.198 193.793 203.204 193.801 203.214 193.805L203.229 193.803L203.43 193.71L203.44 193.702L203.443 193.691L203.461 193.261L203.458 193.249L203.448 193.239L203.264 193.147Z"/>
</mask>
<path d="M203.715 193.258L203.88 192.272L203.715 192.244L203.551 192.272L203.715 193.258ZM203.703 193.26L203.539 192.274L203.393 192.298L203.261 192.363L203.703 193.26ZM203.632 193.295L203.828 194.276L203.957 194.25L204.074 194.192L203.632 193.295ZM203.612 193.299L203.338 194.26L203.571 194.327L203.808 194.28L203.612 193.299ZM203.598 193.295L203.146 194.187L203.231 194.23L203.324 194.256L203.598 193.295ZM203.527 193.259L203.979 192.367L203.879 192.316L203.77 192.289L203.527 193.259ZM203.503 193.265L202.722 192.64L202.63 192.756L202.575 192.894L203.503 193.265ZM203.499 193.275L202.571 192.904L202.507 193.063L202.5 193.235L203.499 193.275ZM203.482 193.703L202.483 193.663L202.477 193.806L202.512 193.945L203.482 193.703ZM203.487 193.723L202.517 193.965L202.568 194.168L202.695 194.333L203.487 193.723ZM203.497 193.736L202.705 194.346L202.796 194.464L202.918 194.551L203.497 193.736ZM203.601 193.81L203.022 194.625L203.169 194.73L203.344 194.776L203.601 193.81ZM203.616 193.814L203.359 194.78L203.648 194.857L203.932 194.763L203.616 193.814ZM203.628 193.81L203.944 194.759L204.086 194.711L204.208 194.625L203.628 193.81ZM203.732 193.736L204.312 194.551L204.439 194.46L204.532 194.336L203.732 193.736ZM203.744 193.72L204.544 194.32L204.67 194.153L204.718 193.949L203.744 193.72ZM203.748 193.703L204.722 193.932L204.753 193.799L204.747 193.663L203.748 193.703ZM203.731 193.276L204.73 193.236L204.726 193.133L204.701 193.033L203.731 193.276ZM203.979 193.145L204.175 192.164L204.007 192.131L203.838 192.155L203.979 193.145ZM203.965 193.147L203.824 192.157L203.661 192.18L203.514 192.254L203.965 193.147ZM203.781 193.24L203.33 192.347L203.187 192.42L203.074 192.533L203.781 193.24ZM203.771 193.25L203.064 192.543L202.876 192.731L202.806 192.987L203.771 193.25ZM203.768 193.261L202.803 192.998L202.763 193.148L202.769 193.303L203.768 193.261ZM203.786 193.691L202.787 193.733L202.795 193.911L202.863 194.076L203.786 193.691ZM203.791 193.703L202.868 194.088L202.944 194.27L203.084 194.41L203.791 193.703ZM203.799 193.711L203.092 194.418L203.219 194.545L203.383 194.62L203.799 193.711ZM204 193.803L203.584 194.712L203.662 194.748L203.746 194.77L204 193.803ZM204.029 193.795L204.822 194.405L204.938 194.253L204.991 194.07L204.029 193.795ZM204.033 193.781L204.995 194.056L205.041 193.894L205.032 193.726L204.033 193.781ZM203.999 193.167L204.998 193.112L204.992 193.01L204.966 192.912L203.999 193.167ZM203.264 193.147L202.746 194.002L202.781 194.023L202.817 194.041L203.264 193.147ZM203.237 193.153L202.406 192.598L202.354 192.674L202.318 192.759L203.237 193.153ZM203.231 193.167L202.312 192.773L202.243 192.935L202.233 193.112L203.231 193.167ZM203.197 193.781L202.199 193.726L202.196 193.781L202.199 193.836L203.197 193.781ZM203.214 193.805L202.863 194.741L203.098 194.829L203.346 194.796L203.214 193.805ZM203.229 193.803L203.361 194.794L203.512 194.774L203.649 194.711L203.229 193.803ZM203.43 193.71L203.85 194.617L203.96 194.567L204.055 194.491L203.43 193.71ZM203.44 193.702L204.065 194.483L204.319 194.279L204.405 193.965L203.44 193.702ZM203.443 193.691L204.408 193.954L204.438 193.845L204.442 193.733L203.443 193.691ZM203.461 193.261L204.46 193.303L204.466 193.158L204.431 193.018L203.461 193.261ZM203.458 193.249L204.428 193.006L204.361 192.738L204.165 192.542L203.458 193.249ZM203.448 193.239L204.155 192.532L204.041 192.417L203.895 192.345L203.448 193.239ZM203.551 192.272L203.539 192.274L203.868 194.246L203.88 194.244L203.551 192.272ZM203.261 192.363L203.19 192.398L204.074 194.192L204.145 194.157L203.261 192.363ZM203.436 192.314L203.416 192.318L203.808 194.28L203.828 194.276L203.436 192.314ZM203.887 192.337L203.873 192.333L203.324 194.256L203.338 194.26L203.887 192.337ZM204.05 192.403L203.979 192.367L203.075 194.151L203.146 194.187L204.05 192.403ZM203.77 192.289C203.656 192.26 203.478 192.236 203.271 192.288C203.046 192.344 202.857 192.472 202.722 192.64L204.284 193.89C204.155 194.051 203.972 194.175 203.756 194.229C203.556 194.278 203.388 194.255 203.285 194.229L203.77 192.289ZM202.575 192.894L202.571 192.904L204.428 193.646L204.432 193.636L202.575 192.894ZM202.5 193.235L202.483 193.663L204.481 193.743L204.498 193.315L202.5 193.235ZM202.512 193.945L202.517 193.965L204.457 193.48L204.452 193.46L202.512 193.945ZM202.695 194.333L202.705 194.346L204.29 193.126L204.28 193.113L202.695 194.333ZM202.918 194.551L203.022 194.625L204.181 192.995L204.077 192.921L202.918 194.551ZM203.344 194.776L203.359 194.78L203.874 192.848L203.859 192.844L203.344 194.776ZM203.932 194.763L203.944 194.759L203.312 192.861L203.3 192.865L203.932 194.763ZM204.208 194.625L204.312 194.551L203.153 192.921L203.049 192.995L204.208 194.625ZM204.532 194.336L204.544 194.32L202.944 193.12L202.932 193.136L204.532 194.336ZM204.718 193.949L204.722 193.932L202.775 193.474L202.771 193.491L204.718 193.949ZM204.747 193.663L204.73 193.236L202.732 193.316L202.749 193.743L204.747 193.663ZM204.701 193.033C204.643 192.8 204.424 192.362 203.88 192.272L203.551 194.244C203.332 194.208 203.129 194.098 202.978 193.928C202.841 193.774 202.785 193.615 202.761 193.518L204.701 193.033ZM203.838 192.155L203.824 192.157L204.107 194.137L204.121 194.135L203.838 192.155ZM203.514 192.254L203.33 192.347L204.232 194.132L204.416 194.039L203.514 192.254ZM203.074 192.533L203.064 192.543L204.478 193.957L204.488 193.947L203.074 192.533ZM202.806 192.987L202.803 192.998L204.733 193.524L204.736 193.513L202.806 192.987ZM202.769 193.303L202.787 193.733L204.785 193.649L204.767 193.219L202.769 193.303ZM202.863 194.076L202.868 194.088L204.714 193.318L204.709 193.306L202.863 194.076ZM203.084 194.41L203.092 194.418L204.506 193.004L204.498 192.996L203.084 194.41ZM203.383 194.62L203.584 194.712L204.416 192.894L204.215 192.802L203.383 194.62ZM203.746 194.77C203.872 194.803 204.063 194.828 204.283 194.767C204.516 194.703 204.699 194.565 204.822 194.405L203.237 193.185C203.353 193.034 203.527 192.901 203.751 192.839C203.961 192.782 204.141 192.806 204.255 192.836L203.746 194.77ZM204.991 194.07L204.995 194.056L203.072 193.506L203.068 193.52L204.991 194.07ZM205.032 193.726L204.998 193.112L203.001 193.222L203.035 193.836L205.032 193.726ZM204.966 192.912C204.899 192.655 204.672 192.264 204.175 192.164L203.783 194.126C203.585 194.086 203.397 193.984 203.252 193.825C203.118 193.677 203.059 193.523 203.032 193.421L204.966 192.912ZM203.783 192.292C203.558 192.155 203.289 192.111 203.033 192.168L203.466 194.121C203.22 194.175 202.962 194.133 202.746 194.002L203.783 192.292ZM203.033 192.168C202.776 192.225 202.551 192.379 202.406 192.598L204.069 193.708C203.929 193.918 203.713 194.066 203.466 194.121L203.033 192.168ZM202.318 192.759L202.312 192.773L204.15 193.561L204.156 193.547L202.318 192.759ZM202.233 193.112L202.199 193.726L204.196 193.836L204.23 193.222L202.233 193.112ZM202.199 193.836C202.207 193.988 202.252 194.185 202.386 194.374C202.522 194.566 202.702 194.681 202.863 194.741L203.565 192.869C203.716 192.925 203.887 193.033 204.018 193.218C204.146 193.399 204.188 193.586 204.196 193.725L202.199 193.836ZM203.346 194.796L203.361 194.794L203.097 192.812L203.082 192.814L203.346 194.796ZM203.649 194.711L203.85 194.617L203.01 192.802L202.809 192.895L203.649 194.711ZM204.055 194.491L204.065 194.483L202.816 192.921L202.806 192.929L204.055 194.491ZM204.405 193.965L204.408 193.954L202.478 193.428L202.475 193.439L204.405 193.965ZM204.442 193.733L204.46 193.303L202.462 193.219L202.444 193.649L204.442 193.733ZM204.431 193.018L204.428 193.006L202.488 193.492L202.491 193.504L204.431 193.018ZM204.165 192.542L204.155 192.532L202.741 193.946L202.751 193.956L204.165 192.542ZM203.895 192.345L203.711 192.253L202.817 194.041L203.001 194.133L203.895 192.345Z" fill="black" mask="url(#path-27-inside-1_266_44860)"/>
<path d="M205.621 179V179.5H206.121H210.121C210.519 179.5 210.9 179.658 211.182 179.939C211.463 180.221 211.621 180.602 211.621 181V183C211.621 183.398 211.463 183.779 211.182 184.061C210.9 184.342 210.519 184.5 210.121 184.5H206.121H205.621V185V189C205.621 189.398 205.463 189.779 205.182 190.061C204.9 190.342 204.519 190.5 204.121 190.5H202.121C201.723 190.5 201.342 190.342 201.06 190.061C200.779 189.779 200.621 189.398 200.621 189V185V184.5H200.121H196.121C195.723 184.5 195.342 184.342 195.06 184.061C194.779 183.779 194.621 183.398 194.621 183V181C194.621 180.602 194.779 180.221 195.06 179.939C195.342 179.658 195.723 179.5 196.121 179.5H200.121H200.621V179V175C200.621 174.602 200.779 174.221 201.06 173.939C201.342 173.658 201.723 173.5 202.121 173.5H204.121C204.519 173.5 204.9 173.658 205.182 173.939C205.463 174.221 205.621 174.602 205.621 175V179Z" fill="#22B9DD" stroke="black"/>
<path d="M95.0575 126.562V126.541L95.0551 126.521L88.3637 69.8808C88.3748 65.8109 91.7085 62.4867 95.7735 62.4867H212.355C216.425 62.4867 219.758 65.8111 219.768 69.8808L213.075 126.521L213.073 126.541V126.562C213.073 130.635 209.738 133.976 205.66 133.976H102.467C98.3928 133.976 95.0575 130.635 95.0575 126.562ZM105.629 83.318V83.3375L105.631 83.3567L109.279 116.148C109.29 119.132 111.714 121.553 114.699 121.553C117.692 121.553 120.124 119.121 120.124 116.128V116.109L120.122 116.09L116.47 83.2983C116.46 80.3112 114.039 77.8976 111.05 77.8976C108.058 77.8976 105.629 80.322 105.629 83.318ZM126.318 83.318V83.3278L126.318 83.3375L128.142 116.138C128.147 119.127 130.573 121.553 133.568 121.553C136.562 121.553 138.989 119.121 138.989 116.128L138.989 116.119L138.989 116.109L137.162 83.3082C137.157 80.3163 134.732 77.8976 131.739 77.8976C128.747 77.8976 126.318 80.322 126.318 83.318ZM165.876 116.109L165.875 116.119V116.128C165.875 119.121 168.297 121.553 171.295 121.553C174.286 121.553 176.711 119.126 176.717 116.138L178.542 83.3375L178.542 83.3278V83.318C178.542 80.3213 176.111 77.8976 173.116 77.8976C170.127 77.8976 167.7 80.3167 167.695 83.3081L165.876 116.109ZM184.737 116.09L184.735 116.109V116.128C184.735 119.121 187.161 121.553 190.154 121.553C193.147 121.553 195.566 119.132 195.577 116.148L199.226 83.3568L199.228 83.3375V83.318C199.228 80.3219 196.804 77.8976 193.808 77.8976C190.822 77.8976 188.398 80.3115 188.388 83.2983L184.737 116.09ZM152.428 121.553C155.421 121.553 157.851 119.121 157.851 116.128V83.318C157.851 80.3215 155.421 77.8976 152.428 77.8976C149.438 77.8976 147.01 80.3221 147.01 83.318V116.128C147.01 119.121 149.438 121.553 152.428 121.553Z" fill="#F4E552" stroke="black" stroke-width="0.7"/>
<path d="M119.376 116.805C119.045 119.095 117.078 120.854 114.7 120.854C112.096 120.854 109.98 118.736 109.98 116.13V116.11L109.978 116.091L106.33 83.3001C106.335 81.8072 107.038 80.4822 108.127 79.6222L111.715 111.892C111.726 114.876 114.151 117.291 117.14 117.291C117.937 117.291 118.693 117.117 119.376 116.805Z" fill="#FEC35A" stroke="black" stroke-width="0.7"/>
<path d="M138.239 116.804C137.91 119.095 135.946 120.854 133.569 120.854C130.957 120.854 128.842 118.736 128.842 116.13V116.12L128.841 116.11L127.018 83.3096C127.021 81.826 127.711 80.5074 128.786 79.6451L130.577 111.882C130.582 114.871 133.009 117.291 136.001 117.291C136.799 117.291 137.555 117.117 138.239 116.804Z" fill="#FEC35A" stroke="black" stroke-width="0.7"/>
<path d="M152.43 117.291C154.454 117.291 156.221 116.181 157.152 114.537V116.129C157.152 118.736 155.036 120.854 152.43 120.854C149.827 120.854 147.711 118.736 147.711 116.129V114.537C148.642 116.181 150.408 117.291 152.43 117.291Z" fill="#FEC35A" stroke="black" stroke-width="0.7"/>
<path d="M174.281 111.882L176.073 79.6435C177.151 80.5055 177.84 81.8246 177.843 83.3096L176.018 116.11L176.017 116.12V116.13C176.017 118.736 173.902 120.854 171.296 120.854C168.917 120.854 166.953 119.096 166.624 116.806C167.305 117.118 168.062 117.291 168.857 117.291C171.853 117.291 174.276 114.871 174.281 111.882Z" fill="#FEC35A" stroke="black" stroke-width="0.7"/>
<path d="M193.151 111.892L196.742 79.6231C197.827 80.4828 198.526 81.8073 198.532 83.3001L194.882 116.091L194.88 116.11V116.13C194.88 118.736 192.77 120.854 190.158 120.854C187.782 120.854 185.818 119.096 185.49 116.806C186.172 117.118 186.932 117.291 187.729 117.291C190.712 117.291 193.14 114.876 193.151 111.892Z" fill="#FEC35A" stroke="black" stroke-width="0.7"/>
<path d="M226.843 50.307H226.849C231.229 50.307 234.855 54.3811 234.855 59.4997C234.855 64.6241 231.229 68.6977 226.85 68.6977H226.844H81.2794C76.906 68.6977 73.2826 64.6244 73.2826 59.4997C73.2826 54.3804 76.9059 50.307 81.2794 50.307H226.843Z" fill="#FEC35A" stroke="black" stroke-width="0.7"/>
<path d="M226.846 55.8428H81.2811C78.9036 55.8428 76.8837 57.4616 75.8725 59.7683C75.8692 59.6789 75.8676 59.589 75.8676 59.4988C75.8676 55.794 78.36 52.8922 81.2811 52.8922H226.846H226.851C229.781 52.8922 232.266 55.794 232.266 59.4988C232.266 59.5863 232.264 59.6735 232.262 59.7602C231.248 57.4575 229.229 55.8428 226.851 55.8428H226.846Z" fill="white" stroke="black" stroke-width="0.7"/>
<path d="M119.519 59.7894C119.519 65.4121 114.963 69.9696 109.341 69.9696C103.721 69.9696 99.1596 65.4118 99.1596 59.7894C99.1596 54.1674 103.721 49.6122 109.341 49.6122C114.962 49.6122 119.519 54.1672 119.519 59.7894Z" fill="white" stroke="black" stroke-width="0.7"/>
<path d="M105.255 62.8732C106.235 64.034 107.702 64.7708 109.341 64.7708C110.98 64.7708 112.447 64.0321 113.428 62.8687C112.642 64.3193 111.107 65.3045 109.341 65.3045C107.577 65.3045 106.042 64.3212 105.255 62.8732Z" fill="#FEC35A" stroke="black" stroke-width="0.7"/>
<path d="M109.342 50.2516C113.938 50.2516 117.714 53.739 118.174 58.2068C116.726 54.7574 113.32 52.3347 109.342 52.3347C105.366 52.3347 101.962 54.755 100.51 58.2014C100.973 53.7362 104.749 50.2516 109.342 50.2516Z" fill="#FEC35A" stroke="black" stroke-width="0.7"/>
<path d="M109.344 55.7189H109.344C111.592 55.7186 113.414 57.5395 113.414 59.7889C113.414 62.0338 111.592 63.8579 109.344 63.8579C107.097 63.8579 105.277 62.0341 105.277 59.7889C105.277 57.5395 107.096 55.7189 109.344 55.7189Z" fill="#5D626C" stroke="black" stroke-width="0.7"/>
<path d="M208.972 59.7894C208.972 65.4119 204.416 69.9696 198.79 69.9696C193.17 69.9696 188.61 65.4119 188.61 59.7894C188.61 54.1674 193.17 49.6122 198.79 49.6122C204.416 49.6122 208.972 54.1673 208.972 59.7894Z" fill="white" stroke="black" stroke-width="0.7"/>
<path d="M194.72 62.8888C195.7 64.0406 197.16 64.7708 198.791 64.7708C200.431 64.7708 201.897 64.0326 202.878 62.8701C202.093 64.32 200.558 65.3045 198.791 65.3045C197.037 65.3045 195.509 64.3284 194.72 62.8888Z" fill="#FEC35A" stroke="black" stroke-width="0.7"/>
<path d="M198.79 50.2516C203.38 50.2516 207.157 53.7357 207.621 58.2004C206.17 54.7543 202.762 52.3347 198.79 52.3347C194.82 52.3347 191.416 54.7521 189.961 58.1952C190.426 53.7329 194.199 50.2516 198.79 50.2516Z" fill="#FEC35A" stroke="black" stroke-width="0.7"/>
<path d="M198.792 55.7189H198.792C201.042 55.7186 202.865 57.5397 202.865 59.7889C202.865 62.0336 201.041 63.8579 198.792 63.8579C196.547 63.8579 194.723 62.0338 194.723 59.7889C194.723 57.5398 196.547 55.7189 198.792 55.7189Z" fill="#5D626C" stroke="black" stroke-width="0.7"/>
<path d="M112.297 59.3272L112.287 59.3412L112.279 59.356C111.736 60.2951 110.321 60.6104 109.069 59.8853L109.068 59.8849C107.822 59.1664 107.382 57.7951 107.914 56.8525L142.724 8.30623L142.734 8.29215L142.743 8.27714C143.283 7.34081 144.697 7.02673 145.946 7.75103L145.947 7.75171C147.197 8.46998 147.639 9.842 147.109 10.7837L112.297 59.3272Z" fill="#A7ADBD" stroke="black" stroke-width="0.7"/>
<path d="M108.376 57.0036L143.087 8.59552C143.107 8.59114 143.135 8.58697 143.171 8.58587C143.279 8.58257 143.44 8.60789 143.622 8.71425L143.624 8.71537C143.81 8.82234 143.914 8.95088 143.966 9.04725C143.977 9.06656 143.985 9.08388 143.991 9.09878L109.282 57.5067C109.262 57.5108 109.235 57.5147 109.201 57.5157C109.093 57.5189 108.932 57.4937 108.748 57.3859L108.748 57.3859L108.744 57.3833C108.556 57.277 108.452 57.1495 108.401 57.0546C108.39 57.0354 108.382 57.0183 108.376 57.0036Z" fill="#FBE1BA" stroke="black" stroke-width="0.7"/>
<path d="M195.408 59.3563L195.4 59.3413L195.39 59.3272L160.576 10.7839C160.047 9.84108 160.486 8.46938 161.737 7.75183L161.737 7.75184L161.738 7.75094C162.987 7.02647 164.401 7.34073 164.941 8.27995L164.95 8.29521L164.96 8.30951L199.774 56.852C200.302 57.795 199.861 59.1666 198.615 59.8849L198.615 59.8851C197.36 60.6106 195.95 60.2949 195.408 59.3563Z" fill="#A7ADBD" stroke="black" stroke-width="0.7"/>
<path d="M164.518 8.58587C164.552 8.58691 164.579 8.59075 164.599 8.59483L199.31 57.0013C199.304 57.0171 199.295 57.0357 199.284 57.0564C199.233 57.1515 199.131 57.2782 198.946 57.3837L198.944 57.3849C198.757 57.4937 198.594 57.5189 198.486 57.5156C198.451 57.5146 198.424 57.5107 198.404 57.5065L163.696 9.0988C163.702 9.08368 163.711 9.06608 163.721 9.04643C163.773 8.94971 163.876 8.82155 164.059 8.71507C164.245 8.60814 164.408 8.58257 164.518 8.58587Z" fill="#FBE1BA" stroke="black" stroke-width="0.7"/>
<path d="M146.13 0.411523H146.13C150.012 0.41121 153.165 3.56333 153.165 7.44848C153.165 11.3341 150.013 14.4825 146.13 14.4825C142.246 14.4825 139.094 11.334 139.094 7.44848C139.094 3.56372 142.246 0.411523 146.13 0.411523Z" fill="white" stroke="black" stroke-width="0.7"/>
<path d="M144.098 10.4712C144.687 10.8375 145.382 11.049 146.128 11.049C146.871 11.049 147.565 10.8381 148.153 10.4728C147.605 10.9337 146.898 11.2115 146.128 11.2115C145.355 11.2115 144.646 10.9331 144.098 10.4712Z" fill="#FEC35A" stroke="black" stroke-width="0.7"/>
<path d="M146.129 0.35C149.045 0.35 151.486 2.39033 152.1 5.12318C150.936 3.02381 148.696 1.60287 146.129 1.60287C143.559 1.60287 141.319 3.02293 140.155 5.12128C140.769 2.38942 143.208 0.35 146.129 0.35Z" fill="#FEC35A" stroke="black" stroke-width="0.7"/>
<path d="M146.13 4.69619H146.13C147.644 4.6959 148.877 5.92709 148.877 7.44829C148.877 8.96599 147.645 10.1978 146.13 10.1978C144.607 10.1978 143.379 8.96604 143.379 7.44829C143.379 5.92741 144.607 4.69619 146.13 4.69619Z" fill="#A7ADBD" stroke="black" stroke-width="0.7"/>
<path d="M161.562 0.411523H161.562C165.448 0.41121 168.597 3.56324 168.597 7.44848C168.597 11.3342 165.448 14.4825 161.562 14.4825C157.675 14.4825 154.523 11.3339 154.523 7.44848C154.523 3.56383 157.675 0.411523 161.562 0.411523Z" fill="white" stroke="black" stroke-width="0.7"/>
<path d="M159.534 10.4725C160.123 10.838 160.818 11.049 161.562 11.049C162.302 11.049 162.992 10.8408 163.579 10.4798C163.032 10.9365 162.329 11.2115 161.562 11.2115C160.79 11.2115 160.082 10.9336 159.534 10.4725Z" fill="#FEC35A" stroke="black" stroke-width="0.7"/>
<path d="M161.562 0.35C164.477 0.35 166.915 2.38703 167.532 5.11662C166.367 3.02105 164.132 1.60287 161.562 1.60287C158.988 1.60287 156.75 3.02465 155.586 5.12471C156.2 2.39115 158.64 0.35 161.562 0.35Z" fill="#FEC35A" stroke="black" stroke-width="0.7"/>
<path d="M161.562 4.69619H161.562C163.078 4.6959 164.309 5.92692 164.309 7.44829C164.309 8.96613 163.078 10.1978 161.562 10.1978C160.042 10.1978 158.81 8.96562 158.81 7.44829C158.81 5.92782 160.042 4.69619 161.562 4.69619Z" fill="#A7ADBD" stroke="black" stroke-width="0.7"/>
</svg>
