<svg width="151" height="134" viewBox="0 0 151 134" fill="none" xmlns="http://www.w3.org/2000/svg">
<path d="M8.83324 98.6035H5.43045L0.333496 112.925H3.43709L4.38151 109.983H9.93266L10.9059 112.925H13.9987L8.83324 98.6035ZM5.16011 107.568L7.13906 101.469L9.13243 107.568H5.16011Z" fill="#1C1C1C"/>
<path d="M8.83324 98.6035H5.43045L0.333496 112.925H3.43709L4.38151 109.983H9.93266L10.9059 112.925H13.9987L8.83324 98.6035ZM5.16011 107.568L7.13906 101.469L9.13243 107.568H5.16011Z" fill="black" fill-opacity="0.2"/>
<path d="M8.83324 98.6035H5.43045L0.333496 112.925H3.43709L4.38151 109.983H9.93266L10.9059 112.925H13.9987L8.83324 98.6035ZM5.16011 107.568L7.13906 101.469L9.13243 107.568H5.16011Z" fill="black" fill-opacity="0.2"/>
<path d="M23.5686 98.5635V107.55C23.5686 108.66 23.3487 109.471 22.9017 109.983C22.4547 110.495 21.7518 110.736 20.775 110.736C19.7981 110.736 19.1168 110.484 18.6771 109.976C18.2373 109.468 18.0174 108.656 18.0174 107.55V98.5635H15.0364V107.871C15.0364 109.637 15.5338 110.981 16.5215 111.919C17.5092 112.856 18.933 113.324 20.7966 113.324C22.6602 113.324 24.0588 112.856 25.0393 111.919C26.0197 110.981 26.5172 109.63 26.5172 107.871V98.5635H23.5686Z" fill="#1C1C1C"/>
<path d="M23.5686 98.5635V107.55C23.5686 108.66 23.3487 109.471 22.9017 109.983C22.4547 110.495 21.7518 110.736 20.775 110.736C19.7981 110.736 19.1168 110.484 18.6771 109.976C18.2373 109.468 18.0174 108.656 18.0174 107.55V98.5635H15.0364V107.871C15.0364 109.637 15.5338 110.981 16.5215 111.919C17.5092 112.856 18.933 113.324 20.7966 113.324C22.6602 113.324 24.0588 112.856 25.0393 111.919C26.0197 110.981 26.5172 109.63 26.5172 107.871V98.5635H23.5686Z" fill="black" fill-opacity="0.2"/>
<path d="M23.5686 98.5635V107.55C23.5686 108.66 23.3487 109.471 22.9017 109.983C22.4547 110.495 21.7518 110.736 20.775 110.736C19.7981 110.736 19.1168 110.484 18.6771 109.976C18.2373 109.468 18.0174 108.656 18.0174 107.55V98.5635H15.0364V107.871C15.0364 109.637 15.5338 110.981 16.5215 111.919C17.5092 112.856 18.933 113.324 20.7966 113.324C22.6602 113.324 24.0588 112.856 25.0393 111.919C26.0197 110.981 26.5172 109.63 26.5172 107.871V98.5635H23.5686Z" fill="black" fill-opacity="0.2"/>
<path d="M39.9303 100.387C38.8489 99.2003 37.2112 98.608 35.0172 98.6104H29.4011V112.932H34.2169C35.2443 112.963 36.2715 112.864 37.2737 112.636C37.9814 112.447 38.6428 112.115 39.2166 111.659C39.9969 111.022 40.595 110.19 40.9504 109.248C41.3706 108.142 41.5738 106.966 41.5488 105.784C41.5488 103.371 41.0093 101.572 39.9303 100.387ZM37.6233 109.273C37.0153 109.994 36.0241 110.354 34.6495 110.354H32.2921V101.108H35.0172C36.2283 101.108 37.1151 101.487 37.6882 102.24C38.2613 102.994 38.5425 104.172 38.5425 105.769C38.5425 107.366 38.2397 108.548 37.6233 109.266V109.273Z" fill="#1C1C1C"/>
<path d="M39.9303 100.387C38.8489 99.2003 37.2112 98.608 35.0172 98.6104H29.4011V112.932H34.2169C35.2443 112.963 36.2715 112.864 37.2737 112.636C37.9814 112.447 38.6428 112.115 39.2166 111.659C39.9969 111.022 40.595 110.19 40.9504 109.248C41.3706 108.142 41.5738 106.966 41.5488 105.784C41.5488 103.371 41.0093 101.572 39.9303 100.387ZM37.6233 109.273C37.0153 109.994 36.0241 110.354 34.6495 110.354H32.2921V101.108H35.0172C36.2283 101.108 37.1151 101.487 37.6882 102.24C38.2613 102.994 38.5425 104.172 38.5425 105.769C38.5425 107.366 38.2397 108.548 37.6233 109.266V109.273Z" fill="black" fill-opacity="0.2"/>
<path d="M39.9303 100.387C38.8489 99.2003 37.2112 98.608 35.0172 98.6104H29.4011V112.932H34.2169C35.2443 112.963 36.2715 112.864 37.2737 112.636C37.9814 112.447 38.6428 112.115 39.2166 111.659C39.9969 111.022 40.595 110.19 40.9504 109.248C41.3706 108.142 41.5738 106.966 41.5488 105.784C41.5488 103.371 41.0093 101.572 39.9303 100.387ZM37.6233 109.273C37.0153 109.994 36.0241 110.354 34.6495 110.354H32.2921V101.108H35.0172C36.2283 101.108 37.1151 101.487 37.6882 102.24C38.2613 102.994 38.5425 104.172 38.5425 105.769C38.5425 107.366 38.2397 108.548 37.6233 109.266V109.273Z" fill="black" fill-opacity="0.2"/>
<path d="M43.9707 98.6035V112.925H46.9157V98.6035H43.9707Z" fill="#1C1C1C"/>
<path d="M43.9707 98.6035V112.925H46.9157V98.6035H43.9707Z" fill="black" fill-opacity="0.2"/>
<path d="M43.9707 98.6035V112.925H46.9157V98.6035H43.9707Z" fill="black" fill-opacity="0.2"/>
<path d="M48.7146 98.6035V101.163H52.9825V112.925H55.9311V101.163H60.1485V98.6035H48.7146Z" fill="#1C1C1C"/>
<path d="M48.7146 98.6035V101.163H52.9825V112.925H55.9311V101.163H60.1485V98.6035H48.7146Z" fill="black" fill-opacity="0.2"/>
<path d="M48.7146 98.6035V101.163H52.9825V112.925H55.9311V101.163H60.1485V98.6035H48.7146Z" fill="black" fill-opacity="0.2"/>
<path d="M78.046 106.707C77.7398 106.162 77.2848 105.714 76.7339 105.417C76.3686 105.219 75.9861 105.053 75.5913 104.923C75.1551 104.779 74.4126 104.563 73.3708 104.299L72.3399 104.062C70.7106 103.683 69.8923 103.117 69.8923 102.357C69.8817 102.106 69.9339 101.858 70.044 101.633C70.1542 101.408 70.3189 101.214 70.5231 101.07C71.061 100.732 71.6918 100.573 72.3255 100.616C73.0516 100.571 73.7726 100.763 74.3801 101.163C74.6219 101.351 74.8186 101.591 74.9558 101.865C75.093 102.139 75.1672 102.44 75.1731 102.746H78.0028C77.9523 101.304 77.4561 100.189 76.5141 99.4007C75.5721 98.6125 74.2576 98.2208 72.5706 98.2256C70.7683 98.2256 69.4165 98.5861 68.4685 99.3359C67.5205 100.086 67.0266 101.138 67.0266 102.544C67.01 103.212 67.1481 103.874 67.4304 104.48C67.6809 105.019 68.083 105.474 68.5874 105.788C69.4807 106.27 70.446 106.603 71.4459 106.776C71.5793 106.805 71.6802 106.826 71.7415 106.844L71.8316 106.862C74.326 107.428 75.5768 108.153 75.5768 109.025C75.5918 109.287 75.5398 109.549 75.4256 109.785C75.3115 110.022 75.139 110.225 74.9244 110.377C74.3428 110.725 73.6684 110.886 72.9923 110.838C72.1825 110.891 71.3764 110.69 70.6853 110.265C70.4111 110.06 70.1838 109.798 70.0185 109.498C69.8532 109.198 69.7537 108.866 69.7265 108.524H66.814C66.8969 110.063 67.4412 111.253 68.4685 112.089C69.4958 112.925 70.9052 113.344 72.7112 113.344C74.5171 113.344 75.9553 112.936 76.961 112.114C77.9667 111.292 78.4642 110.139 78.4642 108.65C78.492 107.978 78.3481 107.309 78.046 106.707Z" fill="#1C1C1C"/>
<path d="M78.046 106.707C77.7398 106.162 77.2848 105.714 76.7339 105.417C76.3686 105.219 75.9861 105.053 75.5913 104.923C75.1551 104.779 74.4126 104.563 73.3708 104.299L72.3399 104.062C70.7106 103.683 69.8923 103.117 69.8923 102.357C69.8817 102.106 69.9339 101.858 70.044 101.633C70.1542 101.408 70.3189 101.214 70.5231 101.07C71.061 100.732 71.6918 100.573 72.3255 100.616C73.0516 100.571 73.7726 100.763 74.3801 101.163C74.6219 101.351 74.8186 101.591 74.9558 101.865C75.093 102.139 75.1672 102.44 75.1731 102.746H78.0028C77.9523 101.304 77.4561 100.189 76.5141 99.4007C75.5721 98.6125 74.2576 98.2208 72.5706 98.2256C70.7683 98.2256 69.4165 98.5861 68.4685 99.3359C67.5205 100.086 67.0266 101.138 67.0266 102.544C67.01 103.212 67.1481 103.874 67.4304 104.48C67.6809 105.019 68.083 105.474 68.5874 105.788C69.4807 106.27 70.446 106.603 71.4459 106.776C71.5793 106.805 71.6802 106.826 71.7415 106.844L71.8316 106.862C74.326 107.428 75.5768 108.153 75.5768 109.025C75.5918 109.287 75.5398 109.549 75.4256 109.785C75.3115 110.022 75.139 110.225 74.9244 110.377C74.3428 110.725 73.6684 110.886 72.9923 110.838C72.1825 110.891 71.3764 110.69 70.6853 110.265C70.4111 110.06 70.1838 109.798 70.0185 109.498C69.8532 109.198 69.7537 108.866 69.7265 108.524H66.814C66.8969 110.063 67.4412 111.253 68.4685 112.089C69.4958 112.925 70.9052 113.344 72.7112 113.344C74.5171 113.344 75.9553 112.936 76.961 112.114C77.9667 111.292 78.4642 110.139 78.4642 108.65C78.492 107.978 78.3481 107.309 78.046 106.707Z" fill="black" fill-opacity="0.2"/>
<path d="M78.046 106.707C77.7398 106.162 77.2848 105.714 76.7339 105.417C76.3686 105.219 75.9861 105.053 75.5913 104.923C75.1551 104.779 74.4126 104.563 73.3708 104.299L72.3399 104.062C70.7106 103.683 69.8923 103.117 69.8923 102.357C69.8817 102.106 69.9339 101.858 70.044 101.633C70.1542 101.408 70.3189 101.214 70.5231 101.07C71.061 100.732 71.6918 100.573 72.3255 100.616C73.0516 100.571 73.7726 100.763 74.3801 101.163C74.6219 101.351 74.8186 101.591 74.9558 101.865C75.093 102.139 75.1672 102.44 75.1731 102.746H78.0028C77.9523 101.304 77.4561 100.189 76.5141 99.4007C75.5721 98.6125 74.2576 98.2208 72.5706 98.2256C70.7683 98.2256 69.4165 98.5861 68.4685 99.3359C67.5205 100.086 67.0266 101.138 67.0266 102.544C67.01 103.212 67.1481 103.874 67.4304 104.48C67.6809 105.019 68.083 105.474 68.5874 105.788C69.4807 106.27 70.446 106.603 71.4459 106.776C71.5793 106.805 71.6802 106.826 71.7415 106.844L71.8316 106.862C74.326 107.428 75.5768 108.153 75.5768 109.025C75.5918 109.287 75.5398 109.549 75.4256 109.785C75.3115 110.022 75.139 110.225 74.9244 110.377C74.3428 110.725 73.6684 110.886 72.9923 110.838C72.1825 110.891 71.3764 110.69 70.6853 110.265C70.4111 110.06 70.1838 109.798 70.0185 109.498C69.8532 109.198 69.7537 108.866 69.7265 108.524H66.814C66.8969 110.063 67.4412 111.253 68.4685 112.089C69.4958 112.925 70.9052 113.344 72.7112 113.344C74.5171 113.344 75.9553 112.936 76.961 112.114C77.9667 111.292 78.4642 110.139 78.4642 108.65C78.492 107.978 78.3481 107.309 78.046 106.707Z" fill="black" fill-opacity="0.2"/>
<path d="M79.4951 98.6035V101.163H83.745V112.925H86.69V101.163H90.911V98.6035H79.4951Z" fill="#1C1C1C"/>
<path d="M79.4951 98.6035V101.163H83.745V112.925H86.69V101.163H90.911V98.6035H79.4951Z" fill="black" fill-opacity="0.2"/>
<path d="M79.4951 98.6035V101.163H83.745V112.925H86.69V101.163H90.911V98.6035H79.4951Z" fill="black" fill-opacity="0.2"/>
<path d="M98.9244 98.6035H95.5181L90.4175 112.925H93.5175L94.4691 109.983H100.02L100.986 112.925H104.079L98.9244 98.6035ZM95.2477 107.568L97.2339 101.469L99.2272 107.568H95.2477Z" fill="#1C1C1C"/>
<path d="M98.9244 98.6035H95.5181L90.4175 112.925H93.5175L94.4691 109.983H100.02L100.986 112.925H104.079L98.9244 98.6035ZM95.2477 107.568L97.2339 101.469L99.2272 107.568H95.2477Z" fill="black" fill-opacity="0.2"/>
<path d="M98.9244 98.6035H95.5181L90.4175 112.925H93.5175L94.4691 109.983H100.02L100.986 112.925H104.079L98.9244 98.6035ZM95.2477 107.568L97.2339 101.469L99.2272 107.568H95.2477Z" fill="black" fill-opacity="0.2"/>
<path d="M103.57 98.6035V101.163H107.82V112.925H110.769V101.163H114.983V98.6035H103.57Z" fill="#1C1C1C"/>
<path d="M103.57 98.6035V101.163H107.82V112.925H110.769V101.163H114.983V98.6035H103.57Z" fill="black" fill-opacity="0.2"/>
<path d="M103.57 98.6035V101.163H107.82V112.925H110.769V101.163H114.983V98.6035H103.57Z" fill="black" fill-opacity="0.2"/>
<path d="M116.785 98.6035V112.925H119.726V98.6035H116.785Z" fill="#1C1C1C"/>
<path d="M116.785 98.6035V112.925H119.726V98.6035H116.785Z" fill="black" fill-opacity="0.2"/>
<path d="M116.785 98.6035V112.925H119.726V98.6035H116.785Z" fill="black" fill-opacity="0.2"/>
<path d="M134.289 100.277C133.025 98.9093 131.321 98.2256 129.177 98.2256C127.034 98.2256 125.334 98.9045 124.077 100.262C122.82 101.627 122.192 103.472 122.192 105.795C122.192 108.11 122.826 109.937 124.084 111.303C125.342 112.669 127.047 113.343 129.185 113.343C131.322 113.343 133.031 112.666 134.296 111.303C135.561 109.941 136.199 108.11 136.199 105.795C136.199 103.481 135.558 101.632 134.289 100.277ZM132.144 109.447C131.771 109.859 131.315 110.189 130.807 110.414C130.298 110.64 129.748 110.756 129.192 110.756C128.636 110.756 128.086 110.64 127.577 110.414C127.069 110.189 126.613 109.859 126.24 109.447C125.544 108.582 125.191 107.356 125.191 105.777C125.191 104.198 125.551 102.973 126.24 102.104C126.613 101.692 127.069 101.362 127.577 101.137C128.086 100.911 128.636 100.795 129.192 100.795C129.748 100.795 130.298 100.911 130.807 101.137C131.315 101.362 131.771 101.692 132.144 102.104C132.865 102.973 133.207 104.198 133.207 105.77C133.207 107.342 132.854 108.582 132.144 109.447Z" fill="#1C1C1C"/>
<path d="M134.289 100.277C133.025 98.9093 131.321 98.2256 129.177 98.2256C127.034 98.2256 125.334 98.9045 124.077 100.262C122.82 101.627 122.192 103.472 122.192 105.795C122.192 108.11 122.826 109.937 124.084 111.303C125.342 112.669 127.047 113.343 129.185 113.343C131.322 113.343 133.031 112.666 134.296 111.303C135.561 109.941 136.199 108.11 136.199 105.795C136.199 103.481 135.558 101.632 134.289 100.277ZM132.144 109.447C131.771 109.859 131.315 110.189 130.807 110.414C130.298 110.64 129.748 110.756 129.192 110.756C128.636 110.756 128.086 110.64 127.577 110.414C127.069 110.189 126.613 109.859 126.24 109.447C125.544 108.582 125.191 107.356 125.191 105.777C125.191 104.198 125.551 102.973 126.24 102.104C126.613 101.692 127.069 101.362 127.577 101.137C128.086 100.911 128.636 100.795 129.192 100.795C129.748 100.795 130.298 100.911 130.807 101.137C131.315 101.362 131.771 101.692 132.144 102.104C132.865 102.973 133.207 104.198 133.207 105.77C133.207 107.342 132.854 108.582 132.144 109.447Z" fill="black" fill-opacity="0.2"/>
<path d="M134.289 100.277C133.025 98.9093 131.321 98.2256 129.177 98.2256C127.034 98.2256 125.334 98.9045 124.077 100.262C122.82 101.627 122.192 103.472 122.192 105.795C122.192 108.11 122.826 109.937 124.084 111.303C125.342 112.669 127.047 113.343 129.185 113.343C131.322 113.343 133.031 112.666 134.296 111.303C135.561 109.941 136.199 108.11 136.199 105.795C136.199 103.481 135.558 101.632 134.289 100.277ZM132.144 109.447C131.771 109.859 131.315 110.189 130.807 110.414C130.298 110.64 129.748 110.756 129.192 110.756C128.636 110.756 128.086 110.64 127.577 110.414C127.069 110.189 126.613 109.859 126.24 109.447C125.544 108.582 125.191 107.356 125.191 105.777C125.191 104.198 125.551 102.973 126.24 102.104C126.613 101.692 127.069 101.362 127.577 101.137C128.086 100.911 128.636 100.795 129.192 100.795C129.748 100.795 130.298 100.911 130.807 101.137C131.315 101.362 131.771 101.692 132.144 102.104C132.865 102.973 133.207 104.198 133.207 105.77C133.207 107.342 132.854 108.582 132.144 109.447Z" fill="black" fill-opacity="0.2"/>
<path d="M147.425 98.6035V108.441L141.61 98.6035H138.528V112.925H141.441V103.084L147.291 112.925H150.334V98.6035H147.425Z" fill="#1C1C1C"/>
<path d="M147.425 98.6035V108.441L141.61 98.6035H138.528V112.925H141.441V103.084L147.291 112.925H150.334V98.6035H147.425Z" fill="black" fill-opacity="0.2"/>
<path d="M147.425 98.6035V108.441L141.61 98.6035H138.528V112.925H141.441V103.084L147.291 112.925H150.334V98.6035H147.425Z" fill="black" fill-opacity="0.2"/>
<path d="M10.5239 74.8203C10.155 74.8196 9.79424 74.9284 9.48722 75.1329C9.18021 75.3374 8.94078 75.6284 8.79929 75.9691C8.65779 76.3098 8.62058 76.6848 8.69237 77.0466C8.76416 77.4084 8.94173 77.7408 9.20258 78.0017C9.46342 78.2625 9.79581 78.4401 10.1576 78.5119C10.5195 78.5837 10.8945 78.5465 11.2352 78.405C11.5758 78.2635 11.8669 78.024 12.0714 77.717C12.2759 77.41 12.3846 77.0492 12.3839 76.6803C12.383 76.1873 12.1867 75.7148 11.8381 75.3661C11.4895 75.0175 11.0169 74.8213 10.5239 74.8203ZM15.8228 74.8203C15.3309 74.825 14.8605 75.0225 14.5127 75.3703C14.1649 75.7181 13.9675 76.1885 13.9628 76.6803C13.9693 77.1719 14.1672 77.6416 14.5145 77.9896C14.8618 78.3376 15.3312 78.5364 15.8228 78.5439C16.3024 78.5228 16.7553 78.3174 17.0872 77.9706C17.4192 77.6237 17.6044 77.1622 17.6044 76.6821C17.6044 76.202 17.4192 75.7405 17.0872 75.3936C16.7553 75.0468 16.3024 74.8414 15.8228 74.8203Z" fill="#1C1C1C"/>
<path d="M10.5239 74.8203C10.155 74.8196 9.79424 74.9284 9.48722 75.1329C9.18021 75.3374 8.94078 75.6284 8.79929 75.9691C8.65779 76.3098 8.62058 76.6848 8.69237 77.0466C8.76416 77.4084 8.94173 77.7408 9.20258 78.0017C9.46342 78.2625 9.79581 78.4401 10.1576 78.5119C10.5195 78.5837 10.8945 78.5465 11.2352 78.405C11.5758 78.2635 11.8669 78.024 12.0714 77.717C12.2759 77.41 12.3846 77.0492 12.3839 76.6803C12.383 76.1873 12.1867 75.7148 11.8381 75.3661C11.4895 75.0175 11.0169 74.8213 10.5239 74.8203ZM15.8228 74.8203C15.3309 74.825 14.8605 75.0225 14.5127 75.3703C14.1649 75.7181 13.9675 76.1885 13.9628 76.6803C13.9693 77.1719 14.1672 77.6416 14.5145 77.9896C14.8618 78.3376 15.3312 78.5364 15.8228 78.5439C16.3024 78.5228 16.7553 78.3174 17.0872 77.9706C17.4192 77.6237 17.6044 77.1622 17.6044 76.6821C17.6044 76.202 17.4192 75.7405 17.0872 75.3936C16.7553 75.0468 16.3024 74.8414 15.8228 74.8203Z" fill="black" fill-opacity="0.2"/>
<path d="M10.5239 74.8203C10.155 74.8196 9.79424 74.9284 9.48722 75.1329C9.18021 75.3374 8.94078 75.6284 8.79929 75.9691C8.65779 76.3098 8.62058 76.6848 8.69237 77.0466C8.76416 77.4084 8.94173 77.7408 9.20258 78.0017C9.46342 78.2625 9.79581 78.4401 10.1576 78.5119C10.5195 78.5837 10.8945 78.5465 11.2352 78.405C11.5758 78.2635 11.8669 78.024 12.0714 77.717C12.2759 77.41 12.3846 77.0492 12.3839 76.6803C12.383 76.1873 12.1867 75.7148 11.8381 75.3661C11.4895 75.0175 11.0169 74.8213 10.5239 74.8203ZM15.8228 74.8203C15.3309 74.825 14.8605 75.0225 14.5127 75.3703C14.1649 75.7181 13.9675 76.1885 13.9628 76.6803C13.9693 77.1719 14.1672 77.6416 14.5145 77.9896C14.8618 78.3376 15.3312 78.5364 15.8228 78.5439C16.3024 78.5228 16.7553 78.3174 17.0872 77.9706C17.4192 77.6237 17.6044 77.1622 17.6044 76.6821C17.6044 76.202 17.4192 75.7405 17.0872 75.3936C16.7553 75.0468 16.3024 74.8414 15.8228 74.8203Z" fill="black" fill-opacity="0.2"/>
<path d="M20.649 91.833C20.2823 91.8344 19.9242 91.9444 19.62 92.1491C19.3157 92.3538 19.0789 92.644 18.9394 92.9831C18.7999 93.3223 18.7639 93.6951 18.8361 94.0546C18.9082 94.4142 19.0853 94.7443 19.3448 95.0033C19.6043 95.2624 19.9348 95.4387 20.2945 95.5102C20.6541 95.5817 21.0269 95.545 21.3658 95.4048C21.7046 95.2647 21.9944 95.0273 22.1985 94.7226C22.4026 94.418 22.5119 94.0597 22.5126 93.693C22.5116 93.1994 22.3149 92.7263 21.9655 92.3776C21.6161 92.0289 21.1426 91.833 20.649 91.833ZM27.2779 92.3737C26.9259 92.0299 26.4543 91.836 25.9622 91.833C25.5952 91.833 25.2365 91.9418 24.9312 92.1456C24.626 92.3494 24.3881 92.6392 24.2475 92.9782C24.1069 93.3172 24.0699 93.6902 24.1412 94.0502C24.2126 94.4103 24.389 94.741 24.6483 95.0008C24.9075 95.2606 25.238 95.4376 25.5979 95.5097C25.9577 95.5817 26.3309 95.5455 26.6701 95.4055C27.0094 95.2656 27.2996 95.0282 27.504 94.7234C27.7084 94.4186 27.8179 94.06 27.8186 93.693C27.8161 93.1998 27.6223 92.7268 27.2779 92.3737Z" fill="#1C1C1C"/>
<path d="M20.649 91.833C20.2823 91.8344 19.9242 91.9444 19.62 92.1491C19.3157 92.3538 19.0789 92.644 18.9394 92.9831C18.7999 93.3223 18.7639 93.6951 18.8361 94.0546C18.9082 94.4142 19.0853 94.7443 19.3448 95.0033C19.6043 95.2624 19.9348 95.4387 20.2945 95.5102C20.6541 95.5817 21.0269 95.545 21.3658 95.4048C21.7046 95.2647 21.9944 95.0273 22.1985 94.7226C22.4026 94.418 22.5119 94.0597 22.5126 93.693C22.5116 93.1994 22.3149 92.7263 21.9655 92.3776C21.6161 92.0289 21.1426 91.833 20.649 91.833ZM27.2779 92.3737C26.9259 92.0299 26.4543 91.836 25.9622 91.833C25.5952 91.833 25.2365 91.9418 24.9312 92.1456C24.626 92.3494 24.3881 92.6392 24.2475 92.9782C24.1069 93.3172 24.0699 93.6902 24.1412 94.0502C24.2126 94.4103 24.389 94.741 24.6483 95.0008C24.9075 95.2606 25.238 95.4376 25.5979 95.5097C25.9577 95.5817 26.3309 95.5455 26.6701 95.4055C27.0094 95.2656 27.2996 95.0282 27.504 94.7234C27.7084 94.4186 27.8179 94.06 27.8186 93.693C27.8161 93.1998 27.6223 92.7268 27.2779 92.3737Z" fill="black" fill-opacity="0.2"/>
<path d="M20.649 91.833C20.2823 91.8344 19.9242 91.9444 19.62 92.1491C19.3157 92.3538 19.0789 92.644 18.9394 92.9831C18.7999 93.3223 18.7639 93.6951 18.8361 94.0546C18.9082 94.4142 19.0853 94.7443 19.3448 95.0033C19.6043 95.2624 19.9348 95.4387 20.2945 95.5102C20.6541 95.5817 21.0269 95.545 21.3658 95.4048C21.7046 95.2647 21.9944 95.0273 22.1985 94.7226C22.4026 94.418 22.5119 94.0597 22.5126 93.693C22.5116 93.1994 22.3149 92.7263 21.9655 92.3776C21.6161 92.0289 21.1426 91.833 20.649 91.833ZM27.2779 92.3737C26.9259 92.0299 26.4543 91.836 25.9622 91.833C25.5952 91.833 25.2365 91.9418 24.9312 92.1456C24.626 92.3494 24.3881 92.6392 24.2475 92.9782C24.1069 93.3172 24.0699 93.6902 24.1412 94.0502C24.2126 94.4103 24.389 94.741 24.6483 95.0008C24.9075 95.2606 25.238 95.4376 25.5979 95.5097C25.9577 95.5817 26.3309 95.5455 26.6701 95.4055C27.0094 95.2656 27.2996 95.0282 27.504 94.7234C27.7084 94.4186 27.8179 94.06 27.8186 93.693C27.8161 93.1998 27.6223 92.7268 27.2779 92.3737Z" fill="black" fill-opacity="0.2"/>
<path d="M34.3284 74.7961C33.9614 74.7976 33.6031 74.9077 33.2987 75.1127C32.9943 75.3177 32.7574 75.6084 32.6182 75.9479C32.4789 76.2875 32.4433 76.6607 32.5161 77.0204C32.5888 77.3801 32.7665 77.7102 33.0268 77.969C33.2871 78.2277 33.6182 78.4035 33.9783 78.4742C34.3385 78.5448 34.7115 78.5071 35.0502 78.3659C35.3889 78.2246 35.6782 77.9861 35.8814 77.6805C36.0846 77.3749 36.1927 77.0159 36.192 76.6489C36.1945 76.404 36.1478 76.1611 36.0549 75.9345C35.962 75.7079 35.8246 75.5022 35.6509 75.3295C35.4773 75.1568 35.2708 75.0207 35.0436 74.9291C34.8165 74.8375 34.5733 74.7923 34.3284 74.7961ZM39.6453 74.7961C39.278 74.7961 38.9189 74.9051 38.6135 75.1092C38.3082 75.3134 38.0702 75.6035 37.9298 75.9429C37.7894 76.2824 37.7529 76.6558 37.8248 77.016C37.8967 77.3762 38.0739 77.707 38.3339 77.9665C38.5939 78.2259 38.925 78.4025 39.2853 78.4737C39.6457 78.5449 40.019 78.5076 40.3582 78.3666C40.6973 78.2255 40.987 77.987 41.1906 77.6812C41.3941 77.3755 41.5024 77.0162 41.5017 76.6489C41.5021 76.4052 41.4544 76.1637 41.3612 75.9385C41.2681 75.7132 41.1313 75.5086 40.9588 75.3365C40.7863 75.1643 40.5814 75.0279 40.356 74.9352C40.1305 74.8424 39.889 74.7952 39.6453 74.7961Z" fill="#1C1C1C"/>
<path d="M34.3284 74.7961C33.9614 74.7976 33.6031 74.9077 33.2987 75.1127C32.9943 75.3177 32.7574 75.6084 32.6182 75.9479C32.4789 76.2875 32.4433 76.6607 32.5161 77.0204C32.5888 77.3801 32.7665 77.7102 33.0268 77.969C33.2871 78.2277 33.6182 78.4035 33.9783 78.4742C34.3385 78.5448 34.7115 78.5071 35.0502 78.3659C35.3889 78.2246 35.6782 77.9861 35.8814 77.6805C36.0846 77.3749 36.1927 77.0159 36.192 76.6489C36.1945 76.404 36.1478 76.1611 36.0549 75.9345C35.962 75.7079 35.8246 75.5022 35.6509 75.3295C35.4773 75.1568 35.2708 75.0207 35.0436 74.9291C34.8165 74.8375 34.5733 74.7923 34.3284 74.7961ZM39.6453 74.7961C39.278 74.7961 38.9189 74.9051 38.6135 75.1092C38.3082 75.3134 38.0702 75.6035 37.9298 75.9429C37.7894 76.2824 37.7529 76.6558 37.8248 77.016C37.8967 77.3762 38.0739 77.707 38.3339 77.9665C38.5939 78.2259 38.925 78.4025 39.2853 78.4737C39.6457 78.5449 40.019 78.5076 40.3582 78.3666C40.6973 78.2255 40.987 77.987 41.1906 77.6812C41.3941 77.3755 41.5024 77.0162 41.5017 76.6489C41.5021 76.4052 41.4544 76.1637 41.3612 75.9385C41.2681 75.7132 41.1313 75.5086 40.9588 75.3365C40.7863 75.1643 40.5814 75.0279 40.356 74.9352C40.1305 74.8424 39.889 74.7952 39.6453 74.7961Z" fill="black" fill-opacity="0.2"/>
<path d="M34.3284 74.7961C33.9614 74.7976 33.6031 74.9077 33.2987 75.1127C32.9943 75.3177 32.7574 75.6084 32.6182 75.9479C32.4789 76.2875 32.4433 76.6607 32.5161 77.0204C32.5888 77.3801 32.7665 77.7102 33.0268 77.969C33.2871 78.2277 33.6182 78.4035 33.9783 78.4742C34.3385 78.5448 34.7115 78.5071 35.0502 78.3659C35.3889 78.2246 35.6782 77.9861 35.8814 77.6805C36.0846 77.3749 36.1927 77.0159 36.192 76.6489C36.1945 76.404 36.1478 76.1611 36.0549 75.9345C35.962 75.7079 35.8246 75.5022 35.6509 75.3295C35.4773 75.1568 35.2708 75.0207 35.0436 74.9291C34.8165 74.8375 34.5733 74.7923 34.3284 74.7961ZM39.6453 74.7961C39.278 74.7961 38.9189 74.9051 38.6135 75.1092C38.3082 75.3134 38.0702 75.6035 37.9298 75.9429C37.7894 76.2824 37.7529 76.6558 37.8248 77.016C37.8967 77.3762 38.0739 77.707 38.3339 77.9665C38.5939 78.2259 38.925 78.4025 39.2853 78.4737C39.6457 78.5449 40.019 78.5076 40.3582 78.3666C40.6973 78.2255 40.987 77.987 41.1906 77.6812C41.3941 77.3755 41.5024 77.0162 41.5017 76.6489C41.5021 76.4052 41.4544 76.1637 41.3612 75.9385C41.2681 75.7132 41.1313 75.5086 40.9588 75.3365C40.7863 75.1643 40.5814 75.0279 40.356 74.9352C40.1305 74.8424 39.889 74.7952 39.6453 74.7961Z" fill="black" fill-opacity="0.2"/>
<path d="M36.9892 79.9391C35.6001 79.943 34.2692 80.4977 33.2886 81.4817C32.3081 82.4656 31.7579 83.7984 31.7588 85.1875V86.6906H27.1882V81.8316C27.0776 80.6925 26.46 80.0641 25.3354 79.9464C24.1855 80.0653 23.5691 80.6925 23.4718 81.8316V86.6906H18.4253V85.2488C18.4626 84.5393 18.355 83.8297 18.1092 83.1631C17.8633 82.4965 17.4844 81.887 16.9953 81.3716C16.5063 80.8562 15.9175 80.4458 15.2648 80.1653C14.612 79.8849 13.909 79.7402 13.1985 79.7402C12.4881 79.7402 11.7851 79.8849 11.1323 80.1653C10.4796 80.4458 9.89075 80.8562 9.40174 81.3716C8.91273 81.887 8.53376 82.4965 8.28793 83.1631C8.04209 83.8297 7.93454 84.5393 7.97182 85.2488V88.6047C8.06914 89.7438 8.69274 90.371 9.83541 90.4647H14.7017C14.6044 91.2974 14.1141 91.7552 13.2346 91.8489H6.02531C5.14938 91.7552 4.65915 91.2974 4.55101 90.4647C4.553 90.4275 4.553 90.3902 4.55101 90.353V85.5588C4.55101 85.4651 4.52577 85.375 4.51856 85.2956C4.33473 84.326 3.73276 83.7925 2.68741 83.6988C1.55195 83.7925 0.921133 84.4197 0.827413 85.5588V90.3241C0.82358 91.7081 1.36921 93.0371 2.34448 94.0191C3.31975 95.0011 4.6449 95.5559 6.02891 95.5617H13.2382C14.6055 95.5543 15.9156 95.0118 16.8878 94.0504C17.86 93.0889 18.4171 91.785 18.4397 90.4178H40.3667C40.8482 90.4192 41.3115 90.2342 41.6595 89.9016C42.0076 89.569 42.2134 89.1146 42.2339 88.6336C42.2415 88.6089 42.2415 88.5825 42.2339 88.5578V85.1875C42.2217 83.8 41.6653 82.4726 40.6845 81.4911C39.7036 80.5096 38.3767 79.9523 36.9892 79.9391ZM14.6728 86.6906H11.6918V85.2127C11.6904 85.0174 11.7275 84.8237 11.801 84.6428C11.8746 84.4618 11.9831 84.2971 12.1204 84.1582C12.2577 84.0192 12.421 83.9087 12.6011 83.833C12.7811 83.7572 12.9744 83.7178 13.1697 83.7168C13.5657 83.7215 13.9442 83.8803 14.2249 84.1597C14.5056 84.439 14.6663 84.8168 14.6728 85.2127V86.6906ZM38.4923 86.6906H35.5077V85.2019C35.5762 84.2972 36.0664 83.7997 36.9892 83.6988C37.385 83.708 37.762 83.8693 38.0419 84.1492C38.3218 84.4291 38.4831 84.8061 38.4923 85.2019V86.6906Z" fill="#1C1C1C"/>
<path d="M36.9892 79.9391C35.6001 79.943 34.2692 80.4977 33.2886 81.4817C32.3081 82.4656 31.7579 83.7984 31.7588 85.1875V86.6906H27.1882V81.8316C27.0776 80.6925 26.46 80.0641 25.3354 79.9464C24.1855 80.0653 23.5691 80.6925 23.4718 81.8316V86.6906H18.4253V85.2488C18.4626 84.5393 18.355 83.8297 18.1092 83.1631C17.8633 82.4965 17.4844 81.887 16.9953 81.3716C16.5063 80.8562 15.9175 80.4458 15.2648 80.1653C14.612 79.8849 13.909 79.7402 13.1985 79.7402C12.4881 79.7402 11.7851 79.8849 11.1323 80.1653C10.4796 80.4458 9.89075 80.8562 9.40174 81.3716C8.91273 81.887 8.53376 82.4965 8.28793 83.1631C8.04209 83.8297 7.93454 84.5393 7.97182 85.2488V88.6047C8.06914 89.7438 8.69274 90.371 9.83541 90.4647H14.7017C14.6044 91.2974 14.1141 91.7552 13.2346 91.8489H6.02531C5.14938 91.7552 4.65915 91.2974 4.55101 90.4647C4.553 90.4275 4.553 90.3902 4.55101 90.353V85.5588C4.55101 85.4651 4.52577 85.375 4.51856 85.2956C4.33473 84.326 3.73276 83.7925 2.68741 83.6988C1.55195 83.7925 0.921133 84.4197 0.827413 85.5588V90.3241C0.82358 91.7081 1.36921 93.0371 2.34448 94.0191C3.31975 95.0011 4.6449 95.5559 6.02891 95.5617H13.2382C14.6055 95.5543 15.9156 95.0118 16.8878 94.0504C17.86 93.0889 18.4171 91.785 18.4397 90.4178H40.3667C40.8482 90.4192 41.3115 90.2342 41.6595 89.9016C42.0076 89.569 42.2134 89.1146 42.2339 88.6336C42.2415 88.6089 42.2415 88.5825 42.2339 88.5578V85.1875C42.2217 83.8 41.6653 82.4726 40.6845 81.4911C39.7036 80.5096 38.3767 79.9523 36.9892 79.9391ZM14.6728 86.6906H11.6918V85.2127C11.6904 85.0174 11.7275 84.8237 11.801 84.6428C11.8746 84.4618 11.9831 84.2971 12.1204 84.1582C12.2577 84.0192 12.421 83.9087 12.6011 83.833C12.7811 83.7572 12.9744 83.7178 13.1697 83.7168C13.5657 83.7215 13.9442 83.8803 14.2249 84.1597C14.5056 84.439 14.6663 84.8168 14.6728 85.2127V86.6906ZM38.4923 86.6906H35.5077V85.2019C35.5762 84.2972 36.0664 83.7997 36.9892 83.6988C37.385 83.708 37.762 83.8693 38.0419 84.1492C38.3218 84.4291 38.4831 84.8061 38.4923 85.2019V86.6906Z" fill="black" fill-opacity="0.2"/>
<path d="M36.9892 79.9391C35.6001 79.943 34.2692 80.4977 33.2886 81.4817C32.3081 82.4656 31.7579 83.7984 31.7588 85.1875V86.6906H27.1882V81.8316C27.0776 80.6925 26.46 80.0641 25.3354 79.9464C24.1855 80.0653 23.5691 80.6925 23.4718 81.8316V86.6906H18.4253V85.2488C18.4626 84.5393 18.355 83.8297 18.1092 83.1631C17.8633 82.4965 17.4844 81.887 16.9953 81.3716C16.5063 80.8562 15.9175 80.4458 15.2648 80.1653C14.612 79.8849 13.909 79.7402 13.1985 79.7402C12.4881 79.7402 11.7851 79.8849 11.1323 80.1653C10.4796 80.4458 9.89075 80.8562 9.40174 81.3716C8.91273 81.887 8.53376 82.4965 8.28793 83.1631C8.04209 83.8297 7.93454 84.5393 7.97182 85.2488V88.6047C8.06914 89.7438 8.69274 90.371 9.83541 90.4647H14.7017C14.6044 91.2974 14.1141 91.7552 13.2346 91.8489H6.02531C5.14938 91.7552 4.65915 91.2974 4.55101 90.4647C4.553 90.4275 4.553 90.3902 4.55101 90.353V85.5588C4.55101 85.4651 4.52577 85.375 4.51856 85.2956C4.33473 84.326 3.73276 83.7925 2.68741 83.6988C1.55195 83.7925 0.921133 84.4197 0.827413 85.5588V90.3241C0.82358 91.7081 1.36921 93.0371 2.34448 94.0191C3.31975 95.0011 4.6449 95.5559 6.02891 95.5617H13.2382C14.6055 95.5543 15.9156 95.0118 16.8878 94.0504C17.86 93.0889 18.4171 91.785 18.4397 90.4178H40.3667C40.8482 90.4192 41.3115 90.2342 41.6595 89.9016C42.0076 89.569 42.2134 89.1146 42.2339 88.6336C42.2415 88.6089 42.2415 88.5825 42.2339 88.5578V85.1875C42.2217 83.8 41.6653 82.4726 40.6845 81.4911C39.7036 80.5096 38.3767 79.9523 36.9892 79.9391ZM14.6728 86.6906H11.6918V85.2127C11.6904 85.0174 11.7275 84.8237 11.801 84.6428C11.8746 84.4618 11.9831 84.2971 12.1204 84.1582C12.2577 84.0192 12.421 83.9087 12.6011 83.833C12.7811 83.7572 12.9744 83.7178 13.1697 83.7168C13.5657 83.7215 13.9442 83.8803 14.2249 84.1597C14.5056 84.439 14.6663 84.8168 14.6728 85.2127V86.6906ZM38.4923 86.6906H35.5077V85.2019C35.5762 84.2972 36.0664 83.7997 36.9892 83.6988C37.385 83.708 37.762 83.8693 38.0419 84.1492C38.3218 84.4291 38.4831 84.8061 38.4923 85.2019V86.6906Z" fill="black" fill-opacity="0.2"/>
<path d="M72.6099 76.637V85.1764C72.6097 85.6837 72.5381 86.1885 72.3972 86.6759V86.6903C72.1511 87.4993 71.7105 88.2357 71.1139 88.8351C70.6346 89.3367 70.0584 89.7356 69.4201 90.0077C68.7819 90.2797 68.095 90.4191 67.4012 90.4175H46.2239C45.0812 90.2877 44.4504 89.6641 44.3567 88.5323C44.4504 87.4004 45.0776 86.7732 46.2239 86.6759H52.085V85.1764C52.085 84.9801 52.0463 84.7857 51.9711 84.6044C51.8959 84.4232 51.7856 84.2585 51.6467 84.1199C51.5077 83.9812 51.3428 83.8714 51.1613 83.7966C50.9798 83.7218 50.7854 83.6836 50.5891 83.684H47.7595C46.6204 83.5579 45.9932 82.9307 45.8959 81.806C45.9932 80.667 46.6168 80.0434 47.7595 79.946H50.5891C51.9779 79.946 53.3102 80.4965 54.2939 81.4769C55.2776 82.4572 55.8327 83.7875 55.8375 85.1764V86.6903H60.4082V81.8313C60.5019 80.6922 61.1291 80.065 62.2682 79.946C63.4072 80.065 64.02 80.6922 64.1354 81.8313V86.6903H67.4012C68.2735 86.593 68.7637 86.1388 68.8646 85.3097C68.8694 85.2702 68.8694 85.2303 68.8646 85.1908V76.637C68.8646 76.5577 68.8899 76.4675 68.8971 76.3846C69.0809 75.4042 69.6829 74.8779 70.7282 74.7842C71.8853 74.8779 72.5162 75.5159 72.6099 76.637Z" fill="#1C1C1C"/>
<path d="M72.6099 76.637V85.1764C72.6097 85.6837 72.5381 86.1885 72.3972 86.6759V86.6903C72.1511 87.4993 71.7105 88.2357 71.1139 88.8351C70.6346 89.3367 70.0584 89.7356 69.4201 90.0077C68.7819 90.2797 68.095 90.4191 67.4012 90.4175H46.2239C45.0812 90.2877 44.4504 89.6641 44.3567 88.5323C44.4504 87.4004 45.0776 86.7732 46.2239 86.6759H52.085V85.1764C52.085 84.9801 52.0463 84.7857 51.9711 84.6044C51.8959 84.4232 51.7856 84.2585 51.6467 84.1199C51.5077 83.9812 51.3428 83.8714 51.1613 83.7966C50.9798 83.7218 50.7854 83.6836 50.5891 83.684H47.7595C46.6204 83.5579 45.9932 82.9307 45.8959 81.806C45.9932 80.667 46.6168 80.0434 47.7595 79.946H50.5891C51.9779 79.946 53.3102 80.4965 54.2939 81.4769C55.2776 82.4572 55.8327 83.7875 55.8375 85.1764V86.6903H60.4082V81.8313C60.5019 80.6922 61.1291 80.065 62.2682 79.946C63.4072 80.065 64.02 80.6922 64.1354 81.8313V86.6903H67.4012C68.2735 86.593 68.7637 86.1388 68.8646 85.3097C68.8694 85.2702 68.8694 85.2303 68.8646 85.1908V76.637C68.8646 76.5577 68.8899 76.4675 68.8971 76.3846C69.0809 75.4042 69.6829 74.8779 70.7282 74.7842C71.8853 74.8779 72.5162 75.5159 72.6099 76.637Z" fill="black" fill-opacity="0.2"/>
<path d="M72.6099 76.637V85.1764C72.6097 85.6837 72.5381 86.1885 72.3972 86.6759V86.6903C72.1511 87.4993 71.7105 88.2357 71.1139 88.8351C70.6346 89.3367 70.0584 89.7356 69.4201 90.0077C68.7819 90.2797 68.095 90.4191 67.4012 90.4175H46.2239C45.0812 90.2877 44.4504 89.6641 44.3567 88.5323C44.4504 87.4004 45.0776 86.7732 46.2239 86.6759H52.085V85.1764C52.085 84.9801 52.0463 84.7857 51.9711 84.6044C51.8959 84.4232 51.7856 84.2585 51.6467 84.1199C51.5077 83.9812 51.3428 83.8714 51.1613 83.7966C50.9798 83.7218 50.7854 83.6836 50.5891 83.684H47.7595C46.6204 83.5579 45.9932 82.9307 45.8959 81.806C45.9932 80.667 46.6168 80.0434 47.7595 79.946H50.5891C51.9779 79.946 53.3102 80.4965 54.2939 81.4769C55.2776 82.4572 55.8327 83.7875 55.8375 85.1764V86.6903H60.4082V81.8313C60.5019 80.6922 61.1291 80.065 62.2682 79.946C63.4072 80.065 64.02 80.6922 64.1354 81.8313V86.6903H67.4012C68.2735 86.593 68.7637 86.1388 68.8646 85.3097C68.8694 85.2702 68.8694 85.2303 68.8646 85.1908V76.637C68.8646 76.5577 68.8899 76.4675 68.8971 76.3846C69.0809 75.4042 69.6829 74.8779 70.7282 74.7842C71.8853 74.8779 72.5162 75.5159 72.6099 76.637Z" fill="black" fill-opacity="0.2"/>
<path d="M62.3111 74.796C61.8188 74.796 61.3466 74.9915 60.9984 75.3397C60.6503 75.6878 60.4547 76.16 60.4547 76.6523C60.4547 77.1447 60.6503 77.6169 60.9984 77.965C61.3466 78.3132 61.8188 78.5087 62.3111 78.5087C62.8035 78.5087 63.2756 78.3132 63.6238 77.965C63.9719 77.6169 64.1675 77.1447 64.1675 76.6523C64.1675 76.16 63.9719 75.6878 63.6238 75.3397C63.2756 74.9915 62.8035 74.796 62.3111 74.796ZM56.9979 74.796C56.6309 74.7974 56.2725 74.9076 55.9681 75.1126C55.6637 75.3176 55.4269 75.6082 55.2876 75.9478C55.1483 76.2873 55.1128 76.6605 55.1855 77.0202C55.2582 77.38 55.436 77.7101 55.6962 77.9688C55.9565 78.2276 56.2876 78.4034 56.6478 78.474C57.0079 78.5447 57.3809 78.507 57.7196 78.3657C58.0584 78.2244 58.3476 77.9859 58.5509 77.6803C58.7541 77.3747 58.8622 77.0158 58.8615 76.6487C58.8619 76.4044 58.814 76.1623 58.7204 75.9366C58.6268 75.7109 58.4893 75.506 58.316 75.3337C58.1428 75.1614 57.937 75.0252 57.7108 74.9329C57.4845 74.8406 57.2422 74.794 56.9979 74.796Z" fill="#1C1C1C"/>
<path d="M62.3111 74.796C61.8188 74.796 61.3466 74.9915 60.9984 75.3397C60.6503 75.6878 60.4547 76.16 60.4547 76.6523C60.4547 77.1447 60.6503 77.6169 60.9984 77.965C61.3466 78.3132 61.8188 78.5087 62.3111 78.5087C62.8035 78.5087 63.2756 78.3132 63.6238 77.965C63.9719 77.6169 64.1675 77.1447 64.1675 76.6523C64.1675 76.16 63.9719 75.6878 63.6238 75.3397C63.2756 74.9915 62.8035 74.796 62.3111 74.796ZM56.9979 74.796C56.6309 74.7974 56.2725 74.9076 55.9681 75.1126C55.6637 75.3176 55.4269 75.6082 55.2876 75.9478C55.1483 76.2873 55.1128 76.6605 55.1855 77.0202C55.2582 77.38 55.436 77.7101 55.6962 77.9688C55.9565 78.2276 56.2876 78.4034 56.6478 78.474C57.0079 78.5447 57.3809 78.507 57.7196 78.3657C58.0584 78.2244 58.3476 77.9859 58.5509 77.6803C58.7541 77.3747 58.8622 77.0158 58.8615 76.6487C58.8619 76.4044 58.814 76.1623 58.7204 75.9366C58.6268 75.7109 58.4893 75.506 58.316 75.3337C58.1428 75.1614 57.937 75.0252 57.7108 74.9329C57.4845 74.8406 57.2422 74.794 56.9979 74.796Z" fill="black" fill-opacity="0.2"/>
<path d="M62.3111 74.796C61.8188 74.796 61.3466 74.9915 60.9984 75.3397C60.6503 75.6878 60.4547 76.16 60.4547 76.6523C60.4547 77.1447 60.6503 77.6169 60.9984 77.965C61.3466 78.3132 61.8188 78.5087 62.3111 78.5087C62.8035 78.5087 63.2756 78.3132 63.6238 77.965C63.9719 77.6169 64.1675 77.1447 64.1675 76.6523C64.1675 76.16 63.9719 75.6878 63.6238 75.3397C63.2756 74.9915 62.8035 74.796 62.3111 74.796ZM56.9979 74.796C56.6309 74.7974 56.2725 74.9076 55.9681 75.1126C55.6637 75.3176 55.4269 75.6082 55.2876 75.9478C55.1483 76.2873 55.1128 76.6605 55.1855 77.0202C55.2582 77.38 55.436 77.7101 55.6962 77.9688C55.9565 78.2276 56.2876 78.4034 56.6478 78.474C57.0079 78.5447 57.3809 78.507 57.7196 78.3657C58.0584 78.2244 58.3476 77.9859 58.5509 77.6803C58.7541 77.3747 58.8622 77.0158 58.8615 76.6487C58.8619 76.4044 58.814 76.1623 58.7204 75.9366C58.6268 75.7109 58.4893 75.506 58.316 75.3337C58.1428 75.1614 57.937 75.0252 57.7108 74.9329C57.4845 74.8406 57.2422 74.794 56.9979 74.796Z" fill="black" fill-opacity="0.2"/>
<path d="M76.597 74.7959C75.4579 74.9149 74.8271 75.5168 74.7334 76.6559V88.5512C74.8271 89.6903 75.4543 90.3175 76.597 90.4112C77.7216 90.3175 78.338 89.6903 78.457 88.5512V76.6559C78.4495 76.1649 78.2512 75.6961 77.904 75.3489C77.5568 75.0017 77.088 74.8033 76.597 74.7959Z" fill="#1C1C1C"/>
<path d="M76.597 74.7959C75.4579 74.9149 74.8271 75.5168 74.7334 76.6559V88.5512C74.8271 89.6903 75.4543 90.3175 76.597 90.4112C77.7216 90.3175 78.338 89.6903 78.457 88.5512V76.6559C78.4495 76.1649 78.2512 75.6961 77.904 75.3489C77.5568 75.0017 77.088 74.8033 76.597 74.7959Z" fill="black" fill-opacity="0.2"/>
<path d="M76.597 74.7959C75.4579 74.9149 74.8271 75.5168 74.7334 76.6559V88.5512C74.8271 89.6903 75.4543 90.3175 76.597 90.4112C77.7216 90.3175 78.338 89.6903 78.457 88.5512V76.6559C78.4495 76.1649 78.2512 75.6961 77.904 75.3489C77.5568 75.0017 77.088 74.8033 76.597 74.7959Z" fill="black" fill-opacity="0.2"/>
<path d="M87.6344 74.7268C87.2874 74.3802 86.8169 74.1857 86.3264 74.186C85.836 74.1864 85.3658 74.3815 85.0192 74.7286C84.6727 75.0756 84.4782 75.5461 84.4785 76.0365C84.4789 76.527 84.674 76.9972 85.021 77.3437C85.1929 77.5153 85.3968 77.6514 85.6212 77.7442C85.8457 77.837 86.0862 77.8846 86.329 77.8845C86.5718 77.8843 86.8123 77.8363 87.0365 77.7432C87.2608 77.6501 87.4646 77.5138 87.6362 77.3419C87.8078 77.1701 87.9439 76.9662 88.0366 76.7417C88.1294 76.5173 88.1771 76.2768 88.1769 76.034C88.1768 75.7911 88.1288 75.5507 88.0357 75.3264C87.9426 75.1021 87.8062 74.8984 87.6344 74.7268ZM93.1531 74.7268C92.9835 74.5451 92.779 74.3995 92.552 74.2985C92.3249 74.1975 92.0798 74.1433 91.8313 74.139C91.5828 74.1346 91.336 74.1803 91.1056 74.2734C90.8751 74.3664 90.6657 74.5048 90.4899 74.6804C90.314 74.8561 90.1753 75.0652 90.0819 75.2956C89.9886 75.5259 89.9426 75.7726 89.9466 76.0211C89.9505 76.2696 90.0044 76.5148 90.1051 76.742C90.2058 76.9692 90.3511 77.1738 90.5325 77.3437C90.7916 77.6022 91.1215 77.7781 91.4805 77.8494C91.8394 77.9206 92.2115 77.8839 92.5496 77.7439C92.8878 77.604 93.1769 77.367 93.3805 77.0629C93.5841 76.7588 93.6932 76.4012 93.6938 76.0353C93.6979 75.7918 93.6521 75.55 93.5591 75.325C93.4661 75.0999 93.3279 74.8963 93.1531 74.7268Z" fill="#1C1C1C"/>
<path d="M87.6344 74.7268C87.2874 74.3802 86.8169 74.1857 86.3264 74.186C85.836 74.1864 85.3658 74.3815 85.0192 74.7286C84.6727 75.0756 84.4782 75.5461 84.4785 76.0365C84.4789 76.527 84.674 76.9972 85.021 77.3437C85.1929 77.5153 85.3968 77.6514 85.6212 77.7442C85.8457 77.837 86.0862 77.8846 86.329 77.8845C86.5718 77.8843 86.8123 77.8363 87.0365 77.7432C87.2608 77.6501 87.4646 77.5138 87.6362 77.3419C87.8078 77.1701 87.9439 76.9662 88.0366 76.7417C88.1294 76.5173 88.1771 76.2768 88.1769 76.034C88.1768 75.7911 88.1288 75.5507 88.0357 75.3264C87.9426 75.1021 87.8062 74.8984 87.6344 74.7268ZM93.1531 74.7268C92.9835 74.5451 92.779 74.3995 92.552 74.2985C92.3249 74.1975 92.0798 74.1433 91.8313 74.139C91.5828 74.1346 91.336 74.1803 91.1056 74.2734C90.8751 74.3664 90.6657 74.5048 90.4899 74.6804C90.314 74.8561 90.1753 75.0652 90.0819 75.2956C89.9886 75.5259 89.9426 75.7726 89.9466 76.0211C89.9505 76.2696 90.0044 76.5148 90.1051 76.742C90.2058 76.9692 90.3511 77.1738 90.5325 77.3437C90.7916 77.6022 91.1215 77.7781 91.4805 77.8494C91.8394 77.9206 92.2115 77.8839 92.5496 77.7439C92.8878 77.604 93.1769 77.367 93.3805 77.0629C93.5841 76.7588 93.6932 76.4012 93.6938 76.0353C93.6979 75.7918 93.6521 75.55 93.5591 75.325C93.4661 75.0999 93.3279 74.8963 93.1531 74.7268Z" fill="black" fill-opacity="0.2"/>
<path d="M87.6344 74.7268C87.2874 74.3802 86.8169 74.1857 86.3264 74.186C85.836 74.1864 85.3658 74.3815 85.0192 74.7286C84.6727 75.0756 84.4782 75.5461 84.4785 76.0365C84.4789 76.527 84.674 76.9972 85.021 77.3437C85.1929 77.5153 85.3968 77.6514 85.6212 77.7442C85.8457 77.837 86.0862 77.8846 86.329 77.8845C86.5718 77.8843 86.8123 77.8363 87.0365 77.7432C87.2608 77.6501 87.4646 77.5138 87.6362 77.3419C87.8078 77.1701 87.9439 76.9662 88.0366 76.7417C88.1294 76.5173 88.1771 76.2768 88.1769 76.034C88.1768 75.7911 88.1288 75.5507 88.0357 75.3264C87.9426 75.1021 87.8062 74.8984 87.6344 74.7268ZM93.1531 74.7268C92.9835 74.5451 92.779 74.3995 92.552 74.2985C92.3249 74.1975 92.0798 74.1433 91.8313 74.139C91.5828 74.1346 91.336 74.1803 91.1056 74.2734C90.8751 74.3664 90.6657 74.5048 90.4899 74.6804C90.314 74.8561 90.1753 75.0652 90.0819 75.2956C89.9886 75.5259 89.9426 75.7726 89.9466 76.0211C89.9505 76.2696 90.0044 76.5148 90.1051 76.742C90.2058 76.9692 90.3511 77.1738 90.5325 77.3437C90.7916 77.6022 91.1215 77.7781 91.4805 77.8494C91.8394 77.9206 92.2115 77.8839 92.5496 77.7439C92.8878 77.604 93.1769 77.367 93.3805 77.0629C93.5841 76.7588 93.6932 76.4012 93.6938 76.0353C93.6979 75.7918 93.6521 75.55 93.5591 75.325C93.4661 75.0999 93.3279 74.8963 93.1531 74.7268Z" fill="black" fill-opacity="0.2"/>
<path d="M145.071 79.9466C144.383 79.9475 143.702 80.0844 143.067 80.3493C142.432 80.6143 141.855 81.0021 141.371 81.4904C140.886 81.9788 140.503 82.5581 140.242 83.1951C139.982 83.832 139.851 84.5141 139.855 85.2022V86.6909H134.376V85.1769C134.377 84.4894 134.243 83.8083 133.98 83.1728C133.718 82.5374 133.332 81.9601 132.846 81.4741C132.359 80.9881 131.782 80.6029 131.146 80.3408C130.511 80.0787 129.829 79.9447 129.142 79.9466H123.735C122.603 80.0439 121.976 80.6675 121.882 81.8066C121.976 82.9312 122.603 83.5584 123.735 83.6846H129.142C129.338 83.6841 129.533 83.7224 129.714 83.7972C129.896 83.8719 130.06 83.9818 130.199 84.1204C130.338 84.259 130.449 84.4237 130.524 84.605C130.599 84.7863 130.638 84.9806 130.638 85.1769V86.6909H116.666V85.0075C116.666 84.2953 116.526 83.5902 116.252 82.9325C115.979 82.2749 115.578 81.6777 115.074 81.1753C114.569 80.6728 113.97 80.2751 113.311 80.0049C112.652 79.7346 111.946 79.5972 111.234 79.6005H104.007V76.0247C103.881 74.8424 103.351 74.363 102.157 74.1611C101.307 74.244 100.741 74.6081 100.478 75.2425L100.434 75.3507C100.361 75.5687 100.315 75.7952 100.298 76.0247V86.6909H96.0981H95.1104V85.0363C95.1195 84.3286 94.9848 83.6263 94.7147 82.972C94.4446 82.3178 94.0445 81.7251 93.5388 81.2298C92.7839 80.473 91.8216 79.9569 90.7735 79.7468C89.7254 79.5367 88.6385 79.642 87.6502 80.0493C86.6619 80.4567 85.8165 81.1478 85.2209 82.0355C84.6252 82.9231 84.3061 83.9674 84.3037 85.0363V88.5653C84.3974 89.3691 84.7254 89.917 85.3094 90.1982C85.5848 90.3241 85.8799 90.4009 86.1817 90.4253H148.427C148.909 90.4268 149.374 90.2421 149.724 89.9098C150.073 89.5774 150.282 89.123 150.305 88.641V85.2094C150.303 83.8192 149.752 82.486 148.771 81.5003C147.791 80.5145 146.461 79.9561 145.071 79.9466ZM91.3832 86.6909H88.0309V85.0111C88.041 84.5688 88.2212 84.1474 88.5341 83.8345C88.8469 83.5216 89.2683 83.3414 89.7107 83.3313C90.7416 83.4467 91.3075 84.0126 91.3832 85.0219V86.6909ZM112.925 86.6692H104.007V83.3205H111.248C112.258 83.3962 112.82 83.9549 112.925 84.9859V86.6692ZM146.567 86.6692H143.578V85.1949C143.576 84.796 143.731 84.4121 144.011 84.1276C144.291 83.8431 144.672 83.6812 145.071 83.6774C145.468 83.6885 145.845 83.8526 146.124 84.1354C146.403 84.4183 146.561 84.7979 146.567 85.1949V86.6692Z" fill="#1C1C1C"/>
<path d="M145.071 79.9466C144.383 79.9475 143.702 80.0844 143.067 80.3493C142.432 80.6143 141.855 81.0021 141.371 81.4904C140.886 81.9788 140.503 82.5581 140.242 83.1951C139.982 83.832 139.851 84.5141 139.855 85.2022V86.6909H134.376V85.1769C134.377 84.4894 134.243 83.8083 133.98 83.1728C133.718 82.5374 133.332 81.9601 132.846 81.4741C132.359 80.9881 131.782 80.6029 131.146 80.3408C130.511 80.0787 129.829 79.9447 129.142 79.9466H123.735C122.603 80.0439 121.976 80.6675 121.882 81.8066C121.976 82.9312 122.603 83.5584 123.735 83.6846H129.142C129.338 83.6841 129.533 83.7224 129.714 83.7972C129.896 83.8719 130.06 83.9818 130.199 84.1204C130.338 84.259 130.449 84.4237 130.524 84.605C130.599 84.7863 130.638 84.9806 130.638 85.1769V86.6909H116.666V85.0075C116.666 84.2953 116.526 83.5902 116.252 82.9325C115.979 82.2749 115.578 81.6777 115.074 81.1753C114.569 80.6728 113.97 80.2751 113.311 80.0049C112.652 79.7346 111.946 79.5972 111.234 79.6005H104.007V76.0247C103.881 74.8424 103.351 74.363 102.157 74.1611C101.307 74.244 100.741 74.6081 100.478 75.2425L100.434 75.3507C100.361 75.5687 100.315 75.7952 100.298 76.0247V86.6909H96.0981H95.1104V85.0363C95.1195 84.3286 94.9848 83.6263 94.7147 82.972C94.4446 82.3178 94.0445 81.7251 93.5388 81.2298C92.7839 80.473 91.8216 79.9569 90.7735 79.7468C89.7254 79.5367 88.6385 79.642 87.6502 80.0493C86.6619 80.4567 85.8165 81.1478 85.2209 82.0355C84.6252 82.9231 84.3061 83.9674 84.3037 85.0363V88.5653C84.3974 89.3691 84.7254 89.917 85.3094 90.1982C85.5848 90.3241 85.8799 90.4009 86.1817 90.4253H148.427C148.909 90.4268 149.374 90.2421 149.724 89.9098C150.073 89.5774 150.282 89.123 150.305 88.641V85.2094C150.303 83.8192 149.752 82.486 148.771 81.5003C147.791 80.5145 146.461 79.9561 145.071 79.9466ZM91.3832 86.6909H88.0309V85.0111C88.041 84.5688 88.2212 84.1474 88.5341 83.8345C88.8469 83.5216 89.2683 83.3414 89.7107 83.3313C90.7416 83.4467 91.3075 84.0126 91.3832 85.0219V86.6909ZM112.925 86.6692H104.007V83.3205H111.248C112.258 83.3962 112.82 83.9549 112.925 84.9859V86.6692ZM146.567 86.6692H143.578V85.1949C143.576 84.796 143.731 84.4121 144.011 84.1276C144.291 83.8431 144.672 83.6812 145.071 83.6774C145.468 83.6885 145.845 83.8526 146.124 84.1354C146.403 84.4183 146.561 84.7979 146.567 85.1949V86.6692Z" fill="black" fill-opacity="0.2"/>
<path d="M145.071 79.9466C144.383 79.9475 143.702 80.0844 143.067 80.3493C142.432 80.6143 141.855 81.0021 141.371 81.4904C140.886 81.9788 140.503 82.5581 140.242 83.1951C139.982 83.832 139.851 84.5141 139.855 85.2022V86.6909H134.376V85.1769C134.377 84.4894 134.243 83.8083 133.98 83.1728C133.718 82.5374 133.332 81.9601 132.846 81.4741C132.359 80.9881 131.782 80.6029 131.146 80.3408C130.511 80.0787 129.829 79.9447 129.142 79.9466H123.735C122.603 80.0439 121.976 80.6675 121.882 81.8066C121.976 82.9312 122.603 83.5584 123.735 83.6846H129.142C129.338 83.6841 129.533 83.7224 129.714 83.7972C129.896 83.8719 130.06 83.9818 130.199 84.1204C130.338 84.259 130.449 84.4237 130.524 84.605C130.599 84.7863 130.638 84.9806 130.638 85.1769V86.6909H116.666V85.0075C116.666 84.2953 116.526 83.5902 116.252 82.9325C115.979 82.2749 115.578 81.6777 115.074 81.1753C114.569 80.6728 113.97 80.2751 113.311 80.0049C112.652 79.7346 111.946 79.5972 111.234 79.6005H104.007V76.0247C103.881 74.8424 103.351 74.363 102.157 74.1611C101.307 74.244 100.741 74.6081 100.478 75.2425L100.434 75.3507C100.361 75.5687 100.315 75.7952 100.298 76.0247V86.6909H96.0981H95.1104V85.0363C95.1195 84.3286 94.9848 83.6263 94.7147 82.972C94.4446 82.3178 94.0445 81.7251 93.5388 81.2298C92.7839 80.473 91.8216 79.9569 90.7735 79.7468C89.7254 79.5367 88.6385 79.642 87.6502 80.0493C86.6619 80.4567 85.8165 81.1478 85.2209 82.0355C84.6252 82.9231 84.3061 83.9674 84.3037 85.0363V88.5653C84.3974 89.3691 84.7254 89.917 85.3094 90.1982C85.5848 90.3241 85.8799 90.4009 86.1817 90.4253H148.427C148.909 90.4268 149.374 90.2421 149.724 89.9098C150.073 89.5774 150.282 89.123 150.305 88.641V85.2094C150.303 83.8192 149.752 82.486 148.771 81.5003C147.791 80.5145 146.461 79.9561 145.071 79.9466ZM91.3832 86.6909H88.0309V85.0111C88.041 84.5688 88.2212 84.1474 88.5341 83.8345C88.8469 83.5216 89.2683 83.3414 89.7107 83.3313C90.7416 83.4467 91.3075 84.0126 91.3832 85.0219V86.6909ZM112.925 86.6692H104.007V83.3205H111.248C112.258 83.3962 112.82 83.9549 112.925 84.9859V86.6692ZM146.567 86.6692H143.578V85.1949C143.576 84.796 143.731 84.4121 144.011 84.1276C144.291 83.8431 144.672 83.6812 145.071 83.6774C145.468 83.6885 145.845 83.8526 146.124 84.1354C146.403 84.4183 146.561 84.7979 146.567 85.1949V86.6692Z" fill="black" fill-opacity="0.2"/>
<g clip-path="url(#clip0_4332_68913)">
<path d="M54.3238 24.2448C51.3268 31.3162 51.4599 38.203 54.6793 45.0328C55.716 47.2321 55.1628 49.1684 53.2674 50.0702C51.4475 50.9361 49.6143 50.1824 48.5884 48.0089C44.389 39.1124 44.2644 30.1489 48.2917 21.1602C49.4937 18.4774 51.2855 17.5445 53.2687 18.4548C55.2972 19.3858 55.6991 21.4428 54.3238 24.2448Z" fill="#1C1C1C"/>
<path d="M54.3238 24.2448C51.3268 31.3162 51.4599 38.203 54.6793 45.0328C55.716 47.2321 55.1628 49.1684 53.2674 50.0702C51.4475 50.9361 49.6143 50.1824 48.5884 48.0089C44.389 39.1124 44.2644 30.1489 48.2917 21.1602C49.4937 18.4774 51.2855 17.5445 53.2687 18.4548C55.2972 19.3858 55.6991 21.4428 54.3238 24.2448Z" fill="black" fill-opacity="0.2"/>
<path d="M54.3238 24.2448C51.3268 31.3162 51.4599 38.203 54.6793 45.0328C55.716 47.2321 55.1628 49.1684 53.2674 50.0702C51.4475 50.9361 49.6143 50.1824 48.5884 48.0089C44.389 39.1124 44.2644 30.1489 48.2917 21.1602C49.4937 18.4774 51.2855 17.5445 53.2687 18.4548C55.2972 19.3858 55.6991 21.4428 54.3238 24.2448Z" fill="black" fill-opacity="0.2"/>
<path d="M92.4056 59.0962C91.7103 60.1319 91.2142 61.4132 90.3061 61.8632C81.1091 66.4212 71.8212 66.4227 62.5601 62.0049C60.5579 61.0498 59.9 59.1093 60.8085 57.3589C61.7151 55.6124 63.6281 55.0238 65.5985 55.9502C72.8056 59.3386 79.9916 59.3363 87.186 55.9068C89.9549 54.5869 92.1543 55.8897 92.4056 59.0962Z" fill="#1C1C1C"/>
<path d="M92.4056 59.0962C91.7103 60.1319 91.2142 61.4132 90.3061 61.8632C81.1091 66.4212 71.8212 66.4227 62.5601 62.0049C60.5579 61.0498 59.9 59.1093 60.8085 57.3589C61.7151 55.6124 63.6281 55.0238 65.5985 55.9502C72.8056 59.3386 79.9916 59.3363 87.186 55.9068C89.9549 54.5869 92.1543 55.8897 92.4056 59.0962Z" fill="black" fill-opacity="0.2"/>
<path d="M92.4056 59.0962C91.7103 60.1319 91.2142 61.4132 90.3061 61.8632C81.1091 66.4212 71.8212 66.4227 62.5601 62.0049C60.5579 61.0498 59.9 59.1093 60.8085 57.3589C61.7151 55.6124 63.6281 55.0238 65.5985 55.9502C72.8056 59.3386 79.9916 59.3363 87.186 55.9068C89.9549 54.5869 92.1543 55.8897 92.4056 59.0962Z" fill="black" fill-opacity="0.2"/>
<path d="M71.2303 3.71264C77.8741 2.69437 84.0978 3.55301 90.0074 6.46462C92.2705 7.57962 93.0462 9.38749 92.1322 11.2464C91.2117 13.1188 89.2956 13.6222 87.0801 12.5803C79.9461 9.22537 72.8096 9.20384 65.6643 12.5536C63.6058 13.5186 61.6423 12.8873 60.7826 11.0186C59.978 9.26947 60.6834 7.28323 62.7522 6.46841C65.4668 5.3992 68.3 4.63124 71.2303 3.71264Z" fill="#1C1C1C"/>
<path d="M71.2303 3.71264C77.8741 2.69437 84.0978 3.55301 90.0074 6.46462C92.2705 7.57962 93.0462 9.38749 92.1322 11.2464C91.2117 13.1188 89.2956 13.6222 87.0801 12.5803C79.9461 9.22537 72.8096 9.20384 65.6643 12.5536C63.6058 13.5186 61.6423 12.8873 60.7826 11.0186C59.978 9.26947 60.6834 7.28323 62.7522 6.46841C65.4668 5.3992 68.3 4.63124 71.2303 3.71264Z" fill="black" fill-opacity="0.2"/>
<path d="M71.2303 3.71264C77.8741 2.69437 84.0978 3.55301 90.0074 6.46462C92.2705 7.57962 93.0462 9.38749 92.1322 11.2464C91.2117 13.1188 89.2956 13.6222 87.0801 12.5803C79.9461 9.22537 72.8096 9.20384 65.6643 12.5536C63.6058 13.5186 61.6423 12.8873 60.7826 11.0186C59.978 9.26947 60.6834 7.28323 62.7522 6.46841C65.4668 5.3992 68.3 4.63124 71.2303 3.71264Z" fill="black" fill-opacity="0.2"/>
<path d="M100.234 30.5555C99.4961 28.1537 98.8884 25.8591 98.0464 23.654C97.2193 21.4879 97.6621 19.6278 99.4952 18.7135C101.28 17.8234 103.191 18.5871 104.191 20.7297C108.395 29.7321 108.407 38.7631 104.22 47.7749C103.219 49.9302 101.338 50.7021 99.5441 49.8278C97.642 48.9009 97.09 46.9812 98.1497 44.7599C100.285 40.2841 100.947 35.5964 100.234 30.5555Z" fill="#1C1C1C"/>
<path d="M100.234 30.5555C99.4961 28.1537 98.8884 25.8591 98.0464 23.654C97.2193 21.4879 97.6621 19.6278 99.4952 18.7135C101.28 17.8234 103.191 18.5871 104.191 20.7297C108.395 29.7321 108.407 38.7631 104.22 47.7749C103.219 49.9302 101.338 50.7021 99.5441 49.8278C97.642 48.9009 97.09 46.9812 98.1497 44.7599C100.285 40.2841 100.947 35.5964 100.234 30.5555Z" fill="black" fill-opacity="0.2"/>
<path d="M100.234 30.5555C99.4961 28.1537 98.8884 25.8591 98.0464 23.654C97.2193 21.4879 97.6621 19.6278 99.4952 18.7135C101.28 17.8234 103.191 18.5871 104.191 20.7297C108.395 29.7321 108.407 38.7631 104.22 47.7749C103.219 49.9302 101.338 50.7021 99.5441 49.8278C97.642 48.9009 97.09 46.9812 98.1497 44.7599C100.285 40.2841 100.947 35.5964 100.234 30.5555Z" fill="black" fill-opacity="0.2"/>
<path d="M64.7399 17.0389C67.5044 19.805 70.1982 22.4721 72.8601 25.1705C74.7882 27.125 74.7798 28.8798 72.8982 30.752C71.1374 32.5039 69.3182 32.4745 67.4368 30.6025C63.1456 26.3327 58.8641 22.0529 54.5996 17.7565C52.7475 15.8906 52.7466 14.0687 54.521 12.2913C56.3803 10.429 58.1427 10.4542 60.0973 12.3903C61.6247 13.9033 63.1367 15.4317 64.7399 17.0389Z" fill="#1C1C1C"/>
<path d="M64.7399 17.0389C67.5044 19.805 70.1982 22.4721 72.8601 25.1705C74.7882 27.125 74.7798 28.8798 72.8982 30.752C71.1374 32.5039 69.3182 32.4745 67.4368 30.6025C63.1456 26.3327 58.8641 22.0529 54.5996 17.7565C52.7475 15.8906 52.7466 14.0687 54.521 12.2913C56.3803 10.429 58.1427 10.4542 60.0973 12.3903C61.6247 13.9033 63.1367 15.4317 64.7399 17.0389Z" fill="black" fill-opacity="0.2"/>
<path d="M64.7399 17.0389C67.5044 19.805 70.1982 22.4721 72.8601 25.1705C74.7882 27.125 74.7798 28.8798 72.8982 30.752C71.1374 32.5039 69.3182 32.4745 67.4368 30.6025C63.1456 26.3327 58.8641 22.0529 54.5996 17.7565C52.7475 15.8906 52.7466 14.0687 54.521 12.2913C56.3803 10.429 58.1427 10.4542 60.0973 12.3903C61.6247 13.9033 63.1367 15.4317 64.7399 17.0389Z" fill="black" fill-opacity="0.2"/>
<path d="M62.262 53.9214C61.2947 54.8838 60.4497 55.8031 59.5213 56.6287C57.9585 58.0185 56.1528 57.8611 54.5565 56.269C52.9403 54.6572 52.6831 52.7932 54.1276 51.3162C58.6746 46.6671 63.2746 42.0688 67.9142 37.512C69.4139 36.0391 71.4326 36.2895 73.012 37.9292C74.6086 39.5867 74.7089 41.4222 73.1343 43.0271C69.5695 46.6606 65.9463 50.2367 62.262 53.9214Z" fill="#1C1C1C"/>
<path d="M62.262 53.9214C61.2947 54.8838 60.4497 55.8031 59.5213 56.6287C57.9585 58.0185 56.1528 57.8611 54.5565 56.269C52.9403 54.6572 52.6831 52.7932 54.1276 51.3162C58.6746 46.6671 63.2746 42.0688 67.9142 37.512C69.4139 36.0391 71.4326 36.2895 73.012 37.9292C74.6086 39.5867 74.7089 41.4222 73.1343 43.0271C69.5695 46.6606 65.9463 50.2367 62.262 53.9214Z" fill="black" fill-opacity="0.2"/>
<path d="M62.262 53.9214C61.2947 54.8838 60.4497 55.8031 59.5213 56.6287C57.9585 58.0185 56.1528 57.8611 54.5565 56.269C52.9403 54.6572 52.6831 52.7932 54.1276 51.3162C58.6746 46.6671 63.2746 42.0688 67.9142 37.512C69.4139 36.0391 71.4326 36.2895 73.012 37.9292C74.6086 39.5867 74.7089 41.4222 73.1343 43.0271C69.5695 46.6606 65.9463 50.2367 62.262 53.9214Z" fill="black" fill-opacity="0.2"/>
<path d="M97.3704 49.6912C97.7786 50.0938 98.1063 50.4067 98.4179 50.7348C100.118 52.5247 100.093 54.3063 98.346 56.0769C96.5951 57.8519 94.7799 57.9266 93.018 56.1822C88.6747 51.8821 84.3501 47.5626 80.0562 43.2132C78.2386 41.3721 78.3278 39.5836 80.1901 37.7596C81.9212 36.0641 83.7501 36.0664 85.5271 37.8347C89.4582 41.7466 93.3655 45.6825 97.3704 49.6912Z" fill="#1C1C1C"/>
<path d="M97.3704 49.6912C97.7786 50.0938 98.1063 50.4067 98.4179 50.7348C100.118 52.5247 100.093 54.3063 98.346 56.0769C96.5951 57.8519 94.7799 57.9266 93.018 56.1822C88.6747 51.8821 84.3501 47.5626 80.0562 43.2132C78.2386 41.3721 78.3278 39.5836 80.1901 37.7596C81.9212 36.0641 83.7501 36.0664 85.5271 37.8347C89.4582 41.7466 93.3655 45.6825 97.3704 49.6912Z" fill="black" fill-opacity="0.2"/>
<path d="M97.3704 49.6912C97.7786 50.0938 98.1063 50.4067 98.4179 50.7348C100.118 52.5247 100.093 54.3063 98.346 56.0769C96.5951 57.8519 94.7799 57.9266 93.018 56.1822C88.6747 51.8821 84.3501 47.5626 80.0562 43.2132C78.2386 41.3721 78.3278 39.5836 80.1901 37.7596C81.9212 36.0641 83.7501 36.0664 85.5271 37.8347C89.4582 41.7466 93.3655 45.6825 97.3704 49.6912Z" fill="black" fill-opacity="0.2"/>
<path d="M98.9839 17.1402C94.3942 21.766 89.9011 26.3129 85.3671 30.8187C83.6919 32.4834 81.837 32.4014 80.1481 30.7179C78.4288 29.0042 78.2885 27.1621 79.9266 25.5007C84.3355 21.0295 88.7855 16.5984 93.2543 12.1869C94.5837 10.8746 96.2864 10.8231 97.7145 11.891C99.6666 13.3509 100.063 14.864 98.9839 17.1402Z" fill="#1C1C1C"/>
<path d="M98.9839 17.1402C94.3942 21.766 89.9011 26.3129 85.3671 30.8187C83.6919 32.4834 81.837 32.4014 80.1481 30.7179C78.4288 29.0042 78.2885 27.1621 79.9266 25.5007C84.3355 21.0295 88.7855 16.5984 93.2543 12.1869C94.5837 10.8746 96.2864 10.8231 97.7145 11.891C99.6666 13.3509 100.063 14.864 98.9839 17.1402Z" fill="black" fill-opacity="0.2"/>
<path d="M98.9839 17.1402C94.3942 21.766 89.9011 26.3129 85.3671 30.8187C83.6919 32.4834 81.837 32.4014 80.1481 30.7179C78.4288 29.0042 78.2885 27.1621 79.9266 25.5007C84.3355 21.0295 88.7855 16.5984 93.2543 12.1869C94.5837 10.8746 96.2864 10.8231 97.7145 11.891C99.6666 13.3509 100.063 14.864 98.9839 17.1402Z" fill="black" fill-opacity="0.2"/>
<path d="M72.6218 35.1548C72.518 32.8535 73.5254 31.1793 75.3665 30.4858C77.115 29.8272 78.4178 30.5834 79.5439 31.8623C81.0203 33.539 80.8733 35.3902 79.1194 37.0793C77.5008 38.6381 75.5899 38.7049 74.0367 37.1717C73.4889 36.631 73.1078 35.9215 72.6218 35.1548Z" fill="#1C1C1C"/>
<path d="M72.6218 35.1548C72.518 32.8535 73.5254 31.1793 75.3665 30.4858C77.115 29.8272 78.4178 30.5834 79.5439 31.8623C81.0203 33.539 80.8733 35.3902 79.1194 37.0793C77.5008 38.6381 75.5899 38.7049 74.0367 37.1717C73.4889 36.631 73.1078 35.9215 72.6218 35.1548Z" fill="black" fill-opacity="0.2"/>
<path d="M72.6218 35.1548C72.518 32.8535 73.5254 31.1793 75.3665 30.4858C77.115 29.8272 78.4178 30.5834 79.5439 31.8623C81.0203 33.539 80.8733 35.3902 79.1194 37.0793C77.5008 38.6381 75.5899 38.7049 74.0367 37.1717C73.4889 36.631 73.1078 35.9215 72.6218 35.1548Z" fill="black" fill-opacity="0.2"/>
</g>
<path d="M39.8549 119.58C39.8549 118.652 39.3683 118.19 38.395 118.192C37.5515 118.192 36.4569 118.589 35.1112 119.382C33.546 120.363 32.1468 121.587 30.9659 123.008C29.6317 124.487 28.6201 126.228 27.9956 128.119C27.7731 128.752 27.6515 129.417 27.6352 130.087C27.6234 130.655 27.8066 131.21 28.1542 131.659C28.7646 132.452 29.7631 132.857 31.1497 132.874H31.4237C33.1452 132.83 34.839 132.43 36.3981 131.699C38.1177 130.966 39.6002 129.771 40.6804 128.245C40.7621 128.13 40.8486 128.105 40.9399 128.17C41.0336 128.235 41.0769 128.292 41.0769 128.343C41.078 128.365 41.0745 128.388 41.0664 128.409C41.0583 128.43 41.0459 128.449 41.03 128.465C39.8706 130.082 38.3187 131.377 36.5206 132.229C34.9144 133.029 33.1497 133.462 31.3552 133.494C29.6081 133.494 28.2864 132.998 27.3901 132.005C26.7925 131.304 26.4834 130.402 26.525 129.482C26.525 127.732 27.1846 125.851 28.5039 123.837C30.3038 121.097 32.4822 119.199 35.0391 118.142C35.9416 117.763 36.9083 117.561 37.8868 117.547C39.0114 117.547 39.8117 117.814 40.2875 118.34C40.5955 118.688 40.7637 119.137 40.7597 119.602C40.7597 120.51 40.2791 121.443 39.3178 122.402C38.3908 123.336 37.3152 124.11 36.1349 124.691C35.1895 125.192 34.1634 125.523 33.1034 125.668C32.743 125.701 32.5916 125.61 32.606 125.398C32.624 125.099 32.8295 124.936 33.226 124.9C34.5175 124.794 35.7653 124.383 36.8667 123.7C37.9497 123.037 38.8309 122.091 39.4151 120.964C39.6929 120.555 39.8457 120.074 39.8549 119.58Z" fill="#17A1FF" stroke="#17A1FF" stroke-width="0.180232" stroke-miterlimit="10"/>
<path d="M45.4128 129.333C45.659 128.898 45.8112 128.417 45.8598 127.92C45.8705 127.656 45.8326 127.392 45.7481 127.141C45.7091 127.061 45.6979 126.97 45.7162 126.883C45.7344 126.795 45.7811 126.716 45.849 126.658C45.9189 126.593 46.0036 126.545 46.0958 126.52C46.1881 126.494 46.2852 126.491 46.3789 126.511C46.7105 126.595 46.8763 126.966 46.8763 127.624C46.8763 128.283 46.4882 129.149 45.712 130.223C45.703 130.315 45.715 130.408 45.747 130.495C45.7789 130.582 45.8301 130.66 45.8967 130.724C45.9633 130.788 46.0435 130.837 46.1314 130.865C46.2193 130.894 46.3125 130.903 46.4041 130.89C46.8511 130.89 47.5252 130.414 48.4335 129.448C48.8625 128.955 49.1328 128.63 49.241 128.482C49.3491 128.335 49.4428 128.28 49.5257 128.324C49.6086 128.367 49.6483 128.399 49.6483 128.435C49.6483 128.598 49.3491 129.027 48.7579 129.722C47.8171 130.876 46.9809 131.453 46.2563 131.453C46.0442 131.466 45.8332 131.414 45.6515 131.304C45.4698 131.193 45.3262 131.03 45.2398 130.836C44.9118 131.197 44.5874 131.503 44.2738 131.802C43.6773 132.33 42.9075 132.62 42.111 132.617C41.715 132.631 41.3248 132.519 40.9972 132.296C40.4156 131.95 40.126 131.331 40.1284 130.44C40.1587 129.374 40.5036 128.34 41.1197 127.469C41.4882 126.888 41.9386 126.362 42.457 125.909C43.2645 125.188 44.0323 124.827 44.7604 124.827C44.936 124.825 45.111 124.85 45.2795 124.899C45.493 124.946 45.6837 125.065 45.8191 125.237C45.9545 125.408 46.0262 125.622 46.022 125.84C46.022 126.222 45.9247 126.41 45.7264 126.41C45.6435 126.377 45.6003 126.255 45.6003 126.049C45.6003 125.754 45.4345 125.606 45.1064 125.606C44.5297 125.606 43.7871 126.133 42.8788 127.188C42.0523 128.084 41.4864 129.188 41.2423 130.382C41.209 130.582 41.1933 130.785 41.1954 130.988C41.2071 131.258 41.2838 131.521 41.4189 131.755C41.499 131.901 41.6205 132.02 41.768 132.097C41.9155 132.174 42.0825 132.206 42.248 132.188C42.7364 132.155 43.2009 131.964 43.5709 131.644C44.0734 131.257 44.5083 130.789 44.8577 130.259L44.7856 130.112C44.7482 130.004 44.7375 129.889 44.7544 129.777C44.7714 129.665 44.8155 129.558 44.883 129.466C44.9437 129.388 45.0289 129.333 45.1249 129.308C45.2209 129.284 45.3223 129.293 45.4128 129.333Z" fill="#17A1FF" stroke="#17A1FF" stroke-width="0.180232" stroke-miterlimit="10"/>
<path d="M59.2658 130.306C58.7368 130.892 58.1566 131.43 57.532 131.913C56.908 132.381 56.1491 132.634 55.3692 132.634C55.1612 132.615 54.9615 132.543 54.7888 132.425C54.5555 132.294 54.3823 132.077 54.3058 131.82C54.2264 131.571 54.1851 131.313 54.1832 131.052C54.1852 130.178 54.3528 129.312 54.6771 128.5C54.4254 128.834 54.1977 129.186 53.9958 129.552C53.5767 130.24 53.0783 130.877 52.5107 131.448C52.291 131.709 52.021 131.922 51.7168 132.075C51.4126 132.228 51.0806 132.317 50.7408 132.339C50.4075 132.326 50.0796 132.251 49.7748 132.115C49.4594 131.981 49.194 131.751 49.0162 131.458C48.8383 131.166 48.7569 130.824 48.7835 130.482C48.8178 129.403 49.1661 128.357 49.7856 127.473C50.456 126.442 50.8814 125.892 51.0616 125.825C51.2967 125.761 51.539 125.729 51.7826 125.728C52.0162 125.73 52.2473 125.777 52.4638 125.865C52.6945 125.955 52.6621 126.106 52.3629 126.323C51.29 127.268 50.4583 128.455 49.937 129.787C49.7769 130.185 49.6855 130.608 49.6666 131.038C49.6666 131.376 49.7531 131.596 49.9262 131.694C50.0792 131.788 50.2548 131.839 50.4344 131.841C50.8273 131.841 51.368 131.567 52.0529 131.012C52.7378 130.457 53.6858 129.311 54.8898 127.559C55.0556 127.319 55.3439 126.838 55.7549 126.117C56.1694 125.396 56.4145 124.974 56.4974 124.845C56.8153 124.855 57.1294 124.917 57.4274 125.029C57.7879 125.155 57.8996 125.313 57.7879 125.512C56.9973 126.836 56.441 127.81 56.1189 128.435C55.7778 129.127 55.556 129.872 55.4629 130.637C55.4435 130.827 55.4351 131.017 55.4377 131.207C55.4288 131.415 55.4997 131.619 55.6359 131.776C55.8846 132.04 56.2271 132.054 56.6632 131.813C57.3115 131.417 57.9157 130.953 58.4656 130.428C59.1491 129.826 59.7633 129.149 60.2967 128.41C60.3206 128.372 60.3582 128.344 60.4017 128.333C60.4453 128.321 60.4915 128.327 60.531 128.348C60.6247 128.388 60.668 128.431 60.668 128.471C60.6659 128.521 60.6483 128.569 60.6175 128.608C60.2315 129.222 59.7781 129.792 59.2658 130.306Z" fill="#17A1FF" stroke="#17A1FF" stroke-width="0.180232" stroke-miterlimit="10"/>
<path d="M66.8893 125.024C67.2497 125.024 67.4588 125.226 67.4588 125.63C67.398 126.223 67.2033 126.795 66.8893 127.303C66.5108 128.023 66.2296 128.589 66.0458 129.033C65.7805 129.6 65.6217 130.211 65.5772 130.835C65.542 131.15 65.6116 131.468 65.7754 131.74C66.0242 132.003 66.3594 132.017 66.7883 131.776C67.4354 131.378 68.0394 130.914 68.5907 130.392C69.2813 129.792 69.9005 129.115 70.4362 128.373C70.4601 128.335 70.4977 128.307 70.5412 128.296C70.5848 128.285 70.631 128.29 70.6705 128.312C70.7607 128.351 70.8075 128.395 70.8075 128.434C70.8055 128.484 70.7878 128.532 70.7571 128.571C70.3771 129.189 69.9284 129.763 69.4197 130.28C68.8595 130.898 68.2375 131.457 67.5633 131.949C67.0594 132.339 66.4449 132.56 65.8079 132.58C65.377 132.61 64.951 132.473 64.6183 132.198C64.5006 132.079 64.4081 131.937 64.3461 131.782C64.2842 131.626 64.2542 131.46 64.2579 131.293C64.2571 130.94 64.2897 130.587 64.3552 130.24C64.4402 129.839 64.5608 129.445 64.7157 129.065C64.9462 128.499 65.2073 127.945 65.4979 127.407C65.6575 127.171 65.7712 126.907 65.8331 126.628C65.8331 126.502 65.7646 126.441 65.6348 126.441C65.3681 126.441 64.8671 126.762 64.1245 127.407C63.3008 128.252 62.5428 129.158 61.8572 130.118C61.3411 130.861 60.7751 131.568 60.163 132.234C59.8172 132.44 59.4414 132.59 59.0492 132.681C58.8978 132.681 58.8257 132.655 58.8257 132.605C58.8295 132.533 58.8466 132.462 58.8762 132.396L59.3556 131.048C59.6487 130.238 59.9624 129.35 60.2964 128.384C60.6352 127.418 60.8443 126.838 60.9164 126.639C60.9829 126.475 61.0324 126.305 61.0642 126.131C61.0844 126.009 61.1133 125.889 61.1507 125.771C61.1967 125.65 61.2598 125.537 61.3381 125.435C61.3784 125.376 61.432 125.328 61.4946 125.293C61.5573 125.259 61.6271 125.239 61.6986 125.237C61.8897 125.232 62.0808 125.249 62.2681 125.288C62.5024 125.327 62.6286 125.432 62.6286 125.598C62.5769 125.861 62.4845 126.116 62.3546 126.351C62.1744 126.74 61.6541 128.073 60.7938 130.348C61.3874 129.628 62.1384 128.786 63.0467 127.825C63.7667 127.055 64.5361 126.333 65.3501 125.662C65.7901 125.304 66.325 125.083 66.8893 125.024Z" fill="#17A1FF" stroke="#17A1FF" stroke-width="0.180232" stroke-miterlimit="10"/>
<path d="M74.0703 125.123C75.3391 125.008 76.1141 124.95 76.3844 124.95C76.6548 124.95 76.7918 124.993 76.7918 125.073C76.7918 125.152 76.5971 125.274 76.2114 125.383C75.2758 125.575 74.3298 125.712 73.3782 125.793C73.2953 125.941 73.1943 126.114 73.079 126.313C72.9219 126.538 72.789 126.78 72.6825 127.033C71.7405 128.915 71.2454 130.117 71.1974 130.638C71.1974 130.786 71.1721 130.977 71.1721 131.208C71.1695 131.405 71.2387 131.598 71.3668 131.748C71.5975 132.011 71.9291 132.029 72.3581 131.799C73.0071 131.403 73.6114 130.937 74.1604 130.411C74.8523 129.802 75.4781 129.122 76.0276 128.382C76.0546 128.343 76.0955 128.316 76.1418 128.307C76.1882 128.297 76.2363 128.306 76.2763 128.331C76.5166 128.446 76.0877 129.099 74.9895 130.288C73.9345 131.428 73.0514 132.128 72.34 132.39C72.0092 132.523 71.6582 132.599 71.3019 132.613C71.008 132.633 70.7163 132.55 70.4769 132.379C70.2375 132.207 70.0653 131.957 69.9898 131.673C69.9523 131.535 69.9353 131.393 69.9393 131.251C69.9393 130.674 70.2025 129.809 70.7324 128.627C70.4512 129.07 70.1277 129.486 69.7663 129.867C69.6185 130.033 69.4996 130.033 69.4059 129.867C69.3865 129.824 69.3779 129.777 69.3806 129.73C69.3893 129.651 69.4235 129.578 69.478 129.521C70.289 128.511 70.9198 127.664 71.3848 126.969C71.3848 126.969 71.565 126.608 71.9291 125.93C71.7617 125.964 71.5915 125.981 71.4209 125.981C71.3488 125.986 71.2765 125.975 71.21 125.946C71.1435 125.918 71.0848 125.874 71.0388 125.819C70.9984 125.763 70.9746 125.698 70.9701 125.629C70.9656 125.561 70.9807 125.493 71.0135 125.433C71.1289 125.17 71.565 125.022 72.3256 124.99C72.3353 124.973 72.3496 124.959 72.3668 124.95C72.3841 124.941 72.4036 124.937 72.4229 124.939L73.6629 122.636C73.7278 122.506 73.8035 122.369 73.8864 122.228C73.9693 122.088 74.0306 121.98 74.0703 121.908C74.1099 121.836 74.1568 121.753 74.2073 121.67C74.2437 121.609 74.2847 121.551 74.3298 121.497L74.4307 121.399C74.4956 121.298 74.6903 121.252 75.0111 121.252C75.1345 121.236 75.2597 121.253 75.3747 121.3C75.4896 121.348 75.5904 121.424 75.6671 121.522C75.7258 121.623 75.7523 121.74 75.7428 121.857C75.7342 122.043 75.6743 122.223 75.5698 122.376C75.4819 122.538 75.3587 122.679 75.2093 122.787C75.0952 122.851 75.0005 122.944 74.9354 123.058L73.7495 125.137L74.0703 125.123Z" fill="#17A1FF" stroke="#17A1FF" stroke-width="0.180232" stroke-miterlimit="10"/>
<path d="M86.25 129.333C86.4945 128.898 86.6466 128.417 86.697 127.92C86.7056 127.656 86.6677 127.392 86.5852 127.141C86.5458 127.061 86.534 126.971 86.5516 126.883C86.5693 126.796 86.6153 126.717 86.6825 126.658C86.7531 126.593 86.8384 126.545 86.9313 126.52C87.0241 126.494 87.1218 126.491 87.216 126.511C87.544 126.594 87.7099 126.965 87.7099 127.624C87.7099 128.284 87.3242 129.149 86.5456 130.223C86.5372 130.316 86.5496 130.409 86.5821 130.495C86.6145 130.582 86.666 130.66 86.7329 130.724C86.7997 130.788 86.8801 130.837 86.9681 130.865C87.0561 130.894 87.1495 130.903 87.2412 130.89C87.6846 130.89 88.3623 130.414 89.2707 129.448C89.6996 128.955 89.9664 128.63 90.0745 128.482C90.1827 128.335 90.2764 128.281 90.3593 128.324C90.4422 128.367 90.4818 128.399 90.4818 128.436C90.4818 128.597 90.185 129.025 89.5915 129.722C88.6519 130.876 87.818 131.453 87.0899 131.453C86.8783 131.466 86.6678 131.413 86.4867 131.303C86.3057 131.193 86.1627 131.03 86.077 130.836C85.7453 131.197 85.4245 131.503 85.1109 131.802C84.5144 132.33 83.7446 132.62 82.9481 132.617C82.5511 132.631 82.1599 132.519 81.8307 132.296C81.254 131.95 80.9656 131.331 80.9656 130.44C80.9958 129.374 81.3407 128.34 81.9569 127.469C82.3254 126.888 82.7758 126.362 83.2942 125.909C84.1016 125.188 84.8682 124.827 85.5939 124.827C85.7708 124.825 85.9469 124.849 86.1166 124.899C86.3301 124.946 86.5208 125.065 86.6562 125.237C86.7916 125.408 86.8634 125.622 86.8592 125.84C86.8592 126.222 86.7582 126.41 86.56 126.41C86.4771 126.377 86.4374 126.255 86.4374 126.049C86.4374 125.754 86.2716 125.606 85.9436 125.606C85.3644 125.606 84.6207 126.133 83.7123 127.188C82.8868 128.084 82.3222 129.188 82.0794 130.382C82.0448 130.582 82.0279 130.785 82.0289 130.988C82.0425 131.257 82.119 131.52 82.2524 131.755C82.3329 131.901 82.4544 132.02 82.6019 132.096C82.7493 132.173 82.9161 132.205 83.0815 132.188C83.5711 132.156 84.0368 131.964 84.408 131.644C84.9097 131.256 85.3444 130.788 85.6949 130.259L85.6192 130.112C85.584 130.004 85.5748 129.889 85.5924 129.777C85.6099 129.665 85.6537 129.558 85.7201 129.466C85.7804 129.388 85.8656 129.332 85.9618 129.307C86.058 129.283 86.1596 129.292 86.25 129.333Z" fill="#17A1FF" stroke="#17A1FF" stroke-width="0.180232" stroke-miterlimit="10"/>
<path d="M96.7216 125.024C97.1037 125.024 97.2911 125.226 97.2911 125.63C97.2321 126.224 97.0372 126.796 96.7216 127.303C96.4128 127.865 96.1325 128.442 95.8817 129.033C95.6156 129.6 95.4555 130.211 95.4095 130.835C95.3743 131.15 95.4439 131.468 95.6077 131.74C95.8564 132.003 96.1953 132.017 96.6242 131.776C97.27 131.376 97.8738 130.912 98.4266 130.392C99.116 129.792 99.7341 129.115 100.269 128.373C100.293 128.335 100.331 128.307 100.375 128.296C100.42 128.284 100.466 128.29 100.506 128.312C100.597 128.351 100.64 128.395 100.64 128.434C100.637 128.484 100.621 128.531 100.593 128.571C100.211 129.188 99.7621 129.761 99.2556 130.28C98.6937 130.897 98.0718 131.456 97.3992 131.949C96.8937 132.339 96.2782 132.559 95.6402 132.58C95.2093 132.61 94.7833 132.473 94.4506 132.198C94.3329 132.079 94.2404 131.937 94.1784 131.782C94.1165 131.626 94.0865 131.46 94.0902 131.293C94.0887 130.94 94.1226 130.587 94.1911 130.24C94.2728 129.838 94.3935 129.444 94.5516 129.065C94.7796 128.498 95.0395 127.945 95.3302 127.407C95.4898 127.171 95.6035 126.907 95.6654 126.628C95.6654 126.502 95.5969 126.441 95.4671 126.441C95.2004 126.441 94.6993 126.762 93.9568 127.407C93.1331 128.252 92.3751 129.158 91.6895 130.118C91.1748 130.862 90.6086 131.569 89.9953 132.234C89.6495 132.44 89.2737 132.59 88.8815 132.681C88.7337 132.681 88.658 132.655 88.658 132.605C88.6636 132.533 88.6806 132.462 88.7084 132.396L89.1915 131.048C89.4798 130.238 89.7934 129.35 90.1323 128.384C90.4675 127.418 90.6766 126.838 90.7487 126.639C90.8145 126.475 90.8651 126.305 90.9001 126.131C90.9167 126.008 90.9457 125.888 90.9866 125.771C91.0297 125.65 91.0918 125.537 91.1704 125.435C91.2111 125.377 91.2648 125.328 91.3273 125.294C91.3899 125.259 91.4595 125.24 91.5309 125.237C91.722 125.232 91.9131 125.249 92.1004 125.288C92.3311 125.327 92.4609 125.432 92.4609 125.598C92.411 125.862 92.3185 126.116 92.1869 126.351C92.0067 126.74 91.4876 128.073 90.6297 130.348C91.2209 129.628 91.9718 128.786 92.8826 127.825C93.6006 127.054 94.3688 126.332 95.1824 125.662C95.6224 125.304 96.1573 125.083 96.7216 125.024Z" fill="#17A1FF" stroke="#17A1FF" stroke-width="0.180232" stroke-miterlimit="10"/>
<path d="M115.66 130.306C115.133 130.893 114.554 131.431 113.93 131.913C113.306 132.381 112.547 132.634 111.767 132.634C111.559 132.615 111.36 132.543 111.187 132.425C110.954 132.294 110.781 132.077 110.704 131.82C110.623 131.572 110.581 131.313 110.578 131.052C110.581 130.177 110.75 129.311 111.075 128.5C110.824 128.834 110.596 129.186 110.394 129.552C109.975 130.24 109.476 130.877 108.909 131.448C108.689 131.709 108.419 131.922 108.115 132.075C107.811 132.228 107.479 132.317 107.139 132.339C106.806 132.326 106.478 132.251 106.173 132.115C105.858 131.981 105.592 131.751 105.414 131.458C105.236 131.166 105.155 130.824 105.182 130.482C105.216 129.403 105.564 128.357 106.184 127.473C106.854 126.442 107.28 125.892 107.46 125.825C107.695 125.761 107.937 125.729 108.181 125.728C108.414 125.73 108.646 125.777 108.862 125.865C109.093 125.955 109.06 126.106 108.761 126.323C107.688 127.268 106.856 128.455 106.335 129.787C106.175 130.185 106.084 130.608 106.065 131.038C106.065 131.376 106.151 131.596 106.324 131.694C106.477 131.788 106.653 131.839 106.833 131.841C107.226 131.841 107.766 131.567 108.451 131.012C109.136 130.457 110.08 129.311 111.288 127.559C111.454 127.319 111.742 126.838 112.153 126.117C112.568 125.396 112.813 124.974 112.896 124.845C113.214 124.855 113.528 124.917 113.826 125.029C114.186 125.155 114.298 125.313 114.186 125.512C113.398 126.836 112.842 127.81 112.517 128.435C112.174 129.126 111.952 129.871 111.861 130.637C111.842 130.827 111.833 131.017 111.836 131.207C111.827 131.415 111.898 131.619 112.034 131.776C112.283 132.04 112.622 132.054 113.061 131.813C113.71 131.417 114.314 130.953 114.864 130.428C115.547 129.826 116.161 129.149 116.695 128.41C116.719 128.372 116.756 128.344 116.8 128.333C116.843 128.321 116.89 128.327 116.929 128.348C117.019 128.388 117.066 128.431 117.066 128.471C117.062 128.52 117.045 128.568 117.016 128.608C116.629 129.223 116.175 129.793 115.66 130.306Z" fill="#17A1FF" stroke="#17A1FF" stroke-width="0.180232" stroke-miterlimit="10"/>
<path d="M116.627 132.302C116.414 132.551 116.367 132.749 116.493 132.897C116.541 132.964 116.604 133.018 116.676 133.057C116.749 133.096 116.829 133.118 116.911 133.121C117.075 133.12 117.238 133.094 117.394 133.045C118.175 132.788 118.883 132.351 119.463 131.769C120.129 131.134 120.463 130.487 120.466 129.826C120.466 129.466 120.062 129.069 119.251 128.636C118.872 128.442 118.66 128.323 118.609 128.276C118.245 128.07 117.951 127.76 117.766 127.386C117.525 127.782 117.154 128.352 116.652 129.094C116.536 129.228 116.428 129.256 116.331 129.181C116.234 129.105 116.223 129.004 116.306 128.871C116.861 128.164 117.311 127.381 117.643 126.546C117.758 125.637 118.418 124.82 119.622 124.095C120.826 123.369 121.924 123.008 122.917 123.013C123.383 122.968 123.851 123.087 124.24 123.348C124.347 123.424 124.437 123.522 124.503 123.635C124.57 123.748 124.611 123.874 124.625 124.004C124.616 124.262 124.552 124.515 124.438 124.747C124.268 125.078 124.007 125.354 123.684 125.54C123.666 125.556 123.644 125.568 123.62 125.575C123.597 125.581 123.572 125.582 123.548 125.577C123.523 125.572 123.501 125.562 123.481 125.547C123.462 125.531 123.446 125.512 123.436 125.49C123.403 125.392 123.472 125.255 123.645 125.082C123.832 124.885 123.95 124.632 123.98 124.361C123.997 124.299 123.999 124.234 123.988 124.17C123.976 124.107 123.95 124.047 123.912 123.994C123.874 123.942 123.825 123.899 123.768 123.868C123.711 123.838 123.648 123.82 123.584 123.817H123.436C122.587 123.875 121.762 124.121 121.021 124.538C120.125 124.962 119.348 125.599 118.757 126.394C118.557 126.635 118.444 126.936 118.436 127.249C118.436 127.537 118.634 127.797 119.031 128.031C119.193 128.128 119.474 128.287 119.871 128.499C120.267 128.712 120.548 128.86 120.714 128.972C120.926 129.108 121.124 129.265 121.305 129.44C121.492 129.589 121.62 129.8 121.666 130.035C121.748 130.53 121.517 131.074 120.974 131.668C120.198 132.526 119.043 133.127 117.51 133.47C117.165 133.55 116.812 133.591 116.457 133.593C116.311 133.605 116.165 133.573 116.037 133.503C115.909 133.432 115.804 133.326 115.736 133.196C115.678 133.104 115.652 132.995 115.661 132.886C115.725 132.626 115.862 132.389 116.057 132.205C116.407 131.895 116.81 131.65 117.247 131.484C117.267 131.476 117.29 131.474 117.312 131.479C117.333 131.483 117.353 131.494 117.369 131.509C117.386 131.525 117.397 131.545 117.401 131.567C117.406 131.589 117.403 131.611 117.394 131.632C117.38 131.682 117.293 131.74 117.135 131.805C116.926 131.925 116.751 132.096 116.627 132.302Z" fill="#17A1FF" stroke="#17A1FF" stroke-width="0.180232" stroke-miterlimit="10"/>
<defs>
<clipPath id="clip0_4332_68913">
<rect width="68" height="68" fill="white" transform="translate(41.9995 -0.000976562)"/>
</clipPath>
</defs>
</svg>
