<svg width="153" height="45" viewBox="0 0 153 45" fill="none" xmlns="http://www.w3.org/2000/svg">
<g id="googleplay">
<path id="path14" d="M146.849 44.748H6.24338C3.15146 44.748 0.619141 42.2756 0.619141 39.2569V6.30976C0.619141 3.29098 3.15146 0.818576 6.24338 0.818576H146.849C149.941 0.818576 152.474 3.29098 152.474 6.30976V39.2569C152.474 42.2756 149.941 44.748 146.849 44.748Z" fill="white"/>
<path id="path16" d="M146.849 1.69854C149.454 1.69854 151.572 3.76734 151.572 6.30976V39.2569C151.572 41.7993 149.454 43.8681 146.849 43.8681H6.24338C3.63936 43.8681 1.52043 41.7993 1.52043 39.2569V6.30976C1.52043 3.76734 3.63936 1.69854 6.24338 1.69854H146.849ZM146.849 0.818576H6.24338C3.15146 0.818576 0.619141 3.29098 0.619141 6.30976V39.2569C0.619141 42.2756 3.15146 44.748 6.24338 44.748H146.849C149.941 44.748 152.474 42.2756 152.474 39.2569V6.30976C152.474 3.29098 149.941 0.818576 146.849 0.818576Z" fill="#A6A6A6"/>
<g id="g18">
<g id="path20">
<path d="M53.956 12.0681C53.956 12.9851 53.6748 13.7196 53.1208 14.2673C52.4839 14.9166 51.6543 15.2434 50.6377 15.2434C49.6661 15.2434 48.8365 14.9111 48.156 14.2563C47.4741 13.5919 47.1338 12.7765 47.1338 11.8004C47.1338 10.8243 47.4741 10.0089 48.156 9.34995C48.8365 8.68964 49.6661 8.35742 50.6377 8.35742C51.1214 8.35742 51.5826 8.45489 52.0227 8.6361C52.4614 8.81868 52.8185 9.06578 53.0772 9.37055L52.4895 9.94987C52.0381 9.42958 51.4237 9.17286 50.6377 9.17286C49.929 9.17286 49.3146 9.41447 48.7929 9.90182C48.2769 10.3905 48.0182 11.0234 48.0182 11.8004C48.0182 12.5774 48.2769 13.2157 48.7929 13.7045C49.3146 14.1863 49.929 14.4334 50.6377 14.4334C51.3899 14.4334 52.0227 14.1863 52.5218 13.699C52.8508 13.3764 53.0378 12.9316 53.0871 12.3632H50.6377V11.5698H53.9054C53.9447 11.7414 53.956 11.9075 53.956 12.0681Z" fill="#1C1C1C"/>
<path d="M53.956 12.0681C53.956 12.9851 53.6748 13.7196 53.1208 14.2673C52.4839 14.9166 51.6543 15.2434 50.6377 15.2434C49.6661 15.2434 48.8365 14.9111 48.156 14.2563C47.4741 13.5919 47.1338 12.7765 47.1338 11.8004C47.1338 10.8243 47.4741 10.0089 48.156 9.34995C48.8365 8.68964 49.6661 8.35742 50.6377 8.35742C51.1214 8.35742 51.5826 8.45489 52.0227 8.6361C52.4614 8.81868 52.8185 9.06578 53.0772 9.37055L52.4895 9.94987C52.0381 9.42958 51.4237 9.17286 50.6377 9.17286C49.929 9.17286 49.3146 9.41447 48.7929 9.90182C48.2769 10.3905 48.0182 11.0234 48.0182 11.8004C48.0182 12.5774 48.2769 13.2157 48.7929 13.7045C49.3146 14.1863 49.929 14.4334 50.6377 14.4334C51.3899 14.4334 52.0227 14.1863 52.5218 13.699C52.8508 13.3764 53.0378 12.9316 53.0871 12.3632H50.6377V11.5698H53.9054C53.9447 11.7414 53.956 11.9075 53.956 12.0681Z" fill="black" fill-opacity="0.2"/>
<path d="M53.956 12.0681C53.956 12.9851 53.6748 13.7196 53.1208 14.2673C52.4839 14.9166 51.6543 15.2434 50.6377 15.2434C49.6661 15.2434 48.8365 14.9111 48.156 14.2563C47.4741 13.5919 47.1338 12.7765 47.1338 11.8004C47.1338 10.8243 47.4741 10.0089 48.156 9.34995C48.8365 8.68964 49.6661 8.35742 50.6377 8.35742C51.1214 8.35742 51.5826 8.45489 52.0227 8.6361C52.4614 8.81868 52.8185 9.06578 53.0772 9.37055L52.4895 9.94987C52.0381 9.42958 51.4237 9.17286 50.6377 9.17286C49.929 9.17286 49.3146 9.41447 48.7929 9.90182C48.2769 10.3905 48.0182 11.0234 48.0182 11.8004C48.0182 12.5774 48.2769 13.2157 48.7929 13.7045C49.3146 14.1863 49.929 14.4334 50.6377 14.4334C51.3899 14.4334 52.0227 14.1863 52.5218 13.699C52.8508 13.3764 53.0378 12.9316 53.0871 12.3632H50.6377V11.5698H53.9054C53.9447 11.7414 53.956 11.9075 53.956 12.0681Z" fill="black" fill-opacity="0.2"/>
<path d="M53.956 12.0681C53.956 12.9851 53.6748 13.7196 53.1208 14.2673C52.4839 14.9166 51.6543 15.2434 50.6377 15.2434C49.6661 15.2434 48.8365 14.9111 48.156 14.2563C47.4741 13.5919 47.1338 12.7765 47.1338 11.8004C47.1338 10.8243 47.4741 10.0089 48.156 9.34995C48.8365 8.68964 49.6661 8.35742 50.6377 8.35742C51.1214 8.35742 51.5826 8.45489 52.0227 8.6361C52.4614 8.81868 52.8185 9.06578 53.0772 9.37055L52.4895 9.94987C52.0381 9.42958 51.4237 9.17286 50.6377 9.17286C49.929 9.17286 49.3146 9.41447 48.7929 9.90182C48.2769 10.3905 48.0182 11.0234 48.0182 11.8004C48.0182 12.5774 48.2769 13.2157 48.7929 13.7045C49.3146 14.1863 49.929 14.4334 50.6377 14.4334C51.3899 14.4334 52.0227 14.1863 52.5218 13.699C52.8508 13.3764 53.0378 12.9316 53.0871 12.3632H50.6377V11.5698H53.9054C53.9447 11.7414 53.956 11.9075 53.956 12.0681Z" stroke="#1C1C1C" stroke-width="0.243252" stroke-miterlimit="10"/>
<path d="M53.956 12.0681C53.956 12.9851 53.6748 13.7196 53.1208 14.2673C52.4839 14.9166 51.6543 15.2434 50.6377 15.2434C49.6661 15.2434 48.8365 14.9111 48.156 14.2563C47.4741 13.5919 47.1338 12.7765 47.1338 11.8004C47.1338 10.8243 47.4741 10.0089 48.156 9.34995C48.8365 8.68964 49.6661 8.35742 50.6377 8.35742C51.1214 8.35742 51.5826 8.45489 52.0227 8.6361C52.4614 8.81868 52.8185 9.06578 53.0772 9.37055L52.4895 9.94987C52.0381 9.42958 51.4237 9.17286 50.6377 9.17286C49.929 9.17286 49.3146 9.41447 48.7929 9.90182C48.2769 10.3905 48.0182 11.0234 48.0182 11.8004C48.0182 12.5774 48.2769 13.2157 48.7929 13.7045C49.3146 14.1863 49.929 14.4334 50.6377 14.4334C51.3899 14.4334 52.0227 14.1863 52.5218 13.699C52.8508 13.3764 53.0378 12.9316 53.0871 12.3632H50.6377V11.5698H53.9054C53.9447 11.7414 53.956 11.9075 53.956 12.0681Z" stroke="black" stroke-opacity="0.2" stroke-width="0.243252" stroke-miterlimit="10"/>
<path d="M53.956 12.0681C53.956 12.9851 53.6748 13.7196 53.1208 14.2673C52.4839 14.9166 51.6543 15.2434 50.6377 15.2434C49.6661 15.2434 48.8365 14.9111 48.156 14.2563C47.4741 13.5919 47.1338 12.7765 47.1338 11.8004C47.1338 10.8243 47.4741 10.0089 48.156 9.34995C48.8365 8.68964 49.6661 8.35742 50.6377 8.35742C51.1214 8.35742 51.5826 8.45489 52.0227 8.6361C52.4614 8.81868 52.8185 9.06578 53.0772 9.37055L52.4895 9.94987C52.0381 9.42958 51.4237 9.17286 50.6377 9.17286C49.929 9.17286 49.3146 9.41447 48.7929 9.90182C48.2769 10.3905 48.0182 11.0234 48.0182 11.8004C48.0182 12.5774 48.2769 13.2157 48.7929 13.7045C49.3146 14.1863 49.929 14.4334 50.6377 14.4334C51.3899 14.4334 52.0227 14.1863 52.5218 13.699C52.8508 13.3764 53.0378 12.9316 53.0871 12.3632H50.6377V11.5698H53.9054C53.9447 11.7414 53.956 11.9075 53.956 12.0681Z" stroke="black" stroke-opacity="0.2" stroke-width="0.243252" stroke-miterlimit="10"/>
</g>
</g>
<g id="g22">
<g id="path24">
<path d="M59.1366 9.31834H56.0672V11.405H58.8343V12.1985H56.0672V14.2851H59.1366V15.0937H55.1982V8.50977H59.1366V9.31834Z" fill="#1C1C1C"/>
<path d="M59.1366 9.31834H56.0672V11.405H58.8343V12.1985H56.0672V14.2851H59.1366V15.0937H55.1982V8.50977H59.1366V9.31834Z" fill="black" fill-opacity="0.2"/>
<path d="M59.1366 9.31834H56.0672V11.405H58.8343V12.1985H56.0672V14.2851H59.1366V15.0937H55.1982V8.50977H59.1366V9.31834Z" fill="black" fill-opacity="0.2"/>
<path d="M59.1366 9.31834H56.0672V11.405H58.8343V12.1985H56.0672V14.2851H59.1366V15.0937H55.1982V8.50977H59.1366V9.31834Z" stroke="#1C1C1C" stroke-width="0.243252" stroke-miterlimit="10"/>
<path d="M59.1366 9.31834H56.0672V11.405H58.8343V12.1985H56.0672V14.2851H59.1366V15.0937H55.1982V8.50977H59.1366V9.31834Z" stroke="black" stroke-opacity="0.2" stroke-width="0.243252" stroke-miterlimit="10"/>
<path d="M59.1366 9.31834H56.0672V11.405H58.8343V12.1985H56.0672V14.2851H59.1366V15.0937H55.1982V8.50977H59.1366V9.31834Z" stroke="black" stroke-opacity="0.2" stroke-width="0.243252" stroke-miterlimit="10"/>
</g>
</g>
<g id="g26">
<g id="path28">
<path d="M62.7976 15.0937H61.9286V9.31834H60.0459V8.50977H64.6817V9.31834H62.7976V15.0937Z" fill="#1C1C1C"/>
<path d="M62.7976 15.0937H61.9286V9.31834H60.0459V8.50977H64.6817V9.31834H62.7976V15.0937Z" fill="black" fill-opacity="0.2"/>
<path d="M62.7976 15.0937H61.9286V9.31834H60.0459V8.50977H64.6817V9.31834H62.7976V15.0937Z" fill="black" fill-opacity="0.2"/>
<path d="M62.7976 15.0937H61.9286V9.31834H60.0459V8.50977H64.6817V9.31834H62.7976V15.0937Z" stroke="#1C1C1C" stroke-width="0.243252" stroke-miterlimit="10"/>
<path d="M62.7976 15.0937H61.9286V9.31834H60.0459V8.50977H64.6817V9.31834H62.7976V15.0937Z" stroke="black" stroke-opacity="0.2" stroke-width="0.243252" stroke-miterlimit="10"/>
<path d="M62.7976 15.0937H61.9286V9.31834H60.0459V8.50977H64.6817V9.31834H62.7976V15.0937Z" stroke="black" stroke-opacity="0.2" stroke-width="0.243252" stroke-miterlimit="10"/>
</g>
</g>
<g id="g30">
<g id="path32">
<path d="M68.0371 15.0937V8.50977H68.9047V15.0937H68.0371Z" fill="#1C1C1C"/>
<path d="M68.0371 15.0937V8.50977H68.9047V15.0937H68.0371Z" fill="black" fill-opacity="0.2"/>
<path d="M68.0371 15.0937V8.50977H68.9047V15.0937H68.0371Z" fill="black" fill-opacity="0.2"/>
<path d="M68.0371 15.0937V8.50977H68.9047V15.0937H68.0371Z" stroke="#1C1C1C" stroke-width="0.243252" stroke-miterlimit="10"/>
<path d="M68.0371 15.0937V8.50977H68.9047V15.0937H68.0371Z" stroke="black" stroke-opacity="0.2" stroke-width="0.243252" stroke-miterlimit="10"/>
<path d="M68.0371 15.0937V8.50977H68.9047V15.0937H68.0371Z" stroke="black" stroke-opacity="0.2" stroke-width="0.243252" stroke-miterlimit="10"/>
</g>
</g>
<g id="g34">
<g id="path36">
<path d="M72.7497 15.0937H71.8878V9.31834H69.998V8.50977H74.6394V9.31834H72.7497V15.0937Z" fill="#1C1C1C"/>
<path d="M72.7497 15.0937H71.8878V9.31834H69.998V8.50977H74.6394V9.31834H72.7497V15.0937Z" fill="black" fill-opacity="0.2"/>
<path d="M72.7497 15.0937H71.8878V9.31834H69.998V8.50977H74.6394V9.31834H72.7497V15.0937Z" fill="black" fill-opacity="0.2"/>
<path d="M72.7497 15.0937H71.8878V9.31834H69.998V8.50977H74.6394V9.31834H72.7497V15.0937Z" stroke="#1C1C1C" stroke-width="0.243252" stroke-miterlimit="10"/>
<path d="M72.7497 15.0937H71.8878V9.31834H69.998V8.50977H74.6394V9.31834H72.7497V15.0937Z" stroke="black" stroke-opacity="0.2" stroke-width="0.243252" stroke-miterlimit="10"/>
<path d="M72.7497 15.0937H71.8878V9.31834H69.998V8.50977H74.6394V9.31834H72.7497V15.0937Z" stroke="black" stroke-opacity="0.2" stroke-width="0.243252" stroke-miterlimit="10"/>
</g>
</g>
<g id="g38">
<g id="path40">
<path d="M83.419 14.2453C82.7539 14.9112 81.93 15.2434 80.9471 15.2434C79.9587 15.2434 79.1347 14.9112 78.4697 14.2453C77.806 13.5809 77.4756 12.7655 77.4756 11.8004C77.4756 10.8353 77.806 10.0199 78.4697 9.35544C79.1347 8.68964 79.9587 8.35742 80.9471 8.35742C81.9244 8.35742 82.7483 8.68964 83.4134 9.36094C84.0827 10.0309 84.4131 10.8408 84.4131 11.8004C84.4131 12.7655 84.0827 13.5809 83.419 14.2453ZM79.1122 13.6935C79.6128 14.1863 80.2216 14.4334 80.9471 14.4334C81.6671 14.4334 82.2815 14.1863 82.7764 13.6935C83.2756 13.2006 83.5287 12.5678 83.5287 11.8004C83.5287 11.033 83.2756 10.4001 82.7764 9.90731C82.2815 9.41448 81.6671 9.16737 80.9471 9.16737C80.2216 9.16737 79.6128 9.41448 79.1122 9.90731C78.6131 10.4001 78.36 11.033 78.36 11.8004C78.36 12.5678 78.6131 13.2006 79.1122 13.6935Z" fill="#1C1C1C"/>
<path d="M83.419 14.2453C82.7539 14.9112 81.93 15.2434 80.9471 15.2434C79.9587 15.2434 79.1347 14.9112 78.4697 14.2453C77.806 13.5809 77.4756 12.7655 77.4756 11.8004C77.4756 10.8353 77.806 10.0199 78.4697 9.35544C79.1347 8.68964 79.9587 8.35742 80.9471 8.35742C81.9244 8.35742 82.7483 8.68964 83.4134 9.36094C84.0827 10.0309 84.4131 10.8408 84.4131 11.8004C84.4131 12.7655 84.0827 13.5809 83.419 14.2453ZM79.1122 13.6935C79.6128 14.1863 80.2216 14.4334 80.9471 14.4334C81.6671 14.4334 82.2815 14.1863 82.7764 13.6935C83.2756 13.2006 83.5287 12.5678 83.5287 11.8004C83.5287 11.033 83.2756 10.4001 82.7764 9.90731C82.2815 9.41448 81.6671 9.16737 80.9471 9.16737C80.2216 9.16737 79.6128 9.41448 79.1122 9.90731C78.6131 10.4001 78.36 11.033 78.36 11.8004C78.36 12.5678 78.6131 13.2006 79.1122 13.6935Z" fill="black" fill-opacity="0.2"/>
<path d="M83.419 14.2453C82.7539 14.9112 81.93 15.2434 80.9471 15.2434C79.9587 15.2434 79.1347 14.9112 78.4697 14.2453C77.806 13.5809 77.4756 12.7655 77.4756 11.8004C77.4756 10.8353 77.806 10.0199 78.4697 9.35544C79.1347 8.68964 79.9587 8.35742 80.9471 8.35742C81.9244 8.35742 82.7483 8.68964 83.4134 9.36094C84.0827 10.0309 84.4131 10.8408 84.4131 11.8004C84.4131 12.7655 84.0827 13.5809 83.419 14.2453ZM79.1122 13.6935C79.6128 14.1863 80.2216 14.4334 80.9471 14.4334C81.6671 14.4334 82.2815 14.1863 82.7764 13.6935C83.2756 13.2006 83.5287 12.5678 83.5287 11.8004C83.5287 11.033 83.2756 10.4001 82.7764 9.90731C82.2815 9.41448 81.6671 9.16737 80.9471 9.16737C80.2216 9.16737 79.6128 9.41448 79.1122 9.90731C78.6131 10.4001 78.36 11.033 78.36 11.8004C78.36 12.5678 78.6131 13.2006 79.1122 13.6935Z" fill="black" fill-opacity="0.2"/>
<path d="M83.419 14.2453C82.7539 14.9112 81.93 15.2434 80.9471 15.2434C79.9587 15.2434 79.1347 14.9112 78.4697 14.2453C77.806 13.5809 77.4756 12.7655 77.4756 11.8004C77.4756 10.8353 77.806 10.0199 78.4697 9.35544C79.1347 8.68964 79.9587 8.35742 80.9471 8.35742C81.9244 8.35742 82.7483 8.68964 83.4134 9.36094C84.0827 10.0309 84.4131 10.8408 84.4131 11.8004C84.4131 12.7655 84.0827 13.5809 83.419 14.2453ZM79.1122 13.6935C79.6128 14.1863 80.2216 14.4334 80.9471 14.4334C81.6671 14.4334 82.2815 14.1863 82.7764 13.6935C83.2756 13.2006 83.5287 12.5678 83.5287 11.8004C83.5287 11.033 83.2756 10.4001 82.7764 9.90731C82.2815 9.41448 81.6671 9.16737 80.9471 9.16737C80.2216 9.16737 79.6128 9.41448 79.1122 9.90731C78.6131 10.4001 78.36 11.033 78.36 11.8004C78.36 12.5678 78.6131 13.2006 79.1122 13.6935Z" stroke="#1C1C1C" stroke-width="0.243252" stroke-miterlimit="10"/>
<path d="M83.419 14.2453C82.7539 14.9112 81.93 15.2434 80.9471 15.2434C79.9587 15.2434 79.1347 14.9112 78.4697 14.2453C77.806 13.5809 77.4756 12.7655 77.4756 11.8004C77.4756 10.8353 77.806 10.0199 78.4697 9.35544C79.1347 8.68964 79.9587 8.35742 80.9471 8.35742C81.9244 8.35742 82.7483 8.68964 83.4134 9.36094C84.0827 10.0309 84.4131 10.8408 84.4131 11.8004C84.4131 12.7655 84.0827 13.5809 83.419 14.2453ZM79.1122 13.6935C79.6128 14.1863 80.2216 14.4334 80.9471 14.4334C81.6671 14.4334 82.2815 14.1863 82.7764 13.6935C83.2756 13.2006 83.5287 12.5678 83.5287 11.8004C83.5287 11.033 83.2756 10.4001 82.7764 9.90731C82.2815 9.41448 81.6671 9.16737 80.9471 9.16737C80.2216 9.16737 79.6128 9.41448 79.1122 9.90731C78.6131 10.4001 78.36 11.033 78.36 11.8004C78.36 12.5678 78.6131 13.2006 79.1122 13.6935Z" stroke="black" stroke-opacity="0.2" stroke-width="0.243252" stroke-miterlimit="10"/>
<path d="M83.419 14.2453C82.7539 14.9112 81.93 15.2434 80.9471 15.2434C79.9587 15.2434 79.1347 14.9112 78.4697 14.2453C77.806 13.5809 77.4756 12.7655 77.4756 11.8004C77.4756 10.8353 77.806 10.0199 78.4697 9.35544C79.1347 8.68964 79.9587 8.35742 80.9471 8.35742C81.9244 8.35742 82.7483 8.68964 83.4134 9.36094C84.0827 10.0309 84.4131 10.8408 84.4131 11.8004C84.4131 12.7655 84.0827 13.5809 83.419 14.2453ZM79.1122 13.6935C79.6128 14.1863 80.2216 14.4334 80.9471 14.4334C81.6671 14.4334 82.2815 14.1863 82.7764 13.6935C83.2756 13.2006 83.5287 12.5678 83.5287 11.8004C83.5287 11.033 83.2756 10.4001 82.7764 9.90731C82.2815 9.41448 81.6671 9.16737 80.9471 9.16737C80.2216 9.16737 79.6128 9.41448 79.1122 9.90731C78.6131 10.4001 78.36 11.033 78.36 11.8004C78.36 12.5678 78.6131 13.2006 79.1122 13.6935Z" stroke="black" stroke-opacity="0.2" stroke-width="0.243252" stroke-miterlimit="10"/>
</g>
</g>
<g id="g42">
<g id="path44">
<path d="M85.6309 15.0937V8.50977H86.6854L89.9643 13.6303H90.0023L89.9643 12.3646V8.50977H90.8319V15.0937H89.9264L86.4928 9.72057H86.4548L86.4928 10.9918V15.0937H85.6309Z" fill="#1C1C1C"/>
<path d="M85.6309 15.0937V8.50977H86.6854L89.9643 13.6303H90.0023L89.9643 12.3646V8.50977H90.8319V15.0937H89.9264L86.4928 9.72057H86.4548L86.4928 10.9918V15.0937H85.6309Z" fill="black" fill-opacity="0.2"/>
<path d="M85.6309 15.0937V8.50977H86.6854L89.9643 13.6303H90.0023L89.9643 12.3646V8.50977H90.8319V15.0937H89.9264L86.4928 9.72057H86.4548L86.4928 10.9918V15.0937H85.6309Z" fill="black" fill-opacity="0.2"/>
<path d="M85.6309 15.0937V8.50977H86.6854L89.9643 13.6303H90.0023L89.9643 12.3646V8.50977H90.8319V15.0937H89.9264L86.4928 9.72057H86.4548L86.4928 10.9918V15.0937H85.6309Z" stroke="#1C1C1C" stroke-width="0.243252" stroke-miterlimit="10"/>
<path d="M85.6309 15.0937V8.50977H86.6854L89.9643 13.6303H90.0023L89.9643 12.3646V8.50977H90.8319V15.0937H89.9264L86.4928 9.72057H86.4548L86.4928 10.9918V15.0937H85.6309Z" stroke="black" stroke-opacity="0.2" stroke-width="0.243252" stroke-miterlimit="10"/>
<path d="M85.6309 15.0937V8.50977H86.6854L89.9643 13.6303H90.0023L89.9643 12.3646V8.50977H90.8319V15.0937H89.9264L86.4928 9.72057H86.4548L86.4928 10.9918V15.0937H85.6309Z" stroke="black" stroke-opacity="0.2" stroke-width="0.243252" stroke-miterlimit="10"/>
</g>
</g>
<g id="path46">
<path d="M77.26 24.7084C74.618 24.7084 72.4597 26.6715 72.4597 29.38C72.4597 32.0666 74.618 34.0502 77.26 34.0502C79.9076 34.0502 82.0659 32.0666 82.0659 29.38C82.0659 26.6715 79.9076 24.7084 77.26 24.7084ZM77.26 32.2107C75.8103 32.2107 74.5632 31.0425 74.5632 29.38C74.5632 27.6956 75.8103 26.5479 77.26 26.5479C78.7096 26.5479 79.9624 27.6956 79.9624 29.38C79.9624 31.0425 78.7096 32.2107 77.26 32.2107ZM66.7862 24.7084C64.1386 24.7084 61.986 26.6715 61.986 29.38C61.986 32.0666 64.1386 34.0502 66.7862 34.0502C69.4325 34.0502 71.5865 32.0666 71.5865 29.38C71.5865 26.6715 69.4325 24.7084 66.7862 24.7084ZM66.7862 32.2107C65.3352 32.2107 64.0838 31.0425 64.0838 29.38C64.0838 27.6956 65.3352 26.5479 66.7862 26.5479C68.2359 26.5479 69.4831 27.6956 69.4831 29.38C69.4831 31.0425 68.2359 32.2107 66.7862 32.2107ZM54.3229 26.1402V28.1253H59.1781C59.036 29.2345 58.6564 30.0499 58.0743 30.6183C57.3656 31.3047 56.2619 32.0666 54.3229 32.0666C51.335 32.0666 48.9954 29.7122 48.9954 26.795C48.9954 23.8778 51.335 21.5235 54.3229 21.5235C55.9385 21.5235 57.114 22.1399 57.9815 22.9388L59.4143 21.54C58.2008 20.4088 56.5867 19.5398 54.3229 19.5398C50.2257 19.5398 46.7822 22.7947 46.7822 26.795C46.7822 30.7954 50.2257 34.0502 54.3229 34.0502C56.5375 34.0502 58.2008 33.3419 59.5085 32.013C60.8485 30.7047 61.2661 28.8652 61.2661 27.3798C61.2661 26.9186 61.2267 26.4944 61.1564 26.1402H54.3229ZM105.287 27.6791C104.892 26.6344 103.673 24.7084 101.19 24.7084C98.7291 24.7084 96.6805 26.6015 96.6805 29.38C96.6805 31.9965 98.708 34.0502 101.426 34.0502C103.624 34.0502 104.892 32.742 105.414 31.9801L103.783 30.9189C103.238 31.6959 102.497 32.2107 101.426 32.2107C100.362 32.2107 99.5981 31.7343 99.1088 30.7954L105.508 28.2104L105.287 27.6791ZM98.7629 29.2345C98.708 27.4334 100.196 26.5109 101.261 26.5109C102.097 26.5109 102.805 26.9186 103.042 27.502L98.7629 29.2345ZM93.5619 33.7661H95.6653V20.0381H93.5619V33.7661ZM90.117 25.749H90.0467C89.5743 25.2026 88.673 24.7084 87.5313 24.7084C85.1353 24.7084 82.9447 26.7621 82.9447 29.3951C82.9447 32.013 85.1353 34.0502 87.5313 34.0502C88.673 34.0502 89.5743 33.5519 90.0467 32.9891H90.117V33.659C90.117 35.445 89.1398 36.4046 87.5636 36.4046C86.2785 36.4046 85.4812 35.4985 85.1522 34.7366L83.3229 35.4821C83.8502 36.7203 85.2464 38.2441 87.5636 38.2441C90.0298 38.2441 92.1108 36.8274 92.1108 33.3803V24.9925H90.117V25.749ZM87.7112 32.2107C86.2616 32.2107 85.0482 31.026 85.0482 29.3951C85.0482 27.7491 86.2616 26.5479 87.7112 26.5479C89.1398 26.5479 90.2661 27.7491 90.2661 29.3951C90.2661 31.026 89.1398 32.2107 87.7112 32.2107ZM115.135 20.0381H110.104V33.7661H112.202V28.5646H115.135C117.465 28.5646 119.75 26.9186 119.75 24.3007C119.75 21.6841 117.459 20.0381 115.135 20.0381ZM115.19 26.655H112.202V21.9477H115.19C116.756 21.9477 117.65 23.2175 117.65 24.3007C117.65 25.3632 116.756 26.655 115.19 26.655ZM128.158 24.6823C126.642 24.6823 125.066 25.3357 124.418 26.784L126.279 27.5459C126.68 26.784 127.417 26.5369 128.196 26.5369C129.284 26.5369 130.388 27.1753 130.405 28.3024V28.4465C130.025 28.2323 129.213 27.9152 128.213 27.9152C126.208 27.9152 124.165 28.9929 124.165 31.004C124.165 32.8436 125.807 34.0283 127.653 34.0283C129.065 34.0283 129.844 33.4064 130.333 32.6829H130.405V33.7441H132.431V28.4781C132.431 26.0441 130.569 24.6823 128.158 24.6823ZM127.905 32.2052C127.219 32.2052 126.263 31.873 126.263 31.0425C126.263 29.9799 127.455 29.5722 128.487 29.5722C129.411 29.5722 129.844 29.7712 130.405 30.0335C130.24 31.3047 129.12 32.2052 127.905 32.2052ZM139.813 24.9829L137.401 30.934H137.33L134.837 24.9829H132.574L136.32 33.2993L134.183 37.927H136.375L142.147 24.9829H139.813ZM120.903 33.7661H123.006V20.0381H120.903V33.7661Z" fill="#1C1C1C"/>
<path d="M77.26 24.7084C74.618 24.7084 72.4597 26.6715 72.4597 29.38C72.4597 32.0666 74.618 34.0502 77.26 34.0502C79.9076 34.0502 82.0659 32.0666 82.0659 29.38C82.0659 26.6715 79.9076 24.7084 77.26 24.7084ZM77.26 32.2107C75.8103 32.2107 74.5632 31.0425 74.5632 29.38C74.5632 27.6956 75.8103 26.5479 77.26 26.5479C78.7096 26.5479 79.9624 27.6956 79.9624 29.38C79.9624 31.0425 78.7096 32.2107 77.26 32.2107ZM66.7862 24.7084C64.1386 24.7084 61.986 26.6715 61.986 29.38C61.986 32.0666 64.1386 34.0502 66.7862 34.0502C69.4325 34.0502 71.5865 32.0666 71.5865 29.38C71.5865 26.6715 69.4325 24.7084 66.7862 24.7084ZM66.7862 32.2107C65.3352 32.2107 64.0838 31.0425 64.0838 29.38C64.0838 27.6956 65.3352 26.5479 66.7862 26.5479C68.2359 26.5479 69.4831 27.6956 69.4831 29.38C69.4831 31.0425 68.2359 32.2107 66.7862 32.2107ZM54.3229 26.1402V28.1253H59.1781C59.036 29.2345 58.6564 30.0499 58.0743 30.6183C57.3656 31.3047 56.2619 32.0666 54.3229 32.0666C51.335 32.0666 48.9954 29.7122 48.9954 26.795C48.9954 23.8778 51.335 21.5235 54.3229 21.5235C55.9385 21.5235 57.114 22.1399 57.9815 22.9388L59.4143 21.54C58.2008 20.4088 56.5867 19.5398 54.3229 19.5398C50.2257 19.5398 46.7822 22.7947 46.7822 26.795C46.7822 30.7954 50.2257 34.0502 54.3229 34.0502C56.5375 34.0502 58.2008 33.3419 59.5085 32.013C60.8485 30.7047 61.2661 28.8652 61.2661 27.3798C61.2661 26.9186 61.2267 26.4944 61.1564 26.1402H54.3229ZM105.287 27.6791C104.892 26.6344 103.673 24.7084 101.19 24.7084C98.7291 24.7084 96.6805 26.6015 96.6805 29.38C96.6805 31.9965 98.708 34.0502 101.426 34.0502C103.624 34.0502 104.892 32.742 105.414 31.9801L103.783 30.9189C103.238 31.6959 102.497 32.2107 101.426 32.2107C100.362 32.2107 99.5981 31.7343 99.1088 30.7954L105.508 28.2104L105.287 27.6791ZM98.7629 29.2345C98.708 27.4334 100.196 26.5109 101.261 26.5109C102.097 26.5109 102.805 26.9186 103.042 27.502L98.7629 29.2345ZM93.5619 33.7661H95.6653V20.0381H93.5619V33.7661ZM90.117 25.749H90.0467C89.5743 25.2026 88.673 24.7084 87.5313 24.7084C85.1353 24.7084 82.9447 26.7621 82.9447 29.3951C82.9447 32.013 85.1353 34.0502 87.5313 34.0502C88.673 34.0502 89.5743 33.5519 90.0467 32.9891H90.117V33.659C90.117 35.445 89.1398 36.4046 87.5636 36.4046C86.2785 36.4046 85.4812 35.4985 85.1522 34.7366L83.3229 35.4821C83.8502 36.7203 85.2464 38.2441 87.5636 38.2441C90.0298 38.2441 92.1108 36.8274 92.1108 33.3803V24.9925H90.117V25.749ZM87.7112 32.2107C86.2616 32.2107 85.0482 31.026 85.0482 29.3951C85.0482 27.7491 86.2616 26.5479 87.7112 26.5479C89.1398 26.5479 90.2661 27.7491 90.2661 29.3951C90.2661 31.026 89.1398 32.2107 87.7112 32.2107ZM115.135 20.0381H110.104V33.7661H112.202V28.5646H115.135C117.465 28.5646 119.75 26.9186 119.75 24.3007C119.75 21.6841 117.459 20.0381 115.135 20.0381ZM115.19 26.655H112.202V21.9477H115.19C116.756 21.9477 117.65 23.2175 117.65 24.3007C117.65 25.3632 116.756 26.655 115.19 26.655ZM128.158 24.6823C126.642 24.6823 125.066 25.3357 124.418 26.784L126.279 27.5459C126.68 26.784 127.417 26.5369 128.196 26.5369C129.284 26.5369 130.388 27.1753 130.405 28.3024V28.4465C130.025 28.2323 129.213 27.9152 128.213 27.9152C126.208 27.9152 124.165 28.9929 124.165 31.004C124.165 32.8436 125.807 34.0283 127.653 34.0283C129.065 34.0283 129.844 33.4064 130.333 32.6829H130.405V33.7441H132.431V28.4781C132.431 26.0441 130.569 24.6823 128.158 24.6823ZM127.905 32.2052C127.219 32.2052 126.263 31.873 126.263 31.0425C126.263 29.9799 127.455 29.5722 128.487 29.5722C129.411 29.5722 129.844 29.7712 130.405 30.0335C130.24 31.3047 129.12 32.2052 127.905 32.2052ZM139.813 24.9829L137.401 30.934H137.33L134.837 24.9829H132.574L136.32 33.2993L134.183 37.927H136.375L142.147 24.9829H139.813ZM120.903 33.7661H123.006V20.0381H120.903V33.7661Z" fill="black" fill-opacity="0.2"/>
<path d="M77.26 24.7084C74.618 24.7084 72.4597 26.6715 72.4597 29.38C72.4597 32.0666 74.618 34.0502 77.26 34.0502C79.9076 34.0502 82.0659 32.0666 82.0659 29.38C82.0659 26.6715 79.9076 24.7084 77.26 24.7084ZM77.26 32.2107C75.8103 32.2107 74.5632 31.0425 74.5632 29.38C74.5632 27.6956 75.8103 26.5479 77.26 26.5479C78.7096 26.5479 79.9624 27.6956 79.9624 29.38C79.9624 31.0425 78.7096 32.2107 77.26 32.2107ZM66.7862 24.7084C64.1386 24.7084 61.986 26.6715 61.986 29.38C61.986 32.0666 64.1386 34.0502 66.7862 34.0502C69.4325 34.0502 71.5865 32.0666 71.5865 29.38C71.5865 26.6715 69.4325 24.7084 66.7862 24.7084ZM66.7862 32.2107C65.3352 32.2107 64.0838 31.0425 64.0838 29.38C64.0838 27.6956 65.3352 26.5479 66.7862 26.5479C68.2359 26.5479 69.4831 27.6956 69.4831 29.38C69.4831 31.0425 68.2359 32.2107 66.7862 32.2107ZM54.3229 26.1402V28.1253H59.1781C59.036 29.2345 58.6564 30.0499 58.0743 30.6183C57.3656 31.3047 56.2619 32.0666 54.3229 32.0666C51.335 32.0666 48.9954 29.7122 48.9954 26.795C48.9954 23.8778 51.335 21.5235 54.3229 21.5235C55.9385 21.5235 57.114 22.1399 57.9815 22.9388L59.4143 21.54C58.2008 20.4088 56.5867 19.5398 54.3229 19.5398C50.2257 19.5398 46.7822 22.7947 46.7822 26.795C46.7822 30.7954 50.2257 34.0502 54.3229 34.0502C56.5375 34.0502 58.2008 33.3419 59.5085 32.013C60.8485 30.7047 61.2661 28.8652 61.2661 27.3798C61.2661 26.9186 61.2267 26.4944 61.1564 26.1402H54.3229ZM105.287 27.6791C104.892 26.6344 103.673 24.7084 101.19 24.7084C98.7291 24.7084 96.6805 26.6015 96.6805 29.38C96.6805 31.9965 98.708 34.0502 101.426 34.0502C103.624 34.0502 104.892 32.742 105.414 31.9801L103.783 30.9189C103.238 31.6959 102.497 32.2107 101.426 32.2107C100.362 32.2107 99.5981 31.7343 99.1088 30.7954L105.508 28.2104L105.287 27.6791ZM98.7629 29.2345C98.708 27.4334 100.196 26.5109 101.261 26.5109C102.097 26.5109 102.805 26.9186 103.042 27.502L98.7629 29.2345ZM93.5619 33.7661H95.6653V20.0381H93.5619V33.7661ZM90.117 25.749H90.0467C89.5743 25.2026 88.673 24.7084 87.5313 24.7084C85.1353 24.7084 82.9447 26.7621 82.9447 29.3951C82.9447 32.013 85.1353 34.0502 87.5313 34.0502C88.673 34.0502 89.5743 33.5519 90.0467 32.9891H90.117V33.659C90.117 35.445 89.1398 36.4046 87.5636 36.4046C86.2785 36.4046 85.4812 35.4985 85.1522 34.7366L83.3229 35.4821C83.8502 36.7203 85.2464 38.2441 87.5636 38.2441C90.0298 38.2441 92.1108 36.8274 92.1108 33.3803V24.9925H90.117V25.749ZM87.7112 32.2107C86.2616 32.2107 85.0482 31.026 85.0482 29.3951C85.0482 27.7491 86.2616 26.5479 87.7112 26.5479C89.1398 26.5479 90.2661 27.7491 90.2661 29.3951C90.2661 31.026 89.1398 32.2107 87.7112 32.2107ZM115.135 20.0381H110.104V33.7661H112.202V28.5646H115.135C117.465 28.5646 119.75 26.9186 119.75 24.3007C119.75 21.6841 117.459 20.0381 115.135 20.0381ZM115.19 26.655H112.202V21.9477H115.19C116.756 21.9477 117.65 23.2175 117.65 24.3007C117.65 25.3632 116.756 26.655 115.19 26.655ZM128.158 24.6823C126.642 24.6823 125.066 25.3357 124.418 26.784L126.279 27.5459C126.68 26.784 127.417 26.5369 128.196 26.5369C129.284 26.5369 130.388 27.1753 130.405 28.3024V28.4465C130.025 28.2323 129.213 27.9152 128.213 27.9152C126.208 27.9152 124.165 28.9929 124.165 31.004C124.165 32.8436 125.807 34.0283 127.653 34.0283C129.065 34.0283 129.844 33.4064 130.333 32.6829H130.405V33.7441H132.431V28.4781C132.431 26.0441 130.569 24.6823 128.158 24.6823ZM127.905 32.2052C127.219 32.2052 126.263 31.873 126.263 31.0425C126.263 29.9799 127.455 29.5722 128.487 29.5722C129.411 29.5722 129.844 29.7712 130.405 30.0335C130.24 31.3047 129.12 32.2052 127.905 32.2052ZM139.813 24.9829L137.401 30.934H137.33L134.837 24.9829H132.574L136.32 33.2993L134.183 37.927H136.375L142.147 24.9829H139.813ZM120.903 33.7661H123.006V20.0381H120.903V33.7661Z" fill="black" fill-opacity="0.2"/>
</g>
<g id="g48">
<path id="path64" d="M12.3576 9.09643C12.0272 9.43414 11.8359 9.95992 11.8359 10.6408V34.9283C11.8359 35.6093 12.0272 36.135 12.3576 36.4727L12.4391 36.5469L26.3788 22.9425V22.6212L12.4391 9.01681L12.3576 9.09643Z" fill="url(#paint0_linear_2128_161057)"/>
</g>
<g id="g66">
<path id="path78" d="M31.0203 27.4805L26.3789 22.9434V22.6221L31.0259 18.0851L31.13 18.1441L36.6333 21.2013C38.2039 22.0689 38.2039 23.4966 36.6333 24.3697L31.13 27.4214L31.0203 27.4805Z" fill="url(#paint1_linear_2128_161057)"/>
</g>
<g id="g80">
<path id="path88" d="M31.1297 27.4227L26.3787 22.784L12.3574 36.4749C12.8791 37.0103 13.7297 37.0748 14.6971 36.5394L31.1297 27.4227Z" fill="url(#paint2_linear_2128_161057)"/>
</g>
<g id="g90">
<path id="path104" d="M31.1297 18.1445L14.6971 9.02779C13.7297 8.49789 12.8791 8.56241 12.3574 9.0978L26.3787 22.7832L31.1297 18.1445Z" fill="url(#paint3_linear_2128_161057)"/>
</g>
</g>
<defs>
<linearGradient id="paint0_linear_2128_161057" x1="25.1411" y1="35.1813" x2="6.71537" y2="16.309" gradientUnits="userSpaceOnUse">
<stop stop-color="#00A0FF"/>
<stop offset="0.0066" stop-color="#00A1FF"/>
<stop offset="0.2601" stop-color="#00BEFF"/>
<stop offset="0.5122" stop-color="#00D2FF"/>
<stop offset="0.7604" stop-color="#00DFFF"/>
<stop offset="1" stop-color="#00E3FF"/>
</linearGradient>
<linearGradient id="paint1_linear_2128_161057" x1="38.6785" y1="22.7812" x2="11.4606" y2="22.7812" gradientUnits="userSpaceOnUse">
<stop stop-color="#FFE000"/>
<stop offset="0.4087" stop-color="#FFBD00"/>
<stop offset="0.7754" stop-color="#FFA500"/>
<stop offset="1" stop-color="#FF9C00"/>
</linearGradient>
<linearGradient id="paint2_linear_2128_161057" x1="28.5462" y1="20.2623" x2="3.5594" y2="-5.32997" gradientUnits="userSpaceOnUse">
<stop stop-color="#FF3A44"/>
<stop offset="1" stop-color="#C31162"/>
</linearGradient>
<linearGradient id="paint3_linear_2128_161057" x1="8.82798" y1="44.5544" x2="19.9857" y2="33.1264" gradientUnits="userSpaceOnUse">
<stop stop-color="#32A071"/>
<stop offset="0.0685" stop-color="#2DA771"/>
<stop offset="0.4762" stop-color="#15CF74"/>
<stop offset="0.8009" stop-color="#06E775"/>
<stop offset="1" stop-color="#00F076"/>
</linearGradient>
</defs>
</svg>
