<svg width="128" height="127" viewBox="0 0 128 127" fill="none" xmlns="http://www.w3.org/2000/svg">
<g id="Group">
<g id="Group_2">
<path id="Vector" d="M5.39634 11.0269C8.35072 11.0269 10.7456 8.63189 10.7456 5.67751C10.7456 2.72313 8.35072 0.328125 5.39634 0.328125C2.44195 0.328125 0.046875 2.72313 0.046875 5.67751C0.046875 8.63189 2.44195 11.0269 5.39634 11.0269Z" fill="#B2DDFF"/>
<path id="Vector_2" d="M28.779 11.0269C31.7333 11.0269 34.1284 8.63189 34.1284 5.67751C34.1284 2.72313 31.7333 0.328125 28.779 0.328125C25.8246 0.328125 23.4297 2.72313 23.4297 5.67751C23.4297 8.63189 25.8246 11.0269 28.779 11.0269Z" fill="#B2DDFF"/>
<path id="Vector_3" d="M52.162 11.0269C55.1163 11.0269 57.5112 8.63189 57.5112 5.67751C57.5112 2.72313 55.1163 0.328125 52.162 0.328125C49.2076 0.328125 46.8125 2.72313 46.8125 5.67751C46.8125 8.63189 49.2076 11.0269 52.162 11.0269Z" fill="#B2DDFF"/>
<path id="Vector_4" d="M75.5875 11.0269C78.5419 11.0269 80.937 8.63189 80.937 5.67751C80.937 2.72313 78.5419 0.328125 75.5875 0.328125C72.6332 0.328125 70.2383 2.72313 70.2383 5.67751C70.2383 8.63189 72.6332 11.0269 75.5875 11.0269Z" fill="#B2DDFF"/>
<path id="Vector_5" d="M98.9706 11.0269C101.925 11.0269 104.32 8.63189 104.32 5.67751C104.32 2.72313 101.925 0.328125 98.9706 0.328125C96.0162 0.328125 93.6211 2.72313 93.6211 5.67751C93.6211 8.63189 96.0162 11.0269 98.9706 11.0269Z" fill="#B2DDFF"/>
<path id="Vector_6" d="M122.392 11.0269C125.347 11.0269 127.742 8.63189 127.742 5.67751C127.742 2.72313 125.347 0.328125 122.392 0.328125C119.438 0.328125 117.043 2.72313 117.043 5.67751C117.043 8.63189 119.438 11.0269 122.392 11.0269Z" fill="#B2DDFF"/>
</g>
<g id="Group_3">
<path id="Vector_7" d="M5.39634 30.316C8.35072 30.316 10.7456 27.921 10.7456 24.9666C10.7456 22.0122 8.35072 19.6172 5.39634 19.6172C2.44195 19.6172 0.046875 22.0122 0.046875 24.9666C0.046875 27.921 2.44195 30.316 5.39634 30.316Z" fill="#B2DDFF"/>
<path id="Vector_8" d="M28.779 30.316C31.7333 30.316 34.1284 27.921 34.1284 24.9666C34.1284 22.0122 31.7333 19.6172 28.779 19.6172C25.8246 19.6172 23.4297 22.0122 23.4297 24.9666C23.4297 27.921 25.8246 30.316 28.779 30.316Z" fill="#B2DDFF"/>
<path id="Vector_9" d="M52.162 30.316C55.1163 30.316 57.5112 27.921 57.5112 24.9666C57.5112 22.0122 55.1163 19.6172 52.162 19.6172C49.2076 19.6172 46.8125 22.0122 46.8125 24.9666C46.8125 27.921 49.2076 30.316 52.162 30.316Z" fill="#B2DDFF"/>
<path id="Vector_10" d="M75.5875 30.316C78.5419 30.316 80.937 27.921 80.937 24.9666C80.937 22.0122 78.5419 19.6172 75.5875 19.6172C72.6332 19.6172 70.2383 22.0122 70.2383 24.9666C70.2383 27.921 72.6332 30.316 75.5875 30.316Z" fill="#B2DDFF"/>
<path id="Vector_11" d="M98.9706 30.316C101.925 30.316 104.32 27.921 104.32 24.9666C104.32 22.0122 101.925 19.6172 98.9706 19.6172C96.0162 19.6172 93.6211 22.0122 93.6211 24.9666C93.6211 27.921 96.0162 30.316 98.9706 30.316Z" fill="#B2DDFF"/>
<path id="Vector_12" d="M122.392 30.316C125.347 30.316 127.742 27.921 127.742 24.9666C127.742 22.0122 125.347 19.6172 122.392 19.6172C119.438 19.6172 117.043 22.0122 117.043 24.9666C117.043 27.921 119.438 30.316 122.392 30.316Z" fill="#B2DDFF"/>
</g>
<g id="Group_4">
<path id="Vector_13" d="M5.39634 49.605C8.35072 49.605 10.7456 47.21 10.7456 44.2556C10.7456 41.3012 8.35072 38.9062 5.39634 38.9062C2.44195 38.9062 0.046875 41.3012 0.046875 44.2556C0.046875 47.21 2.44195 49.605 5.39634 49.605Z" fill="#B2DDFF"/>
<path id="Vector_14" d="M28.779 49.605C31.7333 49.605 34.1284 47.21 34.1284 44.2556C34.1284 41.3012 31.7333 38.9062 28.779 38.9062C25.8246 38.9062 23.4297 41.3012 23.4297 44.2556C23.4297 47.21 25.8246 49.605 28.779 49.605Z" fill="#B2DDFF"/>
<path id="Vector_15" d="M52.162 49.605C55.1163 49.605 57.5112 47.21 57.5112 44.2556C57.5112 41.3012 55.1163 38.9062 52.162 38.9062C49.2076 38.9062 46.8125 41.3012 46.8125 44.2556C46.8125 47.21 49.2076 49.605 52.162 49.605Z" fill="#B2DDFF"/>
<path id="Vector_16" d="M75.5875 49.605C78.5419 49.605 80.937 47.21 80.937 44.2556C80.937 41.3012 78.5419 38.9062 75.5875 38.9062C72.6332 38.9062 70.2383 41.3012 70.2383 44.2556C70.2383 47.21 72.6332 49.605 75.5875 49.605Z" fill="#B2DDFF"/>
<path id="Vector_17" d="M98.9706 49.605C101.925 49.605 104.32 47.21 104.32 44.2556C104.32 41.3012 101.925 38.9062 98.9706 38.9062C96.0162 38.9062 93.6211 41.3012 93.6211 44.2556C93.6211 47.21 96.0162 49.605 98.9706 49.605Z" fill="#B2DDFF"/>
<path id="Vector_18" d="M122.392 49.605C125.347 49.605 127.742 47.21 127.742 44.2556C127.742 41.3012 125.347 38.9062 122.392 38.9062C119.438 38.9062 117.043 41.3012 117.043 44.2556C117.043 47.21 119.438 49.605 122.392 49.605Z" fill="#B2DDFF"/>
</g>
<g id="Group_5">
<path id="Vector_19" d="M5.39634 68.8921C8.35072 68.8921 10.7456 66.4971 10.7456 63.5427C10.7456 60.5884 8.35072 58.1934 5.39634 58.1934C2.44195 58.1934 0.046875 60.5884 0.046875 63.5427C0.046875 66.4971 2.44195 68.8921 5.39634 68.8921Z" fill="#B2DDFF"/>
<path id="Vector_20" d="M28.779 68.8921C31.7333 68.8921 34.1284 66.4971 34.1284 63.5427C34.1284 60.5884 31.7333 58.1934 28.779 58.1934C25.8246 58.1934 23.4297 60.5884 23.4297 63.5427C23.4297 66.4971 25.8246 68.8921 28.779 68.8921Z" fill="#B2DDFF"/>
<path id="Vector_21" d="M52.162 68.8921C55.1163 68.8921 57.5112 66.4971 57.5112 63.5427C57.5112 60.5884 55.1163 58.1934 52.162 58.1934C49.2076 58.1934 46.8125 60.5884 46.8125 63.5427C46.8125 66.4971 49.2076 68.8921 52.162 68.8921Z" fill="#B2DDFF"/>
<path id="Vector_22" d="M75.5875 68.8921C78.5419 68.8921 80.937 66.4971 80.937 63.5427C80.937 60.5884 78.5419 58.1934 75.5875 58.1934C72.6332 58.1934 70.2383 60.5884 70.2383 63.5427C70.2383 66.4971 72.6332 68.8921 75.5875 68.8921Z" fill="#B2DDFF"/>
<path id="Vector_23" d="M98.9706 68.8921C101.925 68.8921 104.32 66.4971 104.32 63.5427C104.32 60.5884 101.925 58.1934 98.9706 58.1934C96.0162 58.1934 93.6211 60.5884 93.6211 63.5427C93.6211 66.4971 96.0162 68.8921 98.9706 68.8921Z" fill="#B2DDFF"/>
<path id="Vector_24" d="M122.392 68.8921C125.347 68.8921 127.742 66.4971 127.742 63.5427C127.742 60.5884 125.347 58.1934 122.392 58.1934C119.438 58.1934 117.043 60.5884 117.043 63.5427C117.043 66.4971 119.438 68.8921 122.392 68.8921Z" fill="#B2DDFF"/>
</g>
<g id="Group_6">
<path id="Vector_25" d="M5.39634 88.189C8.35072 88.189 10.7456 85.794 10.7456 82.8396C10.7456 79.8852 8.35072 77.4902 5.39634 77.4902C2.44195 77.4902 0.046875 79.8852 0.046875 82.8396C0.046875 85.794 2.44195 88.189 5.39634 88.189Z" fill="#B2DDFF"/>
<path id="Vector_26" d="M28.779 88.189C31.7333 88.189 34.1284 85.794 34.1284 82.8396C34.1284 79.8852 31.7333 77.4902 28.779 77.4902C25.8246 77.4902 23.4297 79.8852 23.4297 82.8396C23.4297 85.794 25.8246 88.189 28.779 88.189Z" fill="#B2DDFF"/>
<path id="Vector_27" d="M52.162 88.189C55.1163 88.189 57.5112 85.794 57.5112 82.8396C57.5112 79.8852 55.1163 77.4902 52.162 77.4902C49.2076 77.4902 46.8125 79.8852 46.8125 82.8396C46.8125 85.794 49.2076 88.189 52.162 88.189Z" fill="#B2DDFF"/>
<path id="Vector_28" d="M75.5875 88.189C78.5419 88.189 80.937 85.794 80.937 82.8396C80.937 79.8852 78.5419 77.4902 75.5875 77.4902C72.6332 77.4902 70.2383 79.8852 70.2383 82.8396C70.2383 85.794 72.6332 88.189 75.5875 88.189Z" fill="#B2DDFF"/>
<path id="Vector_29" d="M98.9706 88.189C101.925 88.189 104.32 85.794 104.32 82.8396C104.32 79.8852 101.925 77.4902 98.9706 77.4902C96.0162 77.4902 93.6211 79.8852 93.6211 82.8396C93.6211 85.794 96.0162 88.189 98.9706 88.189Z" fill="#B2DDFF"/>
<path id="Vector_30" d="M122.392 88.189C125.347 88.189 127.742 85.794 127.742 82.8396C127.742 79.8852 125.347 77.4902 122.392 77.4902C119.438 77.4902 117.043 79.8852 117.043 82.8396C117.043 85.794 119.438 88.189 122.392 88.189Z" fill="#B2DDFF"/>
</g>
<g id="Group_7">
<path id="Vector_31" d="M5.39634 107.474C8.35072 107.474 10.7456 105.079 10.7456 102.125C10.7456 99.1704 8.35072 96.7754 5.39634 96.7754C2.44195 96.7754 0.046875 99.1704 0.046875 102.125C0.046875 105.079 2.44195 107.474 5.39634 107.474Z" fill="#B2DDFF"/>
<path id="Vector_32" d="M28.779 107.474C31.7333 107.474 34.1284 105.079 34.1284 102.125C34.1284 99.1704 31.7333 96.7754 28.779 96.7754C25.8246 96.7754 23.4297 99.1704 23.4297 102.125C23.4297 105.079 25.8246 107.474 28.779 107.474Z" fill="#B2DDFF"/>
<path id="Vector_33" d="M52.162 107.474C55.1163 107.474 57.5112 105.079 57.5112 102.125C57.5112 99.1704 55.1163 96.7754 52.162 96.7754C49.2076 96.7754 46.8125 99.1704 46.8125 102.125C46.8125 105.079 49.2076 107.474 52.162 107.474Z" fill="#B2DDFF"/>
<path id="Vector_34" d="M75.5875 107.474C78.5419 107.474 80.937 105.079 80.937 102.125C80.937 99.1704 78.5419 96.7754 75.5875 96.7754C72.6332 96.7754 70.2383 99.1704 70.2383 102.125C70.2383 105.079 72.6332 107.474 75.5875 107.474Z" fill="#B2DDFF"/>
<path id="Vector_35" d="M98.9706 107.474C101.925 107.474 104.32 105.079 104.32 102.125C104.32 99.1704 101.925 96.7754 98.9706 96.7754C96.0162 96.7754 93.6211 99.1704 93.6211 102.125C93.6211 105.079 96.0162 107.474 98.9706 107.474Z" fill="#B2DDFF"/>
<path id="Vector_36" d="M122.392 107.474C125.347 107.474 127.742 105.079 127.742 102.125C127.742 99.1704 125.347 96.7754 122.392 96.7754C119.438 96.7754 117.043 99.1704 117.043 102.125C117.043 105.079 119.438 107.474 122.392 107.474Z" fill="#B2DDFF"/>
</g>
<g id="Group_8">
<path id="Vector_37" d="M5.39634 126.767C8.35072 126.767 10.7456 124.372 10.7456 121.418C10.7456 118.463 8.35072 116.068 5.39634 116.068C2.44195 116.068 0.046875 118.463 0.046875 121.418C0.046875 124.372 2.44195 126.767 5.39634 126.767Z" fill="#B2DDFF"/>
<path id="Vector_38" d="M28.779 126.767C31.7333 126.767 34.1284 124.372 34.1284 121.418C34.1284 118.463 31.7333 116.068 28.779 116.068C25.8246 116.068 23.4297 118.463 23.4297 121.418C23.4297 124.372 25.8246 126.767 28.779 126.767Z" fill="#B2DDFF"/>
<path id="Vector_39" d="M52.162 126.767C55.1163 126.767 57.5112 124.372 57.5112 121.418C57.5112 118.463 55.1163 116.068 52.162 116.068C49.2076 116.068 46.8125 118.463 46.8125 121.418C46.8125 124.372 49.2076 126.767 52.162 126.767Z" fill="#B2DDFF"/>
<path id="Vector_40" d="M75.5875 126.767C78.5419 126.767 80.937 124.372 80.937 121.418C80.937 118.463 78.5419 116.068 75.5875 116.068C72.6332 116.068 70.2383 118.463 70.2383 121.418C70.2383 124.372 72.6332 126.767 75.5875 126.767Z" fill="#B2DDFF"/>
<path id="Vector_41" d="M98.9706 126.767C101.925 126.767 104.32 124.372 104.32 121.418C104.32 118.463 101.925 116.068 98.9706 116.068C96.0162 116.068 93.6211 118.463 93.6211 121.418C93.6211 124.372 96.0162 126.767 98.9706 126.767Z" fill="#B2DDFF"/>
<path id="Vector_42" d="M122.392 126.767C125.347 126.767 127.742 124.372 127.742 121.418C127.742 118.463 125.347 116.068 122.392 116.068C119.438 116.068 117.043 118.463 117.043 121.418C117.043 124.372 119.438 126.767 122.392 126.767Z" fill="#B2DDFF"/>
</g>
</g>
</svg>
