<svg width="49" height="49" viewBox="0 0 49 49" fill="none" xmlns="http://www.w3.org/2000/svg">
<g id="Icon" clip-path="url(#clip0_2428_233778)">
<path id="Vector" d="M47.9965 37.1958H47.0315V13.553C47.0315 12.1591 46.5758 11.0064 45.6644 10.095C44.753 9.18361 43.654 8.72791 42.3673 8.72791H39.4722V6.47621C39.4722 5.40398 39.1238 4.51938 38.4268 3.82243C37.7299 3.12548 36.8989 2.777 35.9339 2.777H24.0321C22.9598 2.777 22.0752 3.12548 21.3783 3.82243C20.6813 4.51938 20.3328 5.40398 20.3328 6.47621V8.72791H7.30519C6.0185 8.72791 4.91946 9.18361 4.00806 10.095C3.09666 11.0064 2.64096 12.1591 2.64096 13.553V37.1958H1.67595C1.35428 37.1958 1.11303 37.303 0.95219 37.5174C0.791355 37.7319 0.710938 37.9463 0.710938 38.1608C0.710938 40.3052 1.4615 42.128 2.96263 43.6292C4.46376 45.1303 6.28656 45.8809 8.43103 45.8809H20.6545C20.869 45.8809 21.0566 45.8004 21.2174 45.6396C21.3783 45.4788 21.4587 45.2643 21.4587 44.9963C21.4587 44.7282 21.3783 44.487 21.2174 44.2725C21.0566 44.0581 20.869 43.9508 20.6545 43.9508H8.43103C7.03713 43.9508 5.77725 43.4951 4.6514 42.5837C3.52556 41.6723 2.85541 40.5197 2.64096 39.1258H47.0315C46.8171 40.5197 46.1469 41.6723 45.0211 42.5837C43.8952 43.4951 42.6353 43.9508 41.2414 43.9508H29.018C28.8035 43.9508 28.6159 44.0581 28.455 44.2725C28.2942 44.487 28.2138 44.7282 28.2138 44.9963C28.2138 45.2643 28.2942 45.4788 28.455 45.6396C28.6159 45.8004 28.8035 45.8809 29.018 45.8809H41.2414C43.3859 45.8809 45.2087 45.1303 46.7098 43.6292C48.211 42.128 48.9615 40.3052 48.9615 38.1608C48.9615 37.9463 48.8811 37.7319 48.7203 37.5174C48.5594 37.303 48.3182 37.1958 47.9965 37.1958ZM22.2629 6.47621C22.2629 5.94009 22.4237 5.5112 22.7454 5.18953C23.067 4.86786 23.4959 4.70702 24.0321 4.70702H35.9339C36.3628 4.70702 36.7649 4.86786 37.1401 5.18953C37.5154 5.5112 37.7031 5.94009 37.7031 6.47621V15.1613C37.7031 15.5902 37.5154 15.9923 37.1401 16.3676C36.7649 16.7429 36.3628 16.9305 35.9339 16.9305H27.0879C26.7663 16.9305 26.5518 16.9841 26.4446 17.0913L24.8362 18.5389V17.7347C24.8362 17.5202 24.7558 17.3326 24.595 17.1718C24.4341 17.0109 24.1661 16.9305 23.7908 16.9305C23.4155 16.9305 23.067 16.7429 22.7454 16.3676C22.4237 15.9923 22.2629 15.5902 22.2629 15.1613V6.47621ZM4.41015 13.553C4.41015 12.6952 4.70501 11.9982 5.29474 11.4621C5.88447 10.926 6.55462 10.6579 7.30519 10.6579H20.3328V12.588H7.30519C7.09074 12.588 6.87629 12.6684 6.66184 12.8292C6.4474 12.99 6.34017 13.2313 6.34017 13.553V37.1958H4.41015V13.553ZM12.1302 37.1958V36.7132C12.1302 35.3193 12.6128 34.1131 13.5778 33.0945C14.5428 32.0758 15.7222 31.5665 17.1161 31.5665H17.5986V33.3357C17.5986 33.6574 17.6791 33.8986 17.8399 34.0595C18.0007 34.2203 18.2152 34.3007 18.4832 34.3007C18.7513 34.3007 18.9657 34.2203 19.1266 34.0595C19.2874 33.8986 19.3678 33.6574 19.3678 33.3357V31.5665H19.8503C21.2442 31.5665 22.4237 32.0758 23.3887 33.0945C24.3537 34.1131 24.8362 35.3193 24.8362 36.7132V37.1958H12.1302ZM20.9762 27.224C20.9762 27.8673 20.7349 28.4302 20.2524 28.9127C19.7699 29.3952 19.1802 29.6365 18.4832 29.6365C17.7863 29.6365 17.1966 29.3952 16.7141 28.9127C16.2315 28.4302 15.9903 27.8673 15.9903 27.224V26.5806C15.9903 25.9373 16.2315 25.3744 16.7141 24.8919C17.1966 24.4093 17.7863 24.1681 18.4832 24.1681C19.1802 24.1681 19.7699 24.4093 20.2524 24.8919C20.7349 25.3744 20.9762 25.9373 20.9762 26.5806V27.224ZM26.7663 37.1958V36.7132C26.7663 35.1049 26.3106 33.6842 25.3992 32.4511C24.4878 31.218 23.2815 30.3871 21.7804 29.9582C22.4237 29.2076 22.7454 28.2962 22.7454 27.224V26.5806C22.7454 25.4012 22.3433 24.3825 21.5391 23.5248C20.7349 22.667 19.7163 22.2381 18.4832 22.2381C17.2502 22.2381 16.2315 22.667 15.4274 23.5248C14.6232 24.3825 14.2211 25.4012 14.2211 26.5806V27.224C14.2211 28.2962 14.5428 29.2076 15.1861 29.9582C13.685 30.3871 12.4787 31.218 11.5673 32.4511C10.6559 33.6842 10.2002 35.1049 10.2002 36.7132V37.1958H8.2702V14.3571H20.3328V15.1613C20.3328 15.9119 20.5741 16.6356 21.0566 17.3326C21.5391 18.0295 22.2093 18.4852 23.067 18.6997V20.9514C23.067 21.2731 23.2279 21.5411 23.5496 21.7556H24.0321C24.2465 21.7556 24.461 21.702 24.6754 21.5947L27.4096 18.6997H35.9339C36.8989 18.6997 37.7299 18.3512 38.4268 17.6543C39.1238 16.9573 39.4722 16.1263 39.4722 15.1613V14.3571H41.4023V37.1958H26.7663ZM43.3323 37.1958V13.553C43.3323 13.2313 43.2251 12.99 43.0106 12.8292C42.7962 12.6684 42.5817 12.588 42.3673 12.588H39.4722V10.6579H42.3673C43.1178 10.6579 43.788 10.926 44.3777 11.4621C44.9675 11.9982 45.2623 12.6952 45.2623 13.553V37.1958H43.3323ZM26.9271 40.5733H22.7454C22.5309 40.5733 22.3165 40.6805 22.102 40.895C21.8876 41.1094 21.7804 41.3507 21.7804 41.6187C21.7804 41.8868 21.8876 42.1012 22.102 42.2621C22.3165 42.4229 22.5309 42.5033 22.7454 42.5033H26.9271C27.2488 42.5033 27.49 42.4229 27.6509 42.2621C27.8117 42.1012 27.8921 41.8868 27.8921 41.6187C27.8921 41.3507 27.8117 41.1094 27.6509 40.895C27.49 40.6805 27.2488 40.5733 26.9271 40.5733ZM27.7313 14.3571C28.0529 14.5716 28.3746 14.6788 28.6963 14.6788C29.018 14.6788 29.286 14.5716 29.5005 14.3571L33.0388 12.2663C33.6822 11.9446 34.0038 11.4353 34.0038 10.7383C34.0038 10.0414 33.6822 9.53208 33.0388 9.21041L29.5005 7.11955C28.9643 6.79788 28.3746 6.79788 27.7313 7.11955C27.0879 7.44122 26.7663 7.97734 26.7663 8.72791V12.7488C26.7663 13.4994 27.0879 14.0355 27.7313 14.3571ZM28.6963 8.88874L32.0738 10.8188L28.6963 12.588V8.88874ZM24.8362 43.9508C24.6218 43.9508 24.4073 44.0581 24.1929 44.2725C23.9784 44.487 23.8712 44.7282 23.8712 44.9963C23.8712 45.2643 23.9784 45.4788 24.1929 45.6396C24.4073 45.8004 24.6218 45.8809 24.8362 45.8809C25.0507 45.8809 25.2651 45.8004 25.4796 45.6396C25.694 45.4788 25.8012 45.2643 25.8012 44.9963C25.8012 44.7282 25.694 44.487 25.4796 44.2725C25.2651 44.0581 25.0507 43.9508 24.8362 43.9508Z" fill="white"/>
</g>
<defs>
<clipPath id="clip0_2428_233778">
<rect width="48.2506" height="48.2506" fill="white" transform="matrix(1 0 0 -1 0.710938 48.4531)"/>
</clipPath>
</defs>
</svg>
