<svg width="49" height="49" viewBox="0 0 49 49" fill="none" xmlns="http://www.w3.org/2000/svg">
<g id="Icon" clip-path="url(#clip0_2428_233794)">
<path id="Vector" d="M24.0991 17.8364C24.4208 17.8364 24.6621 17.756 24.8229 17.5952C24.9837 17.4343 25.0642 17.2199 25.0642 16.9518C25.0642 16.6838 24.9837 16.4425 24.8229 16.2281C24.6621 16.0136 24.4476 15.9064 24.1796 15.9064C23.9115 15.9064 23.6702 16.0136 23.4558 16.2281C23.2414 16.4425 23.1341 16.6838 23.1341 16.9518C23.1341 17.2199 23.2414 17.4343 23.4558 17.5952C23.6702 17.756 23.8847 17.8364 24.0991 17.8364ZM18.3091 17.8364C18.5235 17.8364 18.738 17.756 18.9524 17.5952C19.1669 17.4343 19.2741 17.2199 19.2741 16.9518C19.2741 16.6838 19.1669 16.4425 18.9524 16.2281C18.738 16.0136 18.5235 15.9064 18.3091 15.9064C18.0946 15.9064 17.8802 16.0136 17.6657 16.2281C17.4513 16.4425 17.3441 16.6838 17.3441 16.9518C17.3441 17.2199 17.4513 17.4343 17.6657 17.5952C17.8802 17.756 18.0946 17.8364 18.3091 17.8364ZM43.7211 19.9273C43.5066 19.9273 43.319 20.0077 43.1581 20.1685C42.9973 20.3294 42.9169 20.5438 42.9169 20.8119C42.9169 21.0799 42.9973 21.3212 43.1581 21.5356C43.319 21.7501 43.5066 21.8573 43.7211 21.8573C44.6861 21.8573 45.4634 22.1522 46.0532 22.7419C46.6429 23.3316 46.9378 24.0554 46.9378 24.9132V39.0667C46.9378 40.0317 46.6429 40.8091 46.0532 41.3988C45.4634 41.9885 44.6861 42.2834 43.7211 42.2834H21.6866C20.8288 42.2834 20.0783 41.9885 19.4349 41.3988C18.7916 40.8091 18.4699 40.0317 18.4699 39.0667V24.9132C18.4699 24.0554 18.7916 23.3316 19.4349 22.7419C20.0783 22.1522 20.8288 21.8573 21.6866 21.8573H35.3576C35.5721 21.8573 35.7597 21.7501 35.9205 21.5356C36.0814 21.3212 36.1618 21.0799 36.1618 20.8119C36.1618 20.5438 36.0814 20.3294 35.9205 20.1685C35.7597 20.0077 35.5721 19.9273 35.3576 19.9273H29.4067C29.5139 19.2839 29.5675 18.6406 29.5675 17.9973V13.9764H30.8542C31.0687 13.9764 31.2831 13.896 31.4976 13.7351C31.712 13.5743 31.8192 13.3866 31.8192 13.1722V9.79465C31.8192 8.07907 31.3903 6.52433 30.5326 5.13043C29.6748 3.73652 28.5221 2.61068 27.0746 1.75289C25.6271 0.8951 24.0455 0.466202 22.33 0.466202C21.0433 0.466202 19.8638 0.814682 18.7916 1.51163C17.7193 2.20859 16.9152 3.14679 16.379 4.32625C14.7707 4.43348 13.4572 5.05001 12.4386 6.17586C11.42 7.3017 10.9106 8.61519 10.9106 10.1163V12.8505C10.9106 13.2794 11.0983 13.5475 11.4736 13.6547C11.8489 13.7619 12.2509 13.8691 12.6798 13.9764V17.9973C12.6798 19.3912 13.0283 20.7315 13.7253 22.0181C14.4222 23.3048 15.3604 24.3234 16.5399 25.074V25.7173H15.414C12.7334 25.7173 10.2673 26.3875 8.01561 27.7278C5.76392 29.0681 3.96792 30.8641 2.62763 33.1158C1.28733 35.3675 0.617188 37.8872 0.617188 40.675V43.0876C0.617188 44.5887 1.18011 45.9022 2.30596 47.028C3.43181 48.1539 4.74529 48.7168 6.24642 48.7168H41.1477C41.4694 48.7168 41.7106 48.6364 41.8714 48.4755C42.0323 48.3147 42.1127 48.1003 42.1127 47.8322C42.1127 47.5641 42.0323 47.3229 41.8714 47.1084C41.7106 46.894 41.4694 46.7868 41.1477 46.7868H40.3435C40.9869 46.0362 41.4157 45.1784 41.6302 44.2134H43.7211C45.2222 44.2134 46.4552 43.7041 47.4203 42.6855C48.3853 41.6668 48.8678 40.4606 48.8678 39.0667V24.9132C48.8678 23.5193 48.3853 22.3398 47.4203 21.3748C46.4552 20.4098 45.2222 19.9273 43.7211 19.9273ZM29.085 44.2134V46.7868H23.6166V46.3043C23.6166 45.5537 23.4022 44.8567 22.9733 44.2134H29.085ZM22.33 2.39623C24.4744 2.39623 26.2704 3.11999 27.7179 4.5675C29.1655 6.01502 29.8892 7.7574 29.8892 9.79465V12.2072H22.33C21.0433 12.2072 19.9174 11.7247 18.9524 10.7597C17.9874 9.79465 17.5049 8.642 17.5049 7.3017C17.5049 5.96141 17.9874 4.80876 18.9524 3.84375C19.9174 2.87873 21.0433 2.39623 22.33 2.39623ZM12.6798 10.1163C12.6798 9.25853 12.9747 8.45436 13.5644 7.70379C14.1542 6.95323 14.8779 6.47072 15.7357 6.25628L15.5749 7.22129C15.5749 8.61519 15.9502 9.90187 16.7007 11.0813C15.5213 12.0463 14.181 12.368 12.6798 12.0463V10.1163ZM14.6099 17.9973V13.9764C15.8965 13.7619 17.0224 13.2258 17.9874 12.368C19.2741 13.4403 20.7216 13.9764 22.33 13.9764H27.7984V17.9973C27.7984 18.6406 27.6911 19.2839 27.4767 19.9273H21.6866C20.6144 19.9273 19.6494 20.2221 18.7916 20.8119C17.9338 21.4016 17.3441 22.1254 17.0224 22.9831C16.2718 22.447 15.6821 21.7233 15.2532 20.8119C14.8243 19.9005 14.6099 18.9623 14.6099 17.9973ZM6.24642 46.7868C5.17419 46.7868 4.28959 46.4383 3.59264 45.7413C2.89569 45.0444 2.54721 44.1598 2.54721 43.0876V40.675C2.54721 38.3161 3.11013 36.1448 4.23598 34.1612C5.36183 32.1776 6.94338 30.596 8.98062 29.4166C11.0179 28.2371 13.1623 27.6474 15.414 27.6474H16.5399V39.0667C16.5399 39.71 16.6471 40.2997 16.8616 40.8359H10.1065C9.89202 40.8359 9.67758 40.9163 9.46313 41.0771C9.24868 41.238 9.14146 41.4524 9.14146 41.7205C9.14146 41.9885 9.24868 42.203 9.46313 42.3638C9.67758 42.5246 9.89202 42.6051 10.1065 42.6051H16.5399V46.7868H6.24642ZM18.4699 46.7868V44.2134H19.5958C20.1319 44.2134 20.6144 44.4279 21.0433 44.8567C21.4722 45.2856 21.6866 45.7681 21.6866 46.3043V46.7868H18.4699ZM31.0151 44.2134H34.5534V46.7868H31.0151V44.2134ZM36.4835 46.7868V44.2134H39.7002C39.4857 44.964 39.0836 45.5805 38.4939 46.063C37.9042 46.5455 37.234 46.7868 36.4835 46.7868ZM32.7842 28.6124C31.8192 28.6124 30.9883 28.9341 30.2913 29.5774C29.5943 30.2207 29.2459 31.0249 29.2459 31.9899C29.2459 32.9549 29.5943 33.7859 30.2913 34.4829C30.9883 35.1798 31.8192 35.5283 32.7842 35.5283C33.7493 35.5283 34.5534 35.1798 35.1968 34.4829C35.8401 33.7859 36.1618 32.9549 36.1618 31.9899C36.1618 31.0249 35.8401 30.2207 35.1968 29.5774C34.5534 28.9341 33.7493 28.6124 32.7842 28.6124ZM32.7842 33.5983C32.2481 33.5983 31.846 33.4642 31.578 33.1962C31.3099 32.9281 31.1759 32.5528 31.1759 32.0703C31.1759 31.5878 31.3099 31.1857 31.578 30.8641C31.846 30.5424 32.2213 30.3816 32.7038 30.3816C33.1863 30.3816 33.5884 30.5424 33.9101 30.8641C34.2318 31.1857 34.3926 31.5878 34.3926 32.0703C34.3926 32.5528 34.2318 32.9281 33.9101 33.1962C33.5884 33.4642 33.2131 33.5983 32.7842 33.5983ZM39.5393 21.8573C39.7538 21.8573 39.9682 21.7501 40.1827 21.5356C40.3971 21.3212 40.5043 21.0799 40.5043 20.8119C40.5043 20.5438 40.3971 20.3294 40.1827 20.1685C39.9682 20.0077 39.7538 19.9273 39.5393 19.9273C39.3249 19.9273 39.1104 20.0077 38.896 20.1685C38.6815 20.3294 38.5743 20.5438 38.5743 20.8119C38.5743 21.0799 38.6815 21.3212 38.896 21.5356C39.1104 21.7501 39.3249 21.8573 39.5393 21.8573Z" fill="white"/>
</g>
<defs>
<clipPath id="clip0_2428_233794">
<rect width="48.2506" height="48.2506" fill="white" transform="matrix(1 0 0 -1 0.617188 48.7168)"/>
</clipPath>
</defs>
</svg>
