<svg width="50" height="49" viewBox="0 0 50 49" fill="none" xmlns="http://www.w3.org/2000/svg">
<g id="Icon" clip-path="url(#clip0_2428_233786)">
<path id="Vector" d="M14.9348 8.91005C14.8275 8.6956 14.6399 8.56157 14.3718 8.50796C14.1038 8.45435 13.8625 8.48116 13.6481 8.58838C13.4336 8.80283 13.2728 9.01727 13.1656 9.23172C13.0583 9.44617 13.0852 9.68742 13.246 9.95548C13.4068 10.2235 13.6213 10.3576 13.8893 10.3576C14.1574 10.3576 14.3986 10.304 14.6131 10.1967C14.8275 10.0895 14.9616 9.90187 15.0152 9.63381C15.0688 9.36575 15.042 9.1245 14.9348 8.91005ZM48.5493 16.3085L25.3891 1.99413C25.0674 1.77969 24.7457 1.77969 24.424 1.99413L16.7039 6.81919C16.3823 6.92641 16.1946 7.11406 16.141 7.38211C16.0874 7.65017 16.141 7.89143 16.3019 8.10587C16.4627 8.32032 16.6771 8.45435 16.9452 8.50796C17.2133 8.56157 17.4545 8.53477 17.669 8.42754L24.9065 3.92416L46.2976 17.1127L24.9065 30.3011L13.3264 23.2244L23.1374 17.4343C23.6735 17.8632 24.29 18.0777 24.987 18.0777C25.6839 18.0777 26.3273 17.7828 26.917 17.1931C27.5067 16.6033 27.8016 15.9332 27.8016 15.1826C27.8016 14.4321 27.5067 13.7887 26.917 13.2526C26.3273 12.7165 25.6571 12.4484 24.9065 12.4484C24.156 12.4484 23.4858 12.7165 22.8961 13.2526C22.3064 13.7887 22.0115 14.4321 22.0115 15.1826L22.1723 15.826L11.5572 22.0985L3.51545 17.1127L10.9139 12.4484C11.1283 12.3412 11.2624 12.1536 11.316 11.8855C11.3696 11.6174 11.3428 11.3762 11.2355 11.1617C11.1283 10.9473 10.9407 10.8133 10.6726 10.7597C10.4046 10.706 10.1633 10.7328 9.94886 10.8401L1.26376 16.3085C0.942085 16.5229 0.78125 16.791 0.78125 17.1127C0.78125 17.4343 0.942085 17.7024 1.26376 17.9168L9.78803 23.0636L8.66218 23.7069C7.80439 24.243 7.13424 24.94 6.65174 25.7978C6.16923 26.6555 5.92798 27.5669 5.92798 28.532V30.1403C5.39186 30.3548 4.93616 30.6764 4.56088 31.1053C4.1856 31.5342 3.99796 32.0703 3.99796 32.7137V34.322C3.24739 35.0726 2.87211 36.0376 2.87211 37.2171V45.9022C2.87211 46.2238 2.95253 46.4651 3.11336 46.6259C3.2742 46.7868 3.51545 46.8672 3.83712 46.8672H9.78803C10.1097 46.8672 10.351 46.7868 10.5118 46.6259C10.6726 46.4651 10.753 46.2238 10.753 45.9022V37.2171C10.753 36.0376 10.3778 35.0726 9.62719 34.322V32.7137C9.62719 32.0703 9.43955 31.5342 9.06427 31.1053C8.68899 30.6764 8.23329 30.3548 7.69717 30.1403V28.532C7.69717 27.8886 7.858 27.2989 8.17967 26.7628C8.50134 26.2267 8.98385 25.7978 9.62719 25.4761L10.753 24.6719V33.8395C10.753 34.054 10.8603 34.2684 11.0747 34.4829C11.2892 34.6973 11.5036 34.8045 11.7181 34.8045C14.077 34.8045 16.3287 35.2602 18.4731 36.1716C20.6176 37.083 22.5476 38.3965 24.2632 40.1121C24.4777 40.2193 24.6921 40.2729 24.9065 40.2729C25.121 40.2729 25.3354 40.2193 25.5499 40.1121C27.2655 38.3965 29.1955 37.083 31.34 36.1716C33.4844 35.2602 35.7361 34.8045 38.095 34.8045C38.3095 34.8045 38.5239 34.6973 38.7384 34.4829C38.9528 34.2684 39.0601 34.054 39.0601 33.8395V32.2312C39.0601 31.9095 38.9528 31.6682 38.7384 31.5074C38.5239 31.3466 38.3095 31.2662 38.095 31.2662C37.8806 31.2662 37.6661 31.3466 37.4517 31.5074C37.2373 31.6682 37.13 31.9095 37.13 32.2312V32.8745C32.9483 33.089 29.1955 34.5365 25.8716 37.2171V35.287C25.8716 35.0726 25.7643 34.8581 25.5499 34.6437C25.3354 34.4293 25.121 34.322 24.9065 34.322C24.6921 34.322 24.4777 34.4293 24.2632 34.6437C24.0488 34.8581 23.9415 35.0726 23.9415 35.287V37.2171C20.6176 34.5365 16.8648 33.089 12.6831 32.8745V24.9936L24.424 32.2312C24.5313 32.3384 24.6921 32.392 24.9065 32.392C25.121 32.392 25.2818 32.3384 25.3891 32.2312L37.13 24.9936V25.9586C37.13 26.2803 37.2373 26.5215 37.4517 26.6824C37.6661 26.8432 37.8806 26.9236 38.095 26.9236C38.3095 26.9236 38.5239 26.8432 38.7384 26.6824C38.9528 26.5215 39.0601 26.2803 39.0601 25.9586V23.8677L48.5493 17.9168C48.871 17.7024 49.0318 17.4343 49.0318 17.1127C49.0318 16.791 48.871 16.5229 48.5493 16.3085ZM24.9065 14.2176C25.121 14.2176 25.3354 14.3248 25.5499 14.5393C25.7643 14.7537 25.8716 14.995 25.8716 15.263C25.8716 15.5311 25.7643 15.7456 25.5499 15.9064C25.3354 16.0672 25.121 16.1476 24.9065 16.1476C24.6921 16.1476 24.4777 16.0672 24.2632 15.9064C24.0488 15.7456 23.9415 15.5311 23.9415 15.263C23.9415 14.995 24.0488 14.7537 24.2632 14.5393C24.4777 14.3248 24.6921 14.2176 24.9065 14.2176ZM5.92798 32.7137C5.92798 32.4992 6.0084 32.2848 6.16923 32.0703C6.33007 31.8559 6.54452 31.7487 6.81257 31.7487C7.08063 31.7487 7.29508 31.8559 7.45592 32.0703C7.61675 32.2848 7.69717 32.4992 7.69717 32.7137V33.1962H5.92798V32.7137ZM8.82302 37.2171V44.9372H4.80213V37.2171C4.80213 36.5737 4.98977 36.0644 5.36506 35.6891C5.74034 35.3139 6.22284 35.1262 6.81257 35.1262C7.4023 35.1262 7.88481 35.3139 8.26009 35.6891C8.63537 36.0644 8.82302 36.5737 8.82302 37.2171ZM38.7384 28.2103C38.5239 27.9958 38.3095 27.8886 38.095 27.8886C37.8806 27.8886 37.6661 27.9958 37.4517 28.2103C37.2373 28.4247 37.13 28.666 37.13 28.934C37.13 29.2021 37.2373 29.4166 37.4517 29.5774C37.6661 29.7382 37.8806 29.8186 38.095 29.8186C38.3095 29.8186 38.5239 29.7382 38.7384 29.5774C38.9528 29.4166 39.0601 29.2021 39.0601 28.934C39.0601 28.666 38.9528 28.4247 38.7384 28.2103Z" fill="white"/>
</g>
<defs>
<clipPath id="clip0_2428_233786">
<rect width="48.2506" height="48.2506" fill="white" transform="matrix(1 0 0 -1 0.78125 48.4766)"/>
</clipPath>
</defs>
</svg>
