<svg width="86" height="67" viewBox="0 0 86 67" fill="none" xmlns="http://www.w3.org/2000/svg">
<circle cx="11" cy="10" r="3" fill="#BFDBFE"/>
<circle cx="29" cy="10" r="3" fill="#BFDBFE"/>
<circle cx="47" cy="10" r="3" fill="#BFDBFE"/>
<circle cx="65" cy="10" r="3" fill="#BFDBFE"/>
<circle cx="83" cy="10" r="3" fill="#BFDBFE"/>
<circle cx="11" cy="28" r="3" fill="#BFDBFE"/>
<circle cx="29" cy="28" r="3" fill="#BFDBFE"/>
<circle cx="47" cy="28" r="3" fill="#BFDBFE"/>
<circle cx="65" cy="28" r="3" fill="#BFDBFE"/>
<circle cx="83" cy="28" r="3" fill="#BFDBFE"/>
<circle cx="11" cy="46" r="3" fill="#BFDBFE"/>
<circle cx="29" cy="46" r="3" fill="#BFDBFE"/>
<circle cx="47" cy="46" r="3" fill="#BFDBFE"/>
<circle cx="65" cy="46" r="3" fill="#BFDBFE"/>
<circle cx="83" cy="46" r="3" fill="#BFDBFE"/>
<circle cx="11" cy="64" r="3" fill="#BFDBFE"/>
<circle cx="29" cy="64" r="3" fill="#BFDBFE"/>
<circle cx="47" cy="64" r="3" fill="#BFDBFE"/>
<circle cx="65" cy="64" r="3" fill="#BFDBFE"/>
<circle cx="83" cy="64" r="3" fill="#BFDBFE"/>
</svg>
