<svg width="153" height="45" viewBox="0 0 153 45" fill="none" xmlns="http://www.w3.org/2000/svg">
<path d="M151.221 39.6804C151.221 42.0215 149.285 43.9178 146.89 43.9178H5.18255C2.78929 43.9178 0.84668 42.0215 0.84668 39.6804V5.88888C0.84668 3.54893 2.78929 1.646 5.18255 1.646H146.889C149.285 1.646 151.22 3.54893 151.22 5.88888L151.221 39.6804Z" fill="#1C1C1C"/>
<path d="M151.221 39.6804C151.221 42.0215 149.285 43.9178 146.89 43.9178H5.18255C2.78929 43.9178 0.84668 42.0215 0.84668 39.6804V5.88888C0.84668 3.54893 2.78929 1.646 5.18255 1.646H146.889C149.285 1.646 151.22 3.54893 151.22 5.88888L151.221 39.6804Z" fill="black" fill-opacity="0.2"/>
<path d="M151.221 39.6804C151.221 42.0215 149.285 43.9178 146.89 43.9178H5.18255C2.78929 43.9178 0.84668 42.0215 0.84668 39.6804V5.88888C0.84668 3.54893 2.78929 1.646 5.18255 1.646H146.889C149.285 1.646 151.22 3.54893 151.22 5.88888L151.221 39.6804Z" fill="black" fill-opacity="0.2"/>
<path d="M146.432 1.69756C149.039 1.69756 151.161 3.76636 151.161 6.30878V39.2559C151.161 41.7983 149.039 43.8671 146.432 43.8671H5.63199C3.02438 43.8671 0.902525 41.7983 0.902525 39.2559V6.30878C0.902525 3.76636 3.02438 1.69756 5.63199 1.69756H146.432ZM146.432 0.817595H5.63199C2.5358 0.817595 0 3.29 0 6.30878V39.2559C0 42.2747 2.5358 44.7471 5.63199 44.7471H146.432C149.528 44.7471 152.064 42.2747 152.064 39.2559V6.30878C152.064 3.29 149.528 0.817595 146.432 0.817595Z" fill="#A6A6A6"/>
<path d="M33.9346 22.5463C33.9019 19.0066 36.9071 17.2846 37.0445 17.2044C35.3426 14.785 32.7045 14.4545 31.7775 14.4281C29.5619 14.2008 27.4127 15.7207 26.2841 15.7207C25.1329 15.7207 23.3949 14.4501 21.5217 14.4874C19.1112 14.5236 16.8561 15.8844 15.6193 17.9974C13.0669 22.3057 14.9705 28.6371 17.4159 32.1196C18.6392 33.8252 20.0686 35.7295 21.9396 35.6625C23.7699 35.5889 24.4537 34.5247 26.6625 34.5247C28.8511 34.5247 29.4932 35.6625 31.4013 35.6197C33.3657 35.5889 34.6025 33.9064 35.783 32.1855C37.1966 30.2306 37.7643 28.3054 37.7868 28.2066C37.7406 28.1912 33.9717 26.7888 33.9346 22.5463Z" fill="white"/>
<path d="M33.9346 22.5463C33.9019 19.0066 36.9071 17.2846 37.0445 17.2044C35.3426 14.785 32.7045 14.4545 31.7775 14.4281C29.5619 14.2008 27.4127 15.7207 26.2841 15.7207C25.1329 15.7207 23.3949 14.4501 21.5217 14.4874C19.1112 14.5236 16.8561 15.8844 15.6193 17.9974C13.0669 22.3057 14.9705 28.6371 17.4159 32.1196C18.6392 33.8252 20.0686 35.7295 21.9396 35.6625C23.7699 35.5889 24.4537 34.5247 26.6625 34.5247C28.8511 34.5247 29.4932 35.6625 31.4013 35.6197C33.3657 35.5889 34.6025 33.9064 35.783 32.1855C37.1966 30.2306 37.7643 28.3054 37.7868 28.2066C37.7406 28.1912 33.9717 26.7888 33.9346 22.5463Z" fill="white"/>
<path d="M33.9346 22.5463C33.9019 19.0066 36.9071 17.2846 37.0445 17.2044C35.3426 14.785 32.7045 14.4545 31.7775 14.4281C29.5619 14.2008 27.4127 15.7207 26.2841 15.7207C25.1329 15.7207 23.3949 14.4501 21.5217 14.4874C19.1112 14.5236 16.8561 15.8844 15.6193 17.9974C13.0669 22.3057 14.9705 28.6371 17.4159 32.1196C18.6392 33.8252 20.0686 35.7295 21.9396 35.6625C23.7699 35.5889 24.4537 34.5247 26.6625 34.5247C28.8511 34.5247 29.4932 35.6625 31.4013 35.6197C33.3657 35.5889 34.6025 33.9064 35.783 32.1855C37.1966 30.2306 37.7643 28.3054 37.7868 28.2066C37.7406 28.1912 33.9717 26.7888 33.9346 22.5463Z" fill="white"/>
<path d="M30.3301 12.1372C31.3146 10.9368 31.9881 9.30372 31.8012 7.64648C30.3763 7.70799 28.5943 8.60744 27.5682 9.78146C26.6603 10.816 25.8493 12.5117 26.0588 14.1063C27.6594 14.2227 29.3028 13.3189 30.3301 12.1372Z" fill="white"/>
<path d="M30.3301 12.1372C31.3146 10.9368 31.9881 9.30372 31.8012 7.64648C30.3763 7.70799 28.5943 8.60744 27.5682 9.78146C26.6603 10.816 25.8493 12.5117 26.0588 14.1063C27.6594 14.2227 29.3028 13.3189 30.3301 12.1372Z" fill="white"/>
<path d="M30.3301 12.1372C31.3146 10.9368 31.9881 9.30372 31.8012 7.64648C30.3763 7.70799 28.5943 8.60744 27.5682 9.78146C26.6603 10.816 25.8493 12.5117 26.0588 14.1063C27.6594 14.2227 29.3028 13.3189 30.3301 12.1372Z" fill="white"/>
<path d="M60.4256 35.4161H57.8675L56.4663 31.1231H51.5958L50.261 35.4161H47.7705L52.596 20.8008H55.5764L60.4256 35.4161ZM56.0439 29.322L54.7767 25.5056C54.6427 25.1158 54.3915 24.1976 54.0209 22.7523H53.9758C53.8283 23.374 53.5906 24.2921 53.2639 25.5056L52.0193 29.322H56.0439Z" fill="white"/>
<path d="M60.4256 35.4161H57.8675L56.4663 31.1231H51.5958L50.261 35.4161H47.7705L52.596 20.8008H55.5764L60.4256 35.4161ZM56.0439 29.322L54.7767 25.5056C54.6427 25.1158 54.3915 24.1976 54.0209 22.7523H53.9758C53.8283 23.374 53.5906 24.2921 53.2639 25.5056L52.0193 29.322H56.0439Z" fill="white"/>
<path d="M60.4256 35.4161H57.8675L56.4663 31.1231H51.5958L50.261 35.4161H47.7705L52.596 20.8008H55.5764L60.4256 35.4161ZM56.0439 29.322L54.7767 25.5056C54.6427 25.1158 54.3915 24.1976 54.0209 22.7523H53.9758C53.8283 23.374 53.5906 24.2921 53.2639 25.5056L52.0193 29.322H56.0439Z" fill="white"/>
<path d="M72.8348 30.0167C72.8348 31.8091 72.3381 33.2258 71.3446 34.2658C70.4547 35.1916 69.3497 35.654 68.0307 35.654C66.607 35.654 65.5842 35.1554 64.9613 34.1582H64.9162V39.7098H62.5148V28.3463C62.5148 27.2195 62.4844 26.0631 62.4258 24.877H64.5378L64.6718 26.5474H64.7169C65.5177 25.2888 66.7331 24.6606 68.3641 24.6606C69.6392 24.6606 70.7037 25.1516 71.5552 26.1345C72.409 27.1185 72.8348 28.4122 72.8348 30.0167ZM70.3883 30.1024C70.3883 29.0767 70.1517 28.231 69.6764 27.5655C69.1571 26.8714 68.4599 26.5244 67.5858 26.5244C66.9933 26.5244 66.4549 26.7176 65.9739 27.0987C65.4918 27.4831 65.1764 27.985 65.0289 28.6066C64.9545 28.8965 64.9174 29.1338 64.9174 29.3205V31.0776C64.9174 31.8442 65.1584 32.4911 65.6405 33.0193C66.1226 33.5476 66.7489 33.8112 67.5193 33.8112C68.4238 33.8112 69.1278 33.4707 69.6313 32.792C70.136 32.1122 70.3883 31.216 70.3883 30.1024Z" fill="white"/>
<path d="M72.8348 30.0167C72.8348 31.8091 72.3381 33.2258 71.3446 34.2658C70.4547 35.1916 69.3497 35.654 68.0307 35.654C66.607 35.654 65.5842 35.1554 64.9613 34.1582H64.9162V39.7098H62.5148V28.3463C62.5148 27.2195 62.4844 26.0631 62.4258 24.877H64.5378L64.6718 26.5474H64.7169C65.5177 25.2888 66.7331 24.6606 68.3641 24.6606C69.6392 24.6606 70.7037 25.1516 71.5552 26.1345C72.409 27.1185 72.8348 28.4122 72.8348 30.0167ZM70.3883 30.1024C70.3883 29.0767 70.1517 28.231 69.6764 27.5655C69.1571 26.8714 68.4599 26.5244 67.5858 26.5244C66.9933 26.5244 66.4549 26.7176 65.9739 27.0987C65.4918 27.4831 65.1764 27.985 65.0289 28.6066C64.9545 28.8965 64.9174 29.1338 64.9174 29.3205V31.0776C64.9174 31.8442 65.1584 32.4911 65.6405 33.0193C66.1226 33.5476 66.7489 33.8112 67.5193 33.8112C68.4238 33.8112 69.1278 33.4707 69.6313 32.792C70.136 32.1122 70.3883 31.216 70.3883 30.1024Z" fill="white"/>
<path d="M72.8348 30.0167C72.8348 31.8091 72.3381 33.2258 71.3446 34.2658C70.4547 35.1916 69.3497 35.654 68.0307 35.654C66.607 35.654 65.5842 35.1554 64.9613 34.1582H64.9162V39.7098H62.5148V28.3463C62.5148 27.2195 62.4844 26.0631 62.4258 24.877H64.5378L64.6718 26.5474H64.7169C65.5177 25.2888 66.7331 24.6606 68.3641 24.6606C69.6392 24.6606 70.7037 25.1516 71.5552 26.1345C72.409 27.1185 72.8348 28.4122 72.8348 30.0167ZM70.3883 30.1024C70.3883 29.0767 70.1517 28.231 69.6764 27.5655C69.1571 26.8714 68.4599 26.5244 67.5858 26.5244C66.9933 26.5244 66.4549 26.7176 65.9739 27.0987C65.4918 27.4831 65.1764 27.985 65.0289 28.6066C64.9545 28.8965 64.9174 29.1338 64.9174 29.3205V31.0776C64.9174 31.8442 65.1584 32.4911 65.6405 33.0193C66.1226 33.5476 66.7489 33.8112 67.5193 33.8112C68.4238 33.8112 69.1278 33.4707 69.6313 32.792C70.136 32.1122 70.3883 31.216 70.3883 30.1024Z" fill="white"/>
<path d="M85.2673 30.0167C85.2673 31.8091 84.7705 33.2258 83.7759 34.2658C82.8872 35.1916 81.7822 35.654 80.4632 35.654C79.0394 35.654 78.0167 35.1554 77.3949 34.1582H77.3498V39.7098H74.9484V28.3463C74.9484 27.2195 74.9179 26.0631 74.8594 24.877H76.9714L77.1054 26.5474H77.1505C77.9502 25.2888 79.1656 24.6606 80.7977 24.6606C82.0717 24.6606 83.1361 25.1516 83.99 26.1345C84.8404 27.1185 85.2673 28.4122 85.2673 30.0167ZM82.8207 30.1024C82.8207 29.0767 82.5831 28.231 82.1077 27.5655C81.5885 26.8714 80.8935 26.5244 80.0183 26.5244C79.4247 26.5244 78.8874 26.7176 78.4053 27.0987C77.9232 27.4831 77.6089 27.985 77.4613 28.6066C77.3881 28.8965 77.3498 29.1338 77.3498 29.3205V31.0776C77.3498 31.8442 77.5909 32.4911 78.0707 33.0193C78.5528 33.5465 79.1791 33.8112 79.9518 33.8112C80.8563 33.8112 81.5603 33.4707 82.0638 32.792C82.5684 32.1122 82.8207 31.216 82.8207 30.1024Z" fill="white"/>
<path d="M85.2673 30.0167C85.2673 31.8091 84.7705 33.2258 83.7759 34.2658C82.8872 35.1916 81.7822 35.654 80.4632 35.654C79.0394 35.654 78.0167 35.1554 77.3949 34.1582H77.3498V39.7098H74.9484V28.3463C74.9484 27.2195 74.9179 26.0631 74.8594 24.877H76.9714L77.1054 26.5474H77.1505C77.9502 25.2888 79.1656 24.6606 80.7977 24.6606C82.0717 24.6606 83.1361 25.1516 83.99 26.1345C84.8404 27.1185 85.2673 28.4122 85.2673 30.0167ZM82.8207 30.1024C82.8207 29.0767 82.5831 28.231 82.1077 27.5655C81.5885 26.8714 80.8935 26.5244 80.0183 26.5244C79.4247 26.5244 78.8874 26.7176 78.4053 27.0987C77.9232 27.4831 77.6089 27.985 77.4613 28.6066C77.3881 28.8965 77.3498 29.1338 77.3498 29.3205V31.0776C77.3498 31.8442 77.5909 32.4911 78.0707 33.0193C78.5528 33.5465 79.1791 33.8112 79.9518 33.8112C80.8563 33.8112 81.5603 33.4707 82.0638 32.792C82.5684 32.1122 82.8207 31.216 82.8207 30.1024Z" fill="white"/>
<path d="M85.2673 30.0167C85.2673 31.8091 84.7705 33.2258 83.7759 34.2658C82.8872 35.1916 81.7822 35.654 80.4632 35.654C79.0394 35.654 78.0167 35.1554 77.3949 34.1582H77.3498V39.7098H74.9484V28.3463C74.9484 27.2195 74.9179 26.0631 74.8594 24.877H76.9714L77.1054 26.5474H77.1505C77.9502 25.2888 79.1656 24.6606 80.7977 24.6606C82.0717 24.6606 83.1361 25.1516 83.99 26.1345C84.8404 27.1185 85.2673 28.4122 85.2673 30.0167ZM82.8207 30.1024C82.8207 29.0767 82.5831 28.231 82.1077 27.5655C81.5885 26.8714 80.8935 26.5244 80.0183 26.5244C79.4247 26.5244 78.8874 26.7176 78.4053 27.0987C77.9232 27.4831 77.6089 27.985 77.4613 28.6066C77.3881 28.8965 77.3498 29.1338 77.3498 29.3205V31.0776C77.3498 31.8442 77.5909 32.4911 78.0707 33.0193C78.5528 33.5465 79.1791 33.8112 79.9518 33.8112C80.8563 33.8112 81.5603 33.4707 82.0638 32.792C82.5684 32.1122 82.8207 31.216 82.8207 30.1024Z" fill="white"/>
<path d="M99.1677 31.3173C99.1677 32.5605 98.725 33.572 97.8363 34.3528C96.8597 35.2062 95.5002 35.6323 93.7531 35.6323C92.1401 35.6323 90.847 35.3292 89.8682 34.7218L90.4246 32.7703C91.4789 33.3919 92.6357 33.7038 93.8962 33.7038C94.8007 33.7038 95.5047 33.5039 96.0104 33.1063C96.5139 32.7088 96.7651 32.175 96.7651 31.5095C96.7651 30.9164 96.5578 30.4167 96.1422 30.0115C95.7288 29.6062 95.0383 29.2296 94.0741 28.8814C91.4496 27.927 90.1385 26.529 90.1385 24.6905C90.1385 23.4891 90.5981 22.5039 91.5183 21.7374C92.4352 20.9697 93.6585 20.5864 95.1881 20.5864C96.5522 20.5864 97.6854 20.8182 98.5899 21.2805L97.9895 23.1892C97.1447 22.7412 96.1895 22.5171 95.1206 22.5171C94.2758 22.5171 93.6157 22.7203 93.1426 23.1245C92.7427 23.4858 92.5422 23.9262 92.5422 24.4478C92.5422 25.0255 92.7709 25.5032 93.2305 25.8788C93.6303 26.2259 94.3569 26.6015 95.4112 27.0067C96.7009 27.513 97.6482 28.105 98.2576 28.7837C98.8647 29.4602 99.1677 30.3069 99.1677 31.3173Z" fill="white"/>
<path d="M99.1677 31.3173C99.1677 32.5605 98.725 33.572 97.8363 34.3528C96.8597 35.2062 95.5002 35.6323 93.7531 35.6323C92.1401 35.6323 90.847 35.3292 89.8682 34.7218L90.4246 32.7703C91.4789 33.3919 92.6357 33.7038 93.8962 33.7038C94.8007 33.7038 95.5047 33.5039 96.0104 33.1063C96.5139 32.7088 96.7651 32.175 96.7651 31.5095C96.7651 30.9164 96.5578 30.4167 96.1422 30.0115C95.7288 29.6062 95.0383 29.2296 94.0741 28.8814C91.4496 27.927 90.1385 26.529 90.1385 24.6905C90.1385 23.4891 90.5981 22.5039 91.5183 21.7374C92.4352 20.9697 93.6585 20.5864 95.1881 20.5864C96.5522 20.5864 97.6854 20.8182 98.5899 21.2805L97.9895 23.1892C97.1447 22.7412 96.1895 22.5171 95.1206 22.5171C94.2758 22.5171 93.6157 22.7203 93.1426 23.1245C92.7427 23.4858 92.5422 23.9262 92.5422 24.4478C92.5422 25.0255 92.7709 25.5032 93.2305 25.8788C93.6303 26.2259 94.3569 26.6015 95.4112 27.0067C96.7009 27.513 97.6482 28.105 98.2576 28.7837C98.8647 29.4602 99.1677 30.3069 99.1677 31.3173Z" fill="white"/>
<path d="M99.1677 31.3173C99.1677 32.5605 98.725 33.572 97.8363 34.3528C96.8597 35.2062 95.5002 35.6323 93.7531 35.6323C92.1401 35.6323 90.847 35.3292 89.8682 34.7218L90.4246 32.7703C91.4789 33.3919 92.6357 33.7038 93.8962 33.7038C94.8007 33.7038 95.5047 33.5039 96.0104 33.1063C96.5139 32.7088 96.7651 32.175 96.7651 31.5095C96.7651 30.9164 96.5578 30.4167 96.1422 30.0115C95.7288 29.6062 95.0383 29.2296 94.0741 28.8814C91.4496 27.927 90.1385 26.529 90.1385 24.6905C90.1385 23.4891 90.5981 22.5039 91.5183 21.7374C92.4352 20.9697 93.6585 20.5864 95.1881 20.5864C96.5522 20.5864 97.6854 20.8182 98.5899 21.2805L97.9895 23.1892C97.1447 22.7412 96.1895 22.5171 95.1206 22.5171C94.2758 22.5171 93.6157 22.7203 93.1426 23.1245C92.7427 23.4858 92.5422 23.9262 92.5422 24.4478C92.5422 25.0255 92.7709 25.5032 93.2305 25.8788C93.6303 26.2259 94.3569 26.6015 95.4112 27.0067C96.7009 27.513 97.6482 28.105 98.2576 28.7837C98.8647 29.4602 99.1677 30.3069 99.1677 31.3173Z" fill="white"/>
<path d="M107.105 26.635H104.458V31.7517C104.458 33.0531 104.924 33.7033 105.859 33.7033C106.288 33.7033 106.644 33.667 106.926 33.5945L106.992 35.3726C106.519 35.545 105.897 35.6318 105.125 35.6318C104.176 35.6318 103.435 35.3495 102.9 34.7861C102.367 34.2216 102.099 33.275 102.099 31.945V26.6328H100.522V24.8756H102.099V22.946L104.458 22.252V24.8756H107.105V26.635Z" fill="white"/>
<path d="M107.105 26.635H104.458V31.7517C104.458 33.0531 104.924 33.7033 105.859 33.7033C106.288 33.7033 106.644 33.667 106.926 33.5945L106.992 35.3726C106.519 35.545 105.897 35.6318 105.125 35.6318C104.176 35.6318 103.435 35.3495 102.9 34.7861C102.367 34.2216 102.099 33.275 102.099 31.945V26.6328H100.522V24.8756H102.099V22.946L104.458 22.252V24.8756H107.105V26.635Z" fill="white"/>
<path d="M107.105 26.635H104.458V31.7517C104.458 33.0531 104.924 33.7033 105.859 33.7033C106.288 33.7033 106.644 33.667 106.926 33.5945L106.992 35.3726C106.519 35.545 105.897 35.6318 105.125 35.6318C104.176 35.6318 103.435 35.3495 102.9 34.7861C102.367 34.2216 102.099 33.275 102.099 31.945V26.6328H100.522V24.8756H102.099V22.946L104.458 22.252V24.8756H107.105V26.635Z" fill="white"/>
<path d="M119.05 30.0604C119.05 31.6803 118.575 33.0103 117.626 34.0503C116.632 35.1211 115.311 35.6549 113.666 35.6549C112.08 35.6549 110.817 35.142 109.875 34.1162C108.934 33.0905 108.463 31.7956 108.463 30.2351C108.463 28.602 108.947 27.2643 109.919 26.2243C110.889 25.1832 112.198 24.6626 113.844 24.6626C115.43 24.6626 116.706 25.1755 117.669 26.2023C118.59 27.1984 119.05 28.4845 119.05 30.0604ZM116.558 30.1362C116.558 29.1643 116.345 28.3307 115.914 27.6355C115.411 26.7943 114.691 26.3747 113.758 26.3747C112.793 26.3747 112.059 26.7954 111.556 27.6355C111.125 28.3318 110.912 29.1785 110.912 30.1801C110.912 31.1521 111.125 31.9856 111.556 32.6797C112.075 33.521 112.801 33.9405 113.737 33.9405C114.654 33.9405 115.373 33.5122 115.893 32.6578C116.335 31.9494 116.558 31.1071 116.558 30.1362Z" fill="white"/>
<path d="M119.05 30.0604C119.05 31.6803 118.575 33.0103 117.626 34.0503C116.632 35.1211 115.311 35.6549 113.666 35.6549C112.08 35.6549 110.817 35.142 109.875 34.1162C108.934 33.0905 108.463 31.7956 108.463 30.2351C108.463 28.602 108.947 27.2643 109.919 26.2243C110.889 25.1832 112.198 24.6626 113.844 24.6626C115.43 24.6626 116.706 25.1755 117.669 26.2023C118.59 27.1984 119.05 28.4845 119.05 30.0604ZM116.558 30.1362C116.558 29.1643 116.345 28.3307 115.914 27.6355C115.411 26.7943 114.691 26.3747 113.758 26.3747C112.793 26.3747 112.059 26.7954 111.556 27.6355C111.125 28.3318 110.912 29.1785 110.912 30.1801C110.912 31.1521 111.125 31.9856 111.556 32.6797C112.075 33.521 112.801 33.9405 113.737 33.9405C114.654 33.9405 115.373 33.5122 115.893 32.6578C116.335 31.9494 116.558 31.1071 116.558 30.1362Z" fill="white"/>
<path d="M119.05 30.0604C119.05 31.6803 118.575 33.0103 117.626 34.0503C116.632 35.1211 115.311 35.6549 113.666 35.6549C112.08 35.6549 110.817 35.142 109.875 34.1162C108.934 33.0905 108.463 31.7956 108.463 30.2351C108.463 28.602 108.947 27.2643 109.919 26.2243C110.889 25.1832 112.198 24.6626 113.844 24.6626C115.43 24.6626 116.706 25.1755 117.669 26.2023C118.59 27.1984 119.05 28.4845 119.05 30.0604ZM116.558 30.1362C116.558 29.1643 116.345 28.3307 115.914 27.6355C115.411 26.7943 114.691 26.3747 113.758 26.3747C112.793 26.3747 112.059 26.7954 111.556 27.6355C111.125 28.3318 110.912 29.1785 110.912 30.1801C110.912 31.1521 111.125 31.9856 111.556 32.6797C112.075 33.521 112.801 33.9405 113.737 33.9405C114.654 33.9405 115.373 33.5122 115.893 32.6578C116.335 31.9494 116.558 31.1071 116.558 30.1362Z" fill="white"/>
<path d="M126.855 26.9362C126.618 26.8934 126.364 26.8714 126.098 26.8714C125.253 26.8714 124.6 27.1822 124.141 27.8049C123.741 28.354 123.54 29.0481 123.54 29.8861V35.4157H121.14L121.162 28.1959C121.162 26.9812 121.132 25.8753 121.072 24.8781H123.164L123.252 26.8945H123.318C123.572 26.2015 123.972 25.6436 124.519 25.2251C125.054 24.8484 125.632 24.6606 126.255 24.6606C126.477 24.6606 126.677 24.676 126.855 24.7035V26.9362Z" fill="white"/>
<path d="M126.855 26.9362C126.618 26.8934 126.364 26.8714 126.098 26.8714C125.253 26.8714 124.6 27.1822 124.141 27.8049C123.741 28.354 123.54 29.0481 123.54 29.8861V35.4157H121.14L121.162 28.1959C121.162 26.9812 121.132 25.8753 121.072 24.8781H123.164L123.252 26.8945H123.318C123.572 26.2015 123.972 25.6436 124.519 25.2251C125.054 24.8484 125.632 24.6606 126.255 24.6606C126.477 24.6606 126.677 24.676 126.855 24.7035V26.9362Z" fill="white"/>
<path d="M126.855 26.9362C126.618 26.8934 126.364 26.8714 126.098 26.8714C125.253 26.8714 124.6 27.1822 124.141 27.8049C123.741 28.354 123.54 29.0481 123.54 29.8861V35.4157H121.14L121.162 28.1959C121.162 26.9812 121.132 25.8753 121.072 24.8781H123.164L123.252 26.8945H123.318C123.572 26.2015 123.972 25.6436 124.519 25.2251C125.054 24.8484 125.632 24.6606 126.255 24.6606C126.477 24.6606 126.677 24.676 126.855 24.7035V26.9362Z" fill="white"/>
<path d="M137.595 29.649C137.595 30.0685 137.567 30.4221 137.507 30.7109H130.303C130.331 31.7521 130.679 32.5483 131.348 33.0974C131.955 33.5883 132.74 33.8343 133.705 33.8343C134.771 33.8343 135.744 33.6685 136.62 33.3357L136.996 34.9611C135.973 35.396 134.766 35.6124 133.372 35.6124C131.696 35.6124 130.381 35.1313 129.423 34.1704C128.468 33.2094 127.989 31.919 127.989 30.3002C127.989 28.7111 128.434 27.3877 129.325 26.3323C130.258 25.2055 131.518 24.6421 133.104 24.6421C134.662 24.6421 135.841 25.2055 136.642 26.3323C137.276 27.2273 137.595 28.3344 137.595 29.649ZM135.305 29.0416C135.321 28.3475 135.164 27.7479 134.839 27.2416C134.423 26.5904 133.785 26.2653 132.925 26.2653C132.14 26.2653 131.501 26.5827 131.014 27.2197C130.614 27.7259 130.376 28.3333 130.303 29.0405H135.305V29.0416Z" fill="white"/>
<path d="M137.595 29.649C137.595 30.0685 137.567 30.4221 137.507 30.7109H130.303C130.331 31.7521 130.679 32.5483 131.348 33.0974C131.955 33.5883 132.74 33.8343 133.705 33.8343C134.771 33.8343 135.744 33.6685 136.62 33.3357L136.996 34.9611C135.973 35.396 134.766 35.6124 133.372 35.6124C131.696 35.6124 130.381 35.1313 129.423 34.1704C128.468 33.2094 127.989 31.919 127.989 30.3002C127.989 28.7111 128.434 27.3877 129.325 26.3323C130.258 25.2055 131.518 24.6421 133.104 24.6421C134.662 24.6421 135.841 25.2055 136.642 26.3323C137.276 27.2273 137.595 28.3344 137.595 29.649ZM135.305 29.0416C135.321 28.3475 135.164 27.7479 134.839 27.2416C134.423 26.5904 133.785 26.2653 132.925 26.2653C132.14 26.2653 131.501 26.5827 131.014 27.2197C130.614 27.7259 130.376 28.3333 130.303 29.0405H135.305V29.0416Z" fill="white"/>
<path d="M137.595 29.649C137.595 30.0685 137.567 30.4221 137.507 30.7109H130.303C130.331 31.7521 130.679 32.5483 131.348 33.0974C131.955 33.5883 132.74 33.8343 133.705 33.8343C134.771 33.8343 135.744 33.6685 136.62 33.3357L136.996 34.9611C135.973 35.396 134.766 35.6124 133.372 35.6124C131.696 35.6124 130.381 35.1313 129.423 34.1704C128.468 33.2094 127.989 31.919 127.989 30.3002C127.989 28.7111 128.434 27.3877 129.325 26.3323C130.258 25.2055 131.518 24.6421 133.104 24.6421C134.662 24.6421 135.841 25.2055 136.642 26.3323C137.276 27.2273 137.595 28.3344 137.595 29.649ZM135.305 29.0416C135.321 28.3475 135.164 27.7479 134.839 27.2416C134.423 26.5904 133.785 26.2653 132.925 26.2653C132.14 26.2653 131.501 26.5827 131.014 27.2197C130.614 27.7259 130.376 28.3333 130.303 29.0405H135.305V29.0416Z" fill="white"/>
<path d="M55.2505 11.8116C55.2505 13.1042 54.8529 14.0773 54.0588 14.7307C53.3233 15.3337 52.278 15.6357 50.924 15.6357C50.2527 15.6357 49.6782 15.6071 49.1973 15.55V8.48725C49.8247 8.38841 50.5005 8.33789 51.2304 8.33789C52.5201 8.33789 53.4922 8.61135 54.1478 9.15827C54.8822 9.77658 55.2505 10.6607 55.2505 11.8116ZM54.0059 11.8435C54.0059 11.0055 53.7783 10.363 53.3233 9.91496C52.8682 9.46798 52.2036 9.24394 51.3284 9.24394C50.9567 9.24394 50.6402 9.2681 50.3777 9.31862V14.6879C50.523 14.7099 50.7889 14.7197 51.1752 14.7197C52.0786 14.7197 52.7758 14.4748 53.2669 13.985C53.7581 13.4952 54.0059 12.7814 54.0059 11.8435Z" fill="#1C1C1C"/>
<path d="M55.2505 11.8116C55.2505 13.1042 54.8529 14.0773 54.0588 14.7307C53.3233 15.3337 52.278 15.6357 50.924 15.6357C50.2527 15.6357 49.6782 15.6071 49.1973 15.55V8.48725C49.8247 8.38841 50.5005 8.33789 51.2304 8.33789C52.5201 8.33789 53.4922 8.61135 54.1478 9.15827C54.8822 9.77658 55.2505 10.6607 55.2505 11.8116ZM54.0059 11.8435C54.0059 11.0055 53.7783 10.363 53.3233 9.91496C52.8682 9.46798 52.2036 9.24394 51.3284 9.24394C50.9567 9.24394 50.6402 9.2681 50.3777 9.31862V14.6879C50.523 14.7099 50.7889 14.7197 51.1752 14.7197C52.0786 14.7197 52.7758 14.4748 53.2669 13.985C53.7581 13.4952 54.0059 12.7814 54.0059 11.8435Z" fill="black" fill-opacity="0.2"/>
<path d="M55.2505 11.8116C55.2505 13.1042 54.8529 14.0773 54.0588 14.7307C53.3233 15.3337 52.278 15.6357 50.924 15.6357C50.2527 15.6357 49.6782 15.6071 49.1973 15.55V8.48725C49.8247 8.38841 50.5005 8.33789 51.2304 8.33789C52.5201 8.33789 53.4922 8.61135 54.1478 9.15827C54.8822 9.77658 55.2505 10.6607 55.2505 11.8116ZM54.0059 11.8435C54.0059 11.0055 53.7783 10.363 53.3233 9.91496C52.8682 9.46798 52.2036 9.24394 51.3284 9.24394C50.9567 9.24394 50.6402 9.2681 50.3777 9.31862V14.6879C50.523 14.7099 50.7889 14.7197 51.1752 14.7197C52.0786 14.7197 52.7758 14.4748 53.2669 13.985C53.7581 13.4952 54.0059 12.7814 54.0059 11.8435Z" fill="white"/>
<path d="M61.851 12.9412C61.851 13.7374 61.6178 14.3898 61.1515 14.9015C60.6626 15.4276 60.0149 15.6901 59.2062 15.6901C58.4267 15.6901 57.8061 15.4386 57.3431 14.9334C56.8813 14.4293 56.6504 13.7934 56.6504 13.0268C56.6504 12.2251 56.8881 11.5673 57.3657 11.0566C57.8432 10.5459 58.4853 10.29 59.294 10.29C60.0735 10.29 60.6998 10.5415 61.174 11.0456C61.6246 11.5354 61.851 12.168 61.851 12.9412ZM60.6266 12.9785C60.6266 12.5008 60.5207 12.0911 60.3101 11.7496C60.0623 11.3367 59.7097 11.1302 59.2512 11.1302C58.777 11.1302 58.4166 11.3367 58.1688 11.7496C57.957 12.0911 57.8523 12.5074 57.8523 12.9994C57.8523 13.4771 57.9581 13.8868 58.1688 14.2283C58.4245 14.6413 58.7804 14.8477 59.24 14.8477C59.6905 14.8477 60.0442 14.638 60.2988 14.2173C60.5173 13.8692 60.6266 13.4563 60.6266 12.9785Z" fill="#1C1C1C"/>
<path d="M61.851 12.9412C61.851 13.7374 61.6178 14.3898 61.1515 14.9015C60.6626 15.4276 60.0149 15.6901 59.2062 15.6901C58.4267 15.6901 57.8061 15.4386 57.3431 14.9334C56.8813 14.4293 56.6504 13.7934 56.6504 13.0268C56.6504 12.2251 56.8881 11.5673 57.3657 11.0566C57.8432 10.5459 58.4853 10.29 59.294 10.29C60.0735 10.29 60.6998 10.5415 61.174 11.0456C61.6246 11.5354 61.851 12.168 61.851 12.9412ZM60.6266 12.9785C60.6266 12.5008 60.5207 12.0911 60.3101 11.7496C60.0623 11.3367 59.7097 11.1302 59.2512 11.1302C58.777 11.1302 58.4166 11.3367 58.1688 11.7496C57.957 12.0911 57.8523 12.5074 57.8523 12.9994C57.8523 13.4771 57.9581 13.8868 58.1688 14.2283C58.4245 14.6413 58.7804 14.8477 59.24 14.8477C59.6905 14.8477 60.0442 14.638 60.2988 14.2173C60.5173 13.8692 60.6266 13.4563 60.6266 12.9785Z" fill="black" fill-opacity="0.2"/>
<path d="M61.851 12.9412C61.851 13.7374 61.6178 14.3898 61.1515 14.9015C60.6626 15.4276 60.0149 15.6901 59.2062 15.6901C58.4267 15.6901 57.8061 15.4386 57.3431 14.9334C56.8813 14.4293 56.6504 13.7934 56.6504 13.0268C56.6504 12.2251 56.8881 11.5673 57.3657 11.0566C57.8432 10.5459 58.4853 10.29 59.294 10.29C60.0735 10.29 60.6998 10.5415 61.174 11.0456C61.6246 11.5354 61.851 12.168 61.851 12.9412ZM60.6266 12.9785C60.6266 12.5008 60.5207 12.0911 60.3101 11.7496C60.0623 11.3367 59.7097 11.1302 59.2512 11.1302C58.777 11.1302 58.4166 11.3367 58.1688 11.7496C57.957 12.0911 57.8523 12.5074 57.8523 12.9994C57.8523 13.4771 57.9581 13.8868 58.1688 14.2283C58.4245 14.6413 58.7804 14.8477 59.24 14.8477C59.6905 14.8477 60.0442 14.638 60.2988 14.2173C60.5173 13.8692 60.6266 13.4563 60.6266 12.9785Z" fill="white"/>
<path d="M70.6991 10.394L69.0377 15.5711H67.9564L67.2681 13.323C67.0936 12.7618 66.9516 12.2039 66.8412 11.6504H66.8198C66.7173 12.2193 66.5754 12.7761 66.3929 13.323L65.6619 15.5711H64.5682L63.0059 10.394H64.219L64.8194 12.8552C64.9647 13.4373 65.0841 13.9919 65.1798 14.5168H65.2012C65.2891 14.0841 65.4344 13.5328 65.6394 12.8662L66.3929 10.3951H67.3549L68.0769 12.8135C68.2515 13.4032 68.3934 13.971 68.5027 14.5179H68.5353C68.6153 13.9853 68.7358 13.4175 68.8958 12.8135L69.5401 10.3951H70.6991V10.394Z" fill="#1C1C1C"/>
<path d="M70.6991 10.394L69.0377 15.5711H67.9564L67.2681 13.323C67.0936 12.7618 66.9516 12.2039 66.8412 11.6504H66.8198C66.7173 12.2193 66.5754 12.7761 66.3929 13.323L65.6619 15.5711H64.5682L63.0059 10.394H64.219L64.8194 12.8552C64.9647 13.4373 65.0841 13.9919 65.1798 14.5168H65.2012C65.2891 14.0841 65.4344 13.5328 65.6394 12.8662L66.3929 10.3951H67.3549L68.0769 12.8135C68.2515 13.4032 68.3934 13.971 68.5027 14.5179H68.5353C68.6153 13.9853 68.7358 13.4175 68.8958 12.8135L69.5401 10.3951H70.6991V10.394Z" fill="black" fill-opacity="0.2"/>
<path d="M70.6991 10.394L69.0377 15.5711H67.9564L67.2681 13.323C67.0936 12.7618 66.9516 12.2039 66.8412 11.6504H66.8198C66.7173 12.2193 66.5754 12.7761 66.3929 13.323L65.6619 15.5711H64.5682L63.0059 10.394H64.219L64.8194 12.8552C64.9647 13.4373 65.0841 13.9919 65.1798 14.5168H65.2012C65.2891 14.0841 65.4344 13.5328 65.6394 12.8662L66.3929 10.3951H67.3549L68.0769 12.8135C68.2515 13.4032 68.3934 13.971 68.5027 14.5179H68.5353C68.6153 13.9853 68.7358 13.4175 68.8958 12.8135L69.5401 10.3951H70.6991V10.394Z" fill="white"/>
<path d="M76.8183 15.5729H75.6379V12.6077C75.6379 11.694 75.2819 11.2371 74.5678 11.2371C74.2175 11.2371 73.9348 11.3623 73.7151 11.6138C73.4977 11.8653 73.3873 12.1618 73.3873 12.5012V15.5718H72.2069V11.8752C72.2069 11.4205 72.1922 10.9274 72.1641 10.3936H73.2015L73.2567 11.203H73.2893C73.4268 10.9515 73.6318 10.744 73.901 10.5781C74.2209 10.3849 74.579 10.2871 74.971 10.2871C75.4666 10.2871 75.8789 10.4431 76.2067 10.7561C76.6144 11.1393 76.8183 11.7115 76.8183 12.4715V15.5729Z" fill="#1C1C1C"/>
<path d="M76.8183 15.5729H75.6379V12.6077C75.6379 11.694 75.2819 11.2371 74.5678 11.2371C74.2175 11.2371 73.9348 11.3623 73.7151 11.6138C73.4977 11.8653 73.3873 12.1618 73.3873 12.5012V15.5718H72.2069V11.8752C72.2069 11.4205 72.1922 10.9274 72.1641 10.3936H73.2015L73.2567 11.203H73.2893C73.4268 10.9515 73.6318 10.744 73.901 10.5781C74.2209 10.3849 74.579 10.2871 74.971 10.2871C75.4666 10.2871 75.8789 10.4431 76.2067 10.7561C76.6144 11.1393 76.8183 11.7115 76.8183 12.4715V15.5729Z" fill="black" fill-opacity="0.2"/>
<path d="M76.8183 15.5729H75.6379V12.6077C75.6379 11.694 75.2819 11.2371 74.5678 11.2371C74.2175 11.2371 73.9348 11.3623 73.7151 11.6138C73.4977 11.8653 73.3873 12.1618 73.3873 12.5012V15.5718H72.2069V11.8752C72.2069 11.4205 72.1922 10.9274 72.1641 10.3936H73.2015L73.2567 11.203H73.2893C73.4268 10.9515 73.6318 10.744 73.901 10.5781C74.2209 10.3849 74.579 10.2871 74.971 10.2871C75.4666 10.2871 75.8789 10.4431 76.2067 10.7561C76.6144 11.1393 76.8183 11.7115 76.8183 12.4715V15.5729Z" fill="white"/>
<path d="M80.0739 15.5721H78.8945V8.01953H80.0739V15.5721Z" fill="#1C1C1C"/>
<path d="M80.0739 15.5721H78.8945V8.01953H80.0739V15.5721Z" fill="black" fill-opacity="0.2"/>
<path d="M80.0739 15.5721H78.8945V8.01953H80.0739V15.5721Z" fill="white"/>
<path d="M87.0219 12.9412C87.0219 13.7374 86.7887 14.3898 86.3224 14.9015C85.8335 15.4276 85.1847 15.6901 84.3771 15.6901C83.5965 15.6901 82.9758 15.4386 82.514 14.9334C82.0522 14.4293 81.8213 13.7934 81.8213 13.0268C81.8213 12.2251 82.059 11.5673 82.5366 11.0566C83.0141 10.5459 83.6562 10.29 84.4638 10.29C85.2444 10.29 85.8696 10.5415 86.3449 11.0456C86.7955 11.5354 87.0219 12.168 87.0219 12.9412ZM85.7963 12.9785C85.7963 12.5008 85.6905 12.0911 85.4798 11.7496C85.2331 11.3367 84.8795 11.1302 84.4221 11.1302C83.9468 11.1302 83.5864 11.3367 83.3397 11.7496C83.1279 12.0911 83.0232 12.5074 83.0232 12.9994C83.0232 13.4771 83.129 13.8868 83.3397 14.2283C83.5954 14.6413 83.9513 14.8477 84.4109 14.8477C84.8614 14.8477 85.214 14.638 85.4686 14.2173C85.6882 13.8692 85.7963 13.4563 85.7963 12.9785Z" fill="#1C1C1C"/>
<path d="M87.0219 12.9412C87.0219 13.7374 86.7887 14.3898 86.3224 14.9015C85.8335 15.4276 85.1847 15.6901 84.3771 15.6901C83.5965 15.6901 82.9758 15.4386 82.514 14.9334C82.0522 14.4293 81.8213 13.7934 81.8213 13.0268C81.8213 12.2251 82.059 11.5673 82.5366 11.0566C83.0141 10.5459 83.6562 10.29 84.4638 10.29C85.2444 10.29 85.8696 10.5415 86.3449 11.0456C86.7955 11.5354 87.0219 12.168 87.0219 12.9412ZM85.7963 12.9785C85.7963 12.5008 85.6905 12.0911 85.4798 11.7496C85.2331 11.3367 84.8795 11.1302 84.4221 11.1302C83.9468 11.1302 83.5864 11.3367 83.3397 11.7496C83.1279 12.0911 83.0232 12.5074 83.0232 12.9994C83.0232 13.4771 83.129 13.8868 83.3397 14.2283C83.5954 14.6413 83.9513 14.8477 84.4109 14.8477C84.8614 14.8477 85.214 14.638 85.4686 14.2173C85.6882 13.8692 85.7963 13.4563 85.7963 12.9785Z" fill="black" fill-opacity="0.2"/>
<path d="M87.0219 12.9412C87.0219 13.7374 86.7887 14.3898 86.3224 14.9015C85.8335 15.4276 85.1847 15.6901 84.3771 15.6901C83.5965 15.6901 82.9758 15.4386 82.514 14.9334C82.0522 14.4293 81.8213 13.7934 81.8213 13.0268C81.8213 12.2251 82.059 11.5673 82.5366 11.0566C83.0141 10.5459 83.6562 10.29 84.4638 10.29C85.2444 10.29 85.8696 10.5415 86.3449 11.0456C86.7955 11.5354 87.0219 12.168 87.0219 12.9412ZM85.7963 12.9785C85.7963 12.5008 85.6905 12.0911 85.4798 11.7496C85.2331 11.3367 84.8795 11.1302 84.4221 11.1302C83.9468 11.1302 83.5864 11.3367 83.3397 11.7496C83.1279 12.0911 83.0232 12.5074 83.0232 12.9994C83.0232 13.4771 83.129 13.8868 83.3397 14.2283C83.5954 14.6413 83.9513 14.8477 84.4109 14.8477C84.8614 14.8477 85.214 14.638 85.4686 14.2173C85.6882 13.8692 85.7963 13.4563 85.7963 12.9785Z" fill="white"/>
<path d="M92.7371 15.5726H91.6771L91.5893 14.9762H91.5566C91.1939 15.4518 90.6769 15.6901 90.0056 15.6901C89.5043 15.6901 89.0988 15.533 88.7936 15.2211C88.5165 14.9378 88.3779 14.5852 88.3779 14.1668C88.3779 13.5342 88.6483 13.0521 89.1923 12.7182C89.7352 12.3844 90.4989 12.2207 91.4823 12.2284V12.1318C91.4823 11.4498 91.1151 11.1093 90.3795 11.1093C89.8558 11.1093 89.3939 11.2378 88.9952 11.4926L88.7553 10.737C89.2486 10.4394 89.858 10.29 90.5767 10.29C91.9644 10.29 92.6605 11.0039 92.6605 12.4316V14.3381C92.6605 14.8554 92.6864 15.2672 92.7371 15.5726ZM91.5116 13.7934V12.995C90.2094 12.973 89.5584 13.3212 89.5584 14.0383C89.5584 14.3085 89.6327 14.5106 89.7848 14.6456C89.9369 14.7807 90.1306 14.8477 90.3615 14.8477C90.6206 14.8477 90.8628 14.7676 91.0835 14.6083C91.3054 14.448 91.4417 14.2448 91.4924 13.9955C91.5048 13.9395 91.5116 13.8714 91.5116 13.7934Z" fill="#1C1C1C"/>
<path d="M92.7371 15.5726H91.6771L91.5893 14.9762H91.5566C91.1939 15.4518 90.6769 15.6901 90.0056 15.6901C89.5043 15.6901 89.0988 15.533 88.7936 15.2211C88.5165 14.9378 88.3779 14.5852 88.3779 14.1668C88.3779 13.5342 88.6483 13.0521 89.1923 12.7182C89.7352 12.3844 90.4989 12.2207 91.4823 12.2284V12.1318C91.4823 11.4498 91.1151 11.1093 90.3795 11.1093C89.8558 11.1093 89.3939 11.2378 88.9952 11.4926L88.7553 10.737C89.2486 10.4394 89.858 10.29 90.5767 10.29C91.9644 10.29 92.6605 11.0039 92.6605 12.4316V14.3381C92.6605 14.8554 92.6864 15.2672 92.7371 15.5726ZM91.5116 13.7934V12.995C90.2094 12.973 89.5584 13.3212 89.5584 14.0383C89.5584 14.3085 89.6327 14.5106 89.7848 14.6456C89.9369 14.7807 90.1306 14.8477 90.3615 14.8477C90.6206 14.8477 90.8628 14.7676 91.0835 14.6083C91.3054 14.448 91.4417 14.2448 91.4924 13.9955C91.5048 13.9395 91.5116 13.8714 91.5116 13.7934Z" fill="black" fill-opacity="0.2"/>
<path d="M92.7371 15.5726H91.6771L91.5893 14.9762H91.5566C91.1939 15.4518 90.6769 15.6901 90.0056 15.6901C89.5043 15.6901 89.0988 15.533 88.7936 15.2211C88.5165 14.9378 88.3779 14.5852 88.3779 14.1668C88.3779 13.5342 88.6483 13.0521 89.1923 12.7182C89.7352 12.3844 90.4989 12.2207 91.4823 12.2284V12.1318C91.4823 11.4498 91.1151 11.1093 90.3795 11.1093C89.8558 11.1093 89.3939 11.2378 88.9952 11.4926L88.7553 10.737C89.2486 10.4394 89.858 10.29 90.5767 10.29C91.9644 10.29 92.6605 11.0039 92.6605 12.4316V14.3381C92.6605 14.8554 92.6864 15.2672 92.7371 15.5726ZM91.5116 13.7934V12.995C90.2094 12.973 89.5584 13.3212 89.5584 14.0383C89.5584 14.3085 89.6327 14.5106 89.7848 14.6456C89.9369 14.7807 90.1306 14.8477 90.3615 14.8477C90.6206 14.8477 90.8628 14.7676 91.0835 14.6083C91.3054 14.448 91.4417 14.2448 91.4924 13.9955C91.5048 13.9395 91.5116 13.8714 91.5116 13.7934Z" fill="white"/>
<path d="M99.4438 15.5721H98.3962L98.341 14.7407H98.3084C97.9738 15.3733 97.4039 15.6896 96.603 15.6896C95.9632 15.6896 95.4304 15.4447 95.008 14.9549C94.5856 14.4651 94.375 13.8292 94.375 13.0484C94.375 12.2104 94.6037 11.5317 95.0632 11.0133C95.5082 10.5301 96.0533 10.2885 96.7021 10.2885C97.4151 10.2885 97.9141 10.5224 98.198 10.9914H98.2205V8.01953H99.4021V14.1773C99.4021 14.6814 99.4156 15.146 99.4438 15.5721ZM98.2205 13.3888V12.5256C98.2205 12.3762 98.2092 12.2554 98.1878 12.1632C98.1214 11.8864 97.9783 11.6536 97.7609 11.4658C97.5413 11.278 97.2766 11.1836 96.9713 11.1836C96.5309 11.1836 96.1862 11.3538 95.9328 11.6953C95.6816 12.0369 95.5543 12.4729 95.5543 13.0055C95.5543 13.5173 95.6749 13.9324 95.917 14.252C96.1727 14.5925 96.5174 14.7627 96.9488 14.7627C97.3363 14.7627 97.6461 14.621 97.8815 14.3366C98.109 14.0741 98.2205 13.7578 98.2205 13.3888Z" fill="#1C1C1C"/>
<path d="M99.4438 15.5721H98.3962L98.341 14.7407H98.3084C97.9738 15.3733 97.4039 15.6896 96.603 15.6896C95.9632 15.6896 95.4304 15.4447 95.008 14.9549C94.5856 14.4651 94.375 13.8292 94.375 13.0484C94.375 12.2104 94.6037 11.5317 95.0632 11.0133C95.5082 10.5301 96.0533 10.2885 96.7021 10.2885C97.4151 10.2885 97.9141 10.5224 98.198 10.9914H98.2205V8.01953H99.4021V14.1773C99.4021 14.6814 99.4156 15.146 99.4438 15.5721ZM98.2205 13.3888V12.5256C98.2205 12.3762 98.2092 12.2554 98.1878 12.1632C98.1214 11.8864 97.9783 11.6536 97.7609 11.4658C97.5413 11.278 97.2766 11.1836 96.9713 11.1836C96.5309 11.1836 96.1862 11.3538 95.9328 11.6953C95.6816 12.0369 95.5543 12.4729 95.5543 13.0055C95.5543 13.5173 95.6749 13.9324 95.917 14.252C96.1727 14.5925 96.5174 14.7627 96.9488 14.7627C97.3363 14.7627 97.6461 14.621 97.8815 14.3366C98.109 14.0741 98.2205 13.7578 98.2205 13.3888Z" fill="black" fill-opacity="0.2"/>
<path d="M99.4438 15.5721H98.3962L98.341 14.7407H98.3084C97.9738 15.3733 97.4039 15.6896 96.603 15.6896C95.9632 15.6896 95.4304 15.4447 95.008 14.9549C94.5856 14.4651 94.375 13.8292 94.375 13.0484C94.375 12.2104 94.6037 11.5317 95.0632 11.0133C95.5082 10.5301 96.0533 10.2885 96.7021 10.2885C97.4151 10.2885 97.9141 10.5224 98.198 10.9914H98.2205V8.01953H99.4021V14.1773C99.4021 14.6814 99.4156 15.146 99.4438 15.5721ZM98.2205 13.3888V12.5256C98.2205 12.3762 98.2092 12.2554 98.1878 12.1632C98.1214 11.8864 97.9783 11.6536 97.7609 11.4658C97.5413 11.278 97.2766 11.1836 96.9713 11.1836C96.5309 11.1836 96.1862 11.3538 95.9328 11.6953C95.6816 12.0369 95.5543 12.4729 95.5543 13.0055C95.5543 13.5173 95.6749 13.9324 95.917 14.252C96.1727 14.5925 96.5174 14.7627 96.9488 14.7627C97.3363 14.7627 97.6461 14.621 97.8815 14.3366C98.109 14.0741 98.2205 13.7578 98.2205 13.3888Z" fill="white"/>
<path d="M109.54 12.9412C109.54 13.7374 109.307 14.3898 108.841 14.9015C108.352 15.4276 107.706 15.6901 106.896 15.6901C106.117 15.6901 105.497 15.4386 105.033 14.9334C104.571 14.4293 104.34 13.7934 104.34 13.0268C104.34 12.2251 104.578 11.5673 105.055 11.0566C105.533 10.5459 106.175 10.29 106.985 10.29C107.763 10.29 108.39 10.5415 108.863 11.0456C109.314 11.5354 109.54 12.168 109.54 12.9412ZM108.317 12.9785C108.317 12.5008 108.211 12.0911 108.001 11.7496C107.752 11.3367 107.4 11.1302 106.941 11.1302C106.468 11.1302 106.107 11.3367 105.858 11.7496C105.646 12.0911 105.542 12.5074 105.542 12.9994C105.542 13.4771 105.648 13.8868 105.858 14.2283C106.114 14.6413 106.47 14.8477 106.929 14.8477C107.38 14.8477 107.735 14.638 107.989 14.2173C108.207 13.8692 108.317 13.4563 108.317 12.9785Z" fill="#1C1C1C"/>
<path d="M109.54 12.9412C109.54 13.7374 109.307 14.3898 108.841 14.9015C108.352 15.4276 107.706 15.6901 106.896 15.6901C106.117 15.6901 105.497 15.4386 105.033 14.9334C104.571 14.4293 104.34 13.7934 104.34 13.0268C104.34 12.2251 104.578 11.5673 105.055 11.0566C105.533 10.5459 106.175 10.29 106.985 10.29C107.763 10.29 108.39 10.5415 108.863 11.0456C109.314 11.5354 109.54 12.168 109.54 12.9412ZM108.317 12.9785C108.317 12.5008 108.211 12.0911 108.001 11.7496C107.752 11.3367 107.4 11.1302 106.941 11.1302C106.468 11.1302 106.107 11.3367 105.858 11.7496C105.646 12.0911 105.542 12.5074 105.542 12.9994C105.542 13.4771 105.648 13.8868 105.858 14.2283C106.114 14.6413 106.47 14.8477 106.929 14.8477C107.38 14.8477 107.735 14.638 107.989 14.2173C108.207 13.8692 108.317 13.4563 108.317 12.9785Z" fill="black" fill-opacity="0.2"/>
<path d="M109.54 12.9412C109.54 13.7374 109.307 14.3898 108.841 14.9015C108.352 15.4276 107.706 15.6901 106.896 15.6901C106.117 15.6901 105.497 15.4386 105.033 14.9334C104.571 14.4293 104.34 13.7934 104.34 13.0268C104.34 12.2251 104.578 11.5673 105.055 11.0566C105.533 10.5459 106.175 10.29 106.985 10.29C107.763 10.29 108.39 10.5415 108.863 11.0456C109.314 11.5354 109.54 12.168 109.54 12.9412ZM108.317 12.9785C108.317 12.5008 108.211 12.0911 108.001 11.7496C107.752 11.3367 107.4 11.1302 106.941 11.1302C106.468 11.1302 106.107 11.3367 105.858 11.7496C105.646 12.0911 105.542 12.5074 105.542 12.9994C105.542 13.4771 105.648 13.8868 105.858 14.2283C106.114 14.6413 106.47 14.8477 106.929 14.8477C107.38 14.8477 107.735 14.638 107.989 14.2173C108.207 13.8692 108.317 13.4563 108.317 12.9785Z" fill="white"/>
<path d="M115.887 15.5729H114.707V12.6077C114.707 11.694 114.351 11.2371 113.636 11.2371C113.286 11.2371 113.003 11.3623 112.784 11.6138C112.566 11.8653 112.457 12.1618 112.457 12.5012V15.5718H111.275V11.8752C111.275 11.4205 111.262 10.9274 111.233 10.3936H112.27L112.325 11.203H112.358C112.496 10.9515 112.701 10.744 112.969 10.5781C113.29 10.3849 113.647 10.2871 114.04 10.2871C114.535 10.2871 114.947 10.4431 115.275 10.7561C115.684 11.1393 115.887 11.7115 115.887 12.4715V15.5729Z" fill="#1C1C1C"/>
<path d="M115.887 15.5729H114.707V12.6077C114.707 11.694 114.351 11.2371 113.636 11.2371C113.286 11.2371 113.003 11.3623 112.784 11.6138C112.566 11.8653 112.457 12.1618 112.457 12.5012V15.5718H111.275V11.8752C111.275 11.4205 111.262 10.9274 111.233 10.3936H112.27L112.325 11.203H112.358C112.496 10.9515 112.701 10.744 112.969 10.5781C113.29 10.3849 113.647 10.2871 114.04 10.2871C114.535 10.2871 114.947 10.4431 115.275 10.7561C115.684 11.1393 115.887 11.7115 115.887 12.4715V15.5729Z" fill="black" fill-opacity="0.2"/>
<path d="M115.887 15.5729H114.707V12.6077C114.707 11.694 114.351 11.2371 113.636 11.2371C113.286 11.2371 113.003 11.3623 112.784 11.6138C112.566 11.8653 112.457 12.1618 112.457 12.5012V15.5718H111.275V11.8752C111.275 11.4205 111.262 10.9274 111.233 10.3936H112.27L112.325 11.203H112.358C112.496 10.9515 112.701 10.744 112.969 10.5781C113.29 10.3849 113.647 10.2871 114.04 10.2871C114.535 10.2871 114.947 10.4431 115.275 10.7561C115.684 11.1393 115.887 11.7115 115.887 12.4715V15.5729Z" fill="white"/>
<path d="M123.833 11.2579H122.533V13.7729C122.533 14.412 122.764 14.7316 123.221 14.7316C123.433 14.7316 123.608 14.714 123.747 14.6778L123.777 15.5509C123.544 15.6366 123.238 15.6794 122.86 15.6794C122.394 15.6794 122.031 15.541 121.769 15.2643C121.505 14.9875 121.375 14.5219 121.375 13.8684V11.2579H120.599V10.3958H121.375V9.4469L122.532 9.10645V10.3947H123.831V11.2579H123.833Z" fill="#1C1C1C"/>
<path d="M123.833 11.2579H122.533V13.7729C122.533 14.412 122.764 14.7316 123.221 14.7316C123.433 14.7316 123.608 14.714 123.747 14.6778L123.777 15.5509C123.544 15.6366 123.238 15.6794 122.86 15.6794C122.394 15.6794 122.031 15.541 121.769 15.2643C121.505 14.9875 121.375 14.5219 121.375 13.8684V11.2579H120.599V10.3958H121.375V9.4469L122.532 9.10645V10.3947H123.831V11.2579H123.833Z" fill="black" fill-opacity="0.2"/>
<path d="M123.833 11.2579H122.533V13.7729C122.533 14.412 122.764 14.7316 123.221 14.7316C123.433 14.7316 123.608 14.714 123.747 14.6778L123.777 15.5509C123.544 15.6366 123.238 15.6794 122.86 15.6794C122.394 15.6794 122.031 15.541 121.769 15.2643C121.505 14.9875 121.375 14.5219 121.375 13.8684V11.2579H120.599V10.3958H121.375V9.4469L122.532 9.10645V10.3947H123.831V11.2579H123.833Z" fill="white"/>
<path d="M130.082 15.5721H128.901V12.6288C128.901 11.7008 128.545 11.2363 127.832 11.2363C127.284 11.2363 126.91 11.5053 126.705 12.0435C126.67 12.1566 126.65 12.295 126.65 12.4575V15.571H125.471V8.01953H126.65V11.1396H126.673C127.044 10.5718 127.577 10.2885 128.268 10.2885C128.756 10.2885 129.161 10.4444 129.482 10.7574C129.882 11.1473 130.082 11.7272 130.082 12.4937V15.5721Z" fill="#1C1C1C"/>
<path d="M130.082 15.5721H128.901V12.6288C128.901 11.7008 128.545 11.2363 127.832 11.2363C127.284 11.2363 126.91 11.5053 126.705 12.0435C126.67 12.1566 126.65 12.295 126.65 12.4575V15.571H125.471V8.01953H126.65V11.1396H126.673C127.044 10.5718 127.577 10.2885 128.268 10.2885C128.756 10.2885 129.161 10.4444 129.482 10.7574C129.882 11.1473 130.082 11.7272 130.082 12.4937V15.5721Z" fill="black" fill-opacity="0.2"/>
<path d="M130.082 15.5721H128.901V12.6288C128.901 11.7008 128.545 11.2363 127.832 11.2363C127.284 11.2363 126.91 11.5053 126.705 12.0435C126.67 12.1566 126.65 12.295 126.65 12.4575V15.571H125.471V8.01953H126.65V11.1396H126.673C127.044 10.5718 127.577 10.2885 128.268 10.2885C128.756 10.2885 129.161 10.4444 129.482 10.7574C129.882 11.1473 130.082 11.7272 130.082 12.4937V15.5721Z" fill="white"/>
<path d="M136.526 12.7382C136.526 12.9447 136.511 13.1182 136.482 13.2599H132.942C132.958 13.7717 133.127 14.1616 133.455 14.4317C133.754 14.6733 134.141 14.7941 134.614 14.7941C135.138 14.7941 135.615 14.7129 136.045 14.5492L136.23 15.3488C135.727 15.5618 135.134 15.6683 134.448 15.6683C133.626 15.6683 132.978 15.4322 132.51 14.96C132.039 14.4877 131.806 13.8541 131.806 13.0589C131.806 12.2781 132.023 11.6279 132.461 11.1096C132.919 10.5561 133.537 10.2793 134.318 10.2793C135.081 10.2793 135.661 10.5561 136.053 11.1096C136.37 11.5489 136.526 12.0925 136.526 12.7382ZM135.4 12.4406C135.409 12.0991 135.331 11.8047 135.171 11.5565C134.966 11.237 134.654 11.0766 134.232 11.0766C133.847 11.0766 133.532 11.2326 133.293 11.5456C133.097 11.7949 132.98 12.0925 132.942 12.4406H135.4Z" fill="#1C1C1C"/>
<path d="M136.526 12.7382C136.526 12.9447 136.511 13.1182 136.482 13.2599H132.942C132.958 13.7717 133.127 14.1616 133.455 14.4317C133.754 14.6733 134.141 14.7941 134.614 14.7941C135.138 14.7941 135.615 14.7129 136.045 14.5492L136.23 15.3488C135.727 15.5618 135.134 15.6683 134.448 15.6683C133.626 15.6683 132.978 15.4322 132.51 14.96C132.039 14.4877 131.806 13.8541 131.806 13.0589C131.806 12.2781 132.023 11.6279 132.461 11.1096C132.919 10.5561 133.537 10.2793 134.318 10.2793C135.081 10.2793 135.661 10.5561 136.053 11.1096C136.37 11.5489 136.526 12.0925 136.526 12.7382ZM135.4 12.4406C135.409 12.0991 135.331 11.8047 135.171 11.5565C134.966 11.237 134.654 11.0766 134.232 11.0766C133.847 11.0766 133.532 11.2326 133.293 11.5456C133.097 11.7949 132.98 12.0925 132.942 12.4406H135.4Z" fill="black" fill-opacity="0.2"/>
<path d="M136.526 12.7382C136.526 12.9447 136.511 13.1182 136.482 13.2599H132.942C132.958 13.7717 133.127 14.1616 133.455 14.4317C133.754 14.6733 134.141 14.7941 134.614 14.7941C135.138 14.7941 135.615 14.7129 136.045 14.5492L136.23 15.3488C135.727 15.5618 135.134 15.6683 134.448 15.6683C133.626 15.6683 132.978 15.4322 132.51 14.96C132.039 14.4877 131.806 13.8541 131.806 13.0589C131.806 12.2781 132.023 11.6279 132.461 11.1096C132.919 10.5561 133.537 10.2793 134.318 10.2793C135.081 10.2793 135.661 10.5561 136.053 11.1096C136.37 11.5489 136.526 12.0925 136.526 12.7382ZM135.4 12.4406C135.409 12.0991 135.331 11.8047 135.171 11.5565C134.966 11.237 134.654 11.0766 134.232 11.0766C133.847 11.0766 133.532 11.2326 133.293 11.5456C133.097 11.7949 132.98 12.0925 132.942 12.4406H135.4Z" fill="white"/>
</svg>
