<svg width="148" height="148" viewBox="0 0 148 148" fill="none" xmlns="http://www.w3.org/2000/svg">
<rect x="0.330078" width="147.34" height="147.34" rx="73.6702" fill="url(#paint0_linear_5713_176529)"/>
<rect x="0.821213" y="0.491135" width="146.358" height="146.358" rx="73.1791" stroke="#22B9DD" stroke-opacity="0.22" strokeWidth="0.98227"/>
<path d="M87.5625 64.3629V63.0139C87.5625 56.9399 78.4005 52.3577 66.25 52.3577C54.0995 52.3577 44.9375 56.9399 44.9375 63.0139V72.7014C44.9375 77.7607 51.2949 81.781 60.4375 82.9847V84.3264C60.4375 90.4005 69.5995 94.9827 81.75 94.9827C93.9005 94.9827 103.062 90.4005 103.062 84.3264V74.6389C103.062 69.6256 96.9061 65.6005 87.5625 64.3629ZM99.1875 74.6389C99.1875 77.8406 91.7305 81.4202 81.75 81.4202C80.8466 81.4202 79.9505 81.3887 79.0666 81.3306C84.2905 79.427 87.5625 76.3342 87.5625 72.7014V68.2791C94.7966 69.3568 99.1875 72.2824 99.1875 74.6389ZM60.4375 79.0588V73.2972C62.3648 73.5483 64.3064 73.6729 66.25 73.6702C68.1936 73.6729 70.1352 73.5483 72.0625 73.2972V79.0588C70.1381 79.3431 68.1953 79.4848 66.25 79.4827C64.3047 79.4848 62.3619 79.3431 60.4375 79.0588ZM83.6875 69.2938V72.7014C83.6875 74.7334 80.682 76.9155 75.9375 78.2402V72.5803C79.0641 71.8223 81.7113 70.6937 83.6875 69.2938ZM66.25 56.2327C76.2305 56.2327 83.6875 59.8122 83.6875 63.0139C83.6875 66.2156 76.2305 69.7952 66.25 69.7952C56.2695 69.7952 48.8125 66.2156 48.8125 63.0139C48.8125 59.8122 56.2695 56.2327 66.25 56.2327ZM48.8125 72.7014V69.2938C50.7888 70.6937 53.4359 71.8223 56.5625 72.5803V78.2402C51.818 76.9155 48.8125 74.7334 48.8125 72.7014ZM64.3125 84.3264V83.3165C64.9495 83.3407 65.5937 83.3577 66.25 83.3577C67.1897 83.3577 68.1076 83.3262 69.0085 83.2729C70.0094 83.6312 71.0289 83.9352 72.0625 84.1835V89.8652C67.318 88.5405 64.3125 86.3584 64.3125 84.3264ZM75.9375 90.6838V84.9077C77.8642 85.1667 79.806 85.2961 81.75 85.2952C83.6936 85.2979 85.6352 85.1733 87.5625 84.9222V90.6838C83.7081 91.2489 79.7919 91.2489 75.9375 90.6838ZM91.4375 89.8652V84.2053C94.5641 83.4473 97.2113 82.3187 99.1875 80.9188V84.3264C99.1875 86.3584 96.182 88.5405 91.4375 89.8652Z" fill="#807F98"/>
<g clip-path="url(#clip0_5713_176529)">
<g clip-path="url(#clip1_5713_176529)">
<path d="M121.15 39.7088C120.653 40.0791 120.404 40.4493 120.156 40.5727C118.912 41.0664 117.669 41.56 116.425 42.0537C114.56 42.6708 113.441 43.905 113.193 45.8796C112.944 47.4841 112.695 49.0885 112.322 50.693C112.198 51.1866 111.825 51.9271 111.452 52.0506C110.706 52.1739 110.706 51.31 110.582 50.8163C110.084 49.3354 109.587 47.7309 109.214 46.2499C108.592 44.1518 107.224 43.0411 104.986 43.0411C104.116 43.0411 103.37 42.9176 102.5 42.7942C102.002 42.7942 101.754 42.5474 101.505 42.3006C101.754 42.0537 101.878 41.6835 102.127 41.56C103.37 41.0664 104.738 40.5727 105.981 40.2024C107.224 39.8322 108.095 38.9683 108.343 37.7341C108.841 35.7595 109.214 33.7848 109.711 31.9335C109.96 31.3164 109.711 30.4525 110.582 30.4525C111.452 30.4525 111.328 31.193 111.452 31.6867C111.825 33.4145 112.198 35.0189 112.695 36.7468C113.317 38.9683 113.814 39.3385 116.177 39.3385C117.42 39.3385 118.788 39.2151 120.031 39.2151C120.156 39.2151 120.529 39.462 121.15 39.7088Z" fill="#22B9DD" fill-opacity="0.2"/>
<path d="M101.504 31.1517C101.256 31.3368 101.131 31.522 101.007 31.5837C100.385 31.8305 99.7636 32.0773 99.1419 32.3242C98.2094 32.6327 97.6499 33.2498 97.5255 34.2371C97.4012 35.0393 97.2768 35.8416 97.0903 36.6438C97.0282 36.8906 96.8417 37.2608 96.6552 37.3225C96.2821 37.3843 96.2821 36.9523 96.22 36.7055C95.9713 35.965 95.7226 35.1628 95.5361 34.4223C95.2253 33.3732 94.5414 32.8178 93.4224 32.8178C92.9872 32.8178 92.6142 32.7561 92.179 32.6944C91.9303 32.6944 91.806 32.571 91.6816 32.4476C91.806 32.3242 91.8681 32.139 91.9925 32.0773C92.6142 31.8305 93.298 31.5837 93.9197 31.3985C94.5414 31.2134 94.9766 30.7815 95.1009 30.1644C95.3496 29.177 95.5361 28.1897 95.7848 27.2641C95.9091 26.9555 95.7848 26.5236 96.22 26.5236C96.6552 26.5236 96.593 26.8938 96.6552 27.1406C96.8417 28.0046 97.0282 28.8068 97.2768 29.6707C97.5877 30.7815 97.8364 30.9666 99.0176 30.9666C99.6393 30.9666 100.323 30.9049 100.945 30.9049C101.007 30.9049 101.193 31.0283 101.504 31.1517Z" fill="#22B9DD" fill-opacity="0.2"/>
</g>
</g>
<defs>
<linearGradient id="paint0_linear_5713_176529" x1="74.0003" y1="0" x2="74.0003" y2="147.34" gradientUnits="userSpaceOnUse">
<stop stop-color="white"/>
<stop offset="1" stop-color="#EFFFFD"/>
</linearGradient>
<clipPath id="clip0_5713_176529">
<rect width="29.4681" height="25.539" fill="white" transform="translate(91.6816 26.5228)"/>
</clipPath>
<clipPath id="clip1_5713_176529">
<rect width="29.4681" height="25.539" fill="white" transform="translate(91.6816 26.5232)"/>
</clipPath>
</defs>
</svg>
