<svg width="148" height="148" viewBox="0 0 148 148" fill="none" xmlns="http://www.w3.org/2000/svg">
<rect x="0.330078" width="147.34" height="147.34" rx="73.6702" fill="url(#paint0_linear_5713_179768)"/>
<rect x="0.821213" y="0.491135" width="146.358" height="146.358" rx="73.1791" stroke="#22B9DD" stroke-opacity="0.22" stroke-width="0.98227"/>
<path d="M76.5837 96.9202L81.7503 94.3368L86.917 96.9202V78.8368H76.5837M86.917 65.9202V60.7535L81.7503 63.3368L76.5837 60.7535V65.9202L71.417 68.5035L76.5837 71.0868V76.2535L81.7503 73.6702L86.917 76.2535V71.0868L92.0837 68.5035M94.667 50.4202H53.3337C51.9634 50.4202 50.6492 50.9645 49.6803 51.9334C48.7113 52.9024 48.167 54.2165 48.167 55.5868V81.4202C48.167 82.7905 48.7113 84.1046 49.6803 85.0735C50.6492 86.0425 51.9634 86.5868 53.3337 86.5868H71.417V81.4202H53.3337V55.5868H94.667V81.4202H92.0837V86.5868H94.667C96.0373 86.5868 97.3514 86.0425 98.3204 85.0735C99.2893 84.1046 99.8337 82.7905 99.8337 81.4202V55.5868C99.8337 54.2165 99.2893 52.9024 98.3204 51.9334C97.3514 50.9645 96.0373 50.4202 94.667 50.4202ZM71.417 63.3368H55.917V58.1702H71.417M66.2503 71.0868H55.917V65.9202H66.2503M71.417 78.8368H55.917V73.6702H71.417V78.8368Z" fill="#807F98"/>
<g clip-path="url(#clip0_5713_179768)">
<g clip-path="url(#clip1_5713_179768)">
<path d="M121.15 39.7088C120.653 40.0791 120.404 40.4493 120.156 40.5727C118.912 41.0664 117.669 41.56 116.425 42.0537C114.56 42.6708 113.441 43.905 113.193 45.8796C112.944 47.4841 112.695 49.0885 112.322 50.693C112.198 51.1866 111.825 51.9271 111.452 52.0506C110.706 52.1739 110.706 51.31 110.582 50.8163C110.084 49.3354 109.587 47.7309 109.214 46.2499C108.592 44.1518 107.224 43.0411 104.986 43.0411C104.116 43.0411 103.37 42.9176 102.5 42.7942C102.002 42.7942 101.754 42.5474 101.505 42.3006C101.754 42.0537 101.878 41.6835 102.127 41.56C103.37 41.0664 104.738 40.5727 105.981 40.2024C107.224 39.8322 108.095 38.9683 108.343 37.7341C108.841 35.7595 109.214 33.7848 109.711 31.9335C109.96 31.3164 109.711 30.4525 110.582 30.4525C111.452 30.4525 111.328 31.193 111.452 31.6867C111.825 33.4145 112.198 35.0189 112.695 36.7468C113.317 38.9683 113.814 39.3385 116.177 39.3385C117.42 39.3385 118.788 39.2151 120.031 39.2151C120.156 39.2151 120.529 39.462 121.15 39.7088Z" fill="#22B9DD" fill-opacity="0.2"/>
<path d="M101.504 31.1517C101.256 31.3368 101.131 31.522 101.007 31.5837C100.385 31.8305 99.7636 32.0773 99.1419 32.3242C98.2094 32.6327 97.6499 33.2498 97.5255 34.2371C97.4012 35.0393 97.2768 35.8416 97.0903 36.6438C97.0282 36.8906 96.8417 37.2608 96.6552 37.3225C96.2821 37.3843 96.2821 36.9523 96.22 36.7055C95.9713 35.965 95.7226 35.1628 95.5361 34.4223C95.2253 33.3732 94.5414 32.8178 93.4224 32.8178C92.9872 32.8178 92.6142 32.7561 92.179 32.6944C91.9303 32.6944 91.806 32.571 91.6816 32.4476C91.806 32.3242 91.8681 32.139 91.9925 32.0773C92.6142 31.8305 93.298 31.5837 93.9197 31.3985C94.5414 31.2134 94.9766 30.7815 95.1009 30.1644C95.3496 29.177 95.5361 28.1897 95.7848 27.2641C95.9091 26.9555 95.7848 26.5236 96.22 26.5236C96.6552 26.5236 96.593 26.8938 96.6552 27.1406C96.8417 28.0046 97.0282 28.8068 97.2768 29.6707C97.5877 30.7815 97.8364 30.9666 99.0176 30.9666C99.6393 30.9666 100.323 30.9049 100.945 30.9049C101.007 30.9049 101.193 31.0283 101.504 31.1517Z" fill="#22B9DD" fill-opacity="0.2"/>
</g>
</g>
<defs>
<linearGradient id="paint0_linear_5713_179768" x1="74.0003" y1="0" x2="74.0003" y2="147.34" gradientUnits="userSpaceOnUse">
<stop stop-color="white"/>
<stop offset="1" stop-color="#EFFFFD"/>
</linearGradient>
<clipPath id="clip0_5713_179768">
<rect width="29.4681" height="25.539" fill="white" transform="translate(91.6816 26.5228)"/>
</clipPath>
<clipPath id="clip1_5713_179768">
<rect width="29.4681" height="25.539" fill="white" transform="translate(91.6816 26.5232)"/>
</clipPath>
</defs>
</svg>
