<svg width="149" height="148" viewBox="0 0 149 148" fill="none" xmlns="http://www.w3.org/2000/svg">
<rect x="0.830078" y="0.340332" width="147.34" height="147.34" rx="73.6702" fill="url(#paint0_linear_5713_246549)"/>
<rect x="1.32121" y="0.831467" width="146.358" height="146.358" rx="73.1791" stroke="#22B9DD" stroke-opacity="0.22" stroke-width="0.98227"/>
<path d="M61 62.3854C61.3542 62.3854 61.6617 62.2511 61.9225 61.9824C62.1833 61.7138 62.3133 61.396 62.3125 61.0292C62.3117 60.6623 62.1817 60.345 61.9225 60.0772C61.6633 59.8094 61.3558 59.6746 61 59.6729C60.6442 59.6712 60.3371 59.806 60.0787 60.0772C59.8204 60.3485 59.69 60.6658 59.6875 61.0292C59.685 61.3926 59.8154 61.7103 60.0787 61.9824C60.3421 62.2545 60.6492 62.3889 61 62.3854ZM60.0625 58.2521H61.9375C61.9375 57.6278 62 57.1705 62.125 56.8803C62.25 56.5901 62.5417 56.2078 63 55.7333C63.625 55.0875 64.0417 54.5657 64.25 54.1678C64.4583 53.77 64.5625 53.3016 64.5625 52.7625C64.5625 51.7938 64.2342 51.0028 63.5775 50.3897C62.9208 49.7766 62.0617 49.4696 61 49.4688C60.1458 49.4688 59.4013 49.7163 58.7663 50.2115C58.1313 50.7066 57.6883 51.3632 57.4375 52.1813L59.125 52.8917C59.3125 52.3535 59.5679 51.95 59.8912 51.6814C60.2146 51.4127 60.5842 51.2779 61 51.2771C61.5 51.2771 61.9063 51.4226 62.2188 51.7137C62.5313 52.0047 62.6875 52.3974 62.6875 52.8917C62.6875 53.1931 62.6042 53.4785 62.4375 53.748C62.2708 54.0176 61.9792 54.3564 61.5625 54.7646C60.875 55.3889 60.4533 55.8789 60.2975 56.2345C60.1417 56.5901 60.0633 57.2627 60.0625 58.2521ZM53.5 66.2604C52.8125 66.2604 52.2242 66.0077 51.735 65.5022C51.2458 64.9967 51.0008 64.3884 51 63.6771V48.1771C51 47.4667 51.245 46.8587 51.735 46.3533C52.225 45.8478 52.8133 45.5946 53.5 45.5938H68.5C69.1875 45.5938 69.7763 45.8469 70.2663 46.3533C70.7563 46.8596 71.0008 47.4675 71 48.1771V63.6771C71 64.3875 70.7554 64.9959 70.2663 65.5022C69.7771 66.0085 69.1883 66.2613 68.5 66.2604H53.5ZM53.5 63.6771H68.5V48.1771H53.5V63.6771ZM48.5 71.4271C47.8125 71.4271 47.2242 71.1743 46.735 70.6689C46.2458 70.1634 46.0008 69.555 46 68.8438V50.7604H48.5V68.8438H66V71.4271H48.5Z" fill="#807F98"/>
<g clip-path="url(#clip0_5713_246549)">
<g clip-path="url(#clip1_5713_246549)">
<path d="M121.65 40.0488C121.153 40.419 120.904 40.7892 120.656 40.9127C119.412 41.4064 118.169 41.9 116.925 42.3937C115.06 43.0107 113.941 44.245 113.693 46.2196C113.444 47.8241 113.195 49.4285 112.822 51.0329C112.698 51.5265 112.325 52.2671 111.952 52.3905C111.206 52.5139 111.206 51.65 111.082 51.1563C110.584 49.6753 110.087 48.0709 109.714 46.5898C109.092 44.4918 107.724 43.3811 105.486 43.3811C104.616 43.3811 103.87 43.2576 103 43.1342C102.502 43.1342 102.254 42.8874 102.005 42.6405C102.254 42.3937 102.378 42.0235 102.627 41.9C103.87 41.4064 105.238 40.9127 106.481 40.5424C107.724 40.1722 108.595 39.3083 108.843 38.074C109.341 36.0994 109.714 34.1247 110.211 32.2735C110.46 31.6564 110.211 30.7925 111.082 30.7925C111.952 30.7925 111.828 31.533 111.952 32.0267C112.325 33.7545 112.698 35.3589 113.195 37.0868C113.817 39.3083 114.314 39.6785 116.677 39.6785C117.92 39.6785 119.288 39.5551 120.531 39.5551C120.656 39.5551 121.029 39.802 121.65 40.0488Z" fill="#22B9DD" fill-opacity="0.2"/>
<path d="M102.004 31.4917C101.756 31.6768 101.631 31.8619 101.507 31.9236C100.885 32.1705 100.264 32.4173 99.6419 32.6641C98.7094 32.9727 98.1499 33.5898 98.0255 34.5771C97.9012 35.3793 97.7768 36.1815 97.5903 36.9838C97.5282 37.2306 97.3417 37.6008 97.1552 37.6625C96.7821 37.7243 96.7821 37.2923 96.72 37.0454C96.4713 36.3049 96.2226 35.5027 96.0361 34.7622C95.7253 33.7132 95.0414 33.1578 93.9224 33.1578C93.4872 33.1578 93.1142 33.0961 92.679 33.0344C92.4303 33.0344 92.306 32.911 92.1816 32.7876C92.306 32.6641 92.3681 32.479 92.4925 32.4173C93.1142 32.1705 93.798 31.9236 94.4197 31.7385C95.0414 31.5534 95.4766 31.1214 95.6009 30.5043C95.8496 29.517 96.0361 28.5297 96.2848 27.604C96.4091 27.2955 96.2848 26.8635 96.72 26.8635C97.1552 26.8635 97.093 27.2338 97.1552 27.4806C97.3417 28.3445 97.5282 29.1467 97.7768 30.0107C98.0877 31.1214 98.3364 31.3065 99.5176 31.3065C100.139 31.3065 100.823 31.2448 101.445 31.2448C101.507 31.2448 101.693 31.3683 102.004 31.4917Z" fill="#22B9DD" fill-opacity="0.2"/>
</g>
</g>
<defs>
<linearGradient id="paint0_linear_5713_246549" x1="74.5003" y1="0.340332" x2="74.5003" y2="147.681" gradientUnits="userSpaceOnUse">
<stop stop-color="white"/>
<stop offset="1" stop-color="#EFFFFD"/>
</linearGradient>
<clipPath id="clip0_5713_246549">
<rect width="29.4681" height="25.539" fill="white" transform="translate(92.1816 26.863)"/>
</clipPath>
<clipPath id="clip1_5713_246549">
<rect width="29.4681" height="25.539" fill="white" transform="translate(92.1816 26.8633)"/>
</clipPath>
</defs>
</svg>
