<svg width="148" height="148" viewBox="0 0 148 148" fill="none" xmlns="http://www.w3.org/2000/svg">
<rect x="0.330078" y="0.340332" width="147.34" height="147.34" rx="73.6702" fill="url(#paint0_linear_5713_466805)"/>
<rect x="0.821213" y="0.831467" width="146.358" height="146.358" rx="73.1791" stroke="#22B9DD" stroke-opacity="0.22" strokeWidth="0.98227"/>
<path d="M75.9375 62.3856V72.9135L84.6853 78.1617C85.1259 78.4263 85.4434 78.8551 85.5679 79.3538C85.6923 79.8525 85.6135 80.3803 85.3489 80.8209C85.0843 81.2615 84.6554 81.579 84.1567 81.7034C83.658 81.8279 83.1303 81.7491 82.6897 81.4845L73.0022 75.672C72.7155 75.4997 72.4782 75.2562 72.3136 74.965C72.1489 74.6739 72.0624 74.3451 72.0625 74.0106V62.3856C72.0625 61.8717 72.2666 61.3789 72.63 61.0156C72.9933 60.6522 73.4861 60.4481 74 60.4481C74.5139 60.4481 75.0067 60.6522 75.37 61.0156C75.7334 61.3789 75.9375 61.8717 75.9375 62.3856ZM74 50.7606C70.9436 50.753 67.916 51.3516 65.0925 52.5218C62.269 53.6921 59.7056 55.4107 57.5506 57.5781C55.7899 59.3606 54.2254 61.0753 52.6875 62.8699V58.5106C52.6875 57.9967 52.4834 57.5039 52.12 57.1406C51.7567 56.7772 51.2639 56.5731 50.75 56.5731C50.2361 56.5731 49.7433 56.7772 49.38 57.1406C49.0166 57.5039 48.8125 57.9967 48.8125 58.5106V68.1981C48.8125 68.7119 49.0166 69.2047 49.38 69.5681C49.7433 69.9314 50.2361 70.1356 50.75 70.1356H60.4375C60.9514 70.1356 61.4442 69.9314 61.8075 69.5681C62.1709 69.2047 62.375 68.7119 62.375 68.1981C62.375 67.6842 62.1709 67.1914 61.8075 66.8281C61.4442 66.4647 60.9514 66.2606 60.4375 66.2606H54.8672C56.5988 64.2214 58.3232 62.3008 60.2898 60.31C62.9825 57.6173 66.4091 55.7777 70.1414 55.0213C73.8737 54.2649 77.7461 54.6251 81.2748 56.0569C84.8035 57.4888 87.832 59.9287 89.9819 63.072C92.1319 66.2152 93.3078 69.9223 93.3629 73.73C93.418 77.5377 92.3497 81.2773 90.2916 84.4814C88.2336 87.6855 85.2769 90.212 81.7911 91.7453C78.3052 93.2786 74.4449 93.7507 70.6923 93.1026C66.9397 92.4544 63.4613 90.7148 60.6918 88.101C60.5067 87.9261 60.289 87.7894 60.051 87.6986C59.813 87.6078 59.5595 87.5648 59.305 87.572C59.0504 87.5792 58.7997 87.6365 58.5673 87.7405C58.3348 87.8446 58.1252 87.9934 57.9502 88.1785C57.7753 88.3636 57.6386 88.5814 57.5478 88.8193C57.457 89.0573 57.414 89.3108 57.4212 89.5654C57.4284 89.82 57.4857 90.0706 57.5897 90.3031C57.6938 90.5355 57.8426 90.7452 58.0277 90.9201C60.7873 93.5243 64.1424 95.4135 67.8 96.4228C71.4577 97.4322 75.3067 97.531 79.0114 96.7107C82.716 95.8904 86.1636 94.1759 89.0532 91.7167C91.9428 89.2576 94.1866 86.1287 95.5889 82.6029C96.9911 79.0772 97.5092 75.2618 97.0978 71.4898C96.6864 67.7179 95.3581 64.1039 93.2289 60.9633C91.0996 57.8227 88.234 55.251 84.8822 53.4725C81.5305 51.6941 77.7944 50.763 74 50.7606Z" fill="#807F98"/>
<g clip-path="url(#clip0_5713_466805)">
<g clip-path="url(#clip1_5713_466805)">
<path d="M121.15 40.0488C120.653 40.419 120.404 40.7892 120.156 40.9127C118.912 41.4064 117.669 41.9 116.425 42.3937C114.56 43.0107 113.441 44.245 113.193 46.2196C112.944 47.8241 112.695 49.4285 112.322 51.0329C112.198 51.5265 111.825 52.2671 111.452 52.3905C110.706 52.5139 110.706 51.65 110.582 51.1563C110.084 49.6753 109.587 48.0709 109.214 46.5898C108.592 44.4918 107.224 43.3811 104.986 43.3811C104.116 43.3811 103.37 43.2576 102.5 43.1342C102.002 43.1342 101.754 42.8874 101.505 42.6405C101.754 42.3937 101.878 42.0235 102.127 41.9C103.37 41.4064 104.738 40.9127 105.981 40.5424C107.224 40.1722 108.095 39.3083 108.343 38.074C108.841 36.0994 109.214 34.1247 109.711 32.2735C109.96 31.6564 109.711 30.7925 110.582 30.7925C111.452 30.7925 111.328 31.533 111.452 32.0267C111.825 33.7545 112.198 35.3589 112.695 37.0868C113.317 39.3083 113.814 39.6785 116.177 39.6785C117.42 39.6785 118.788 39.5551 120.031 39.5551C120.156 39.5551 120.529 39.802 121.15 40.0488Z" fill="#22B9DD" fill-opacity="0.2"/>
<path d="M101.504 31.4917C101.256 31.6768 101.131 31.8619 101.007 31.9236C100.385 32.1705 99.7636 32.4173 99.1419 32.6641C98.2094 32.9727 97.6499 33.5898 97.5255 34.5771C97.4012 35.3793 97.2768 36.1815 97.0903 36.9838C97.0282 37.2306 96.8417 37.6008 96.6552 37.6625C96.2821 37.7243 96.2821 37.2923 96.22 37.0454C95.9713 36.3049 95.7226 35.5027 95.5361 34.7622C95.2253 33.7132 94.5414 33.1578 93.4224 33.1578C92.9872 33.1578 92.6142 33.0961 92.179 33.0344C91.9303 33.0344 91.806 32.911 91.6816 32.7876C91.806 32.6641 91.8681 32.479 91.9925 32.4173C92.6142 32.1705 93.298 31.9236 93.9197 31.7385C94.5414 31.5534 94.9766 31.1214 95.1009 30.5043C95.3496 29.517 95.5361 28.5297 95.7848 27.604C95.9091 27.2955 95.7848 26.8635 96.22 26.8635C96.6552 26.8635 96.593 27.2338 96.6552 27.4806C96.8417 28.3445 97.0282 29.1467 97.2768 30.0107C97.5877 31.1214 97.8364 31.3065 99.0176 31.3065C99.6393 31.3065 100.323 31.2448 100.945 31.2448C101.007 31.2448 101.193 31.3683 101.504 31.4917Z" fill="#22B9DD" fill-opacity="0.2"/>
</g>
</g>
<defs>
<linearGradient id="paint0_linear_5713_466805" x1="74.0003" y1="0.340332" x2="74.0003" y2="147.681" gradientUnits="userSpaceOnUse">
<stop stop-color="white"/>
<stop offset="1" stop-color="#EFFFFD"/>
</linearGradient>
<clipPath id="clip0_5713_466805">
<rect width="29.4681" height="25.539" fill="white" transform="translate(91.6816 26.863)"/>
</clipPath>
<clipPath id="clip1_5713_466805">
<rect width="29.4681" height="25.539" fill="white" transform="translate(91.6816 26.8633)"/>
</clipPath>
</defs>
</svg>
